<svg width="802" height="394" viewBox="0 0 802 394" fill="none" xmlns="http://www.w3.org/2000/svg">
<g filter="url(#filter0_d_103_14)">
<path d="M781.303 310.106C774.311 329.704 757.069 345.288 731.756 356.656C706.446 368.022 673.121 375.147 634.077 377.849C555.992 383.254 455.135 370.967 350.023 339.69C244.911 308.413 155.49 264.081 95.8862 217.709C66.0826 194.521 43.7576 170.842 30.6447 148.052C17.5333 125.264 13.6556 103.412 20.645 83.8225C27.637 64.2253 44.8794 48.6409 70.192 37.2731C95.5022 25.9065 128.827 18.7822 167.871 16.0796C245.956 10.6747 346.814 22.9617 451.925 54.2384C557.037 85.5154 646.458 129.847 706.062 176.22C735.865 199.407 758.19 223.087 771.303 245.877C784.415 268.665 788.292 290.517 781.303 310.106Z" stroke="#7D5182" shape-rendering="crispEdges"/>
</g>
<g clip-path="url(#clip0_103_14)">
<path d="M161.881 31.114C163.26 20.5503 164.929 18.5721 175.114 15.449C164.551 14.0721 162.574 12.4008 159.449 2.21612C158.07 12.7798 156.401 14.758 146.216 17.881C156.779 19.258 158.756 20.9293 161.881 31.114Z" fill="#7D5182"/>
</g>
<defs>
<filter id="filter0_d_103_14" x="12.7168" y="14.3458" width="776.515" height="373.237" filterUnits="userSpaceOnUse" color-interpolation-filters="sRGB">
<feFlood flood-opacity="0" result="BackgroundImageFix"/>
<feColorMatrix in="SourceAlpha" type="matrix" values="0 0 0 0 0 0 0 0 0 0 0 0 0 0 0 0 0 0 127 0" result="hardAlpha"/>
<feOffset dy="4"/>
<feGaussianBlur stdDeviation="2"/>
<feComposite in2="hardAlpha" operator="out"/>
<feColorMatrix type="matrix" values="0 0 0 0 0 0 0 0 0 0 0 0 0 0 0 0 0 0 0.25 0"/>
<feBlend mode="normal" in2="BackgroundImageFix" result="effect1_dropShadow_103_14"/>
<feBlend mode="normal" in="SourceGraphic" in2="effect1_dropShadow_103_14" result="shape"/>
</filter>
<clipPath id="clip0_103_14">
<rect width="29" height="29" fill="white" transform="translate(145 3.43213) rotate(-4.81063)"/>
</clipPath>
</defs>
</svg>
