<svg width="802" height="394" viewBox="0 0 802 394" fill="none" xmlns="http://www.w3.org/2000/svg">
<path d="M20.6451 310.106C27.637 329.704 44.8795 345.288 70.192 356.656C95.5022 368.022 128.827 375.147 167.871 377.849C245.956 383.254 346.814 370.967 451.925 339.69C557.037 308.413 646.458 264.081 706.062 217.709C735.865 194.521 758.191 170.842 771.303 148.052C784.415 125.264 788.292 103.412 781.303 83.8225C774.311 64.2253 757.069 48.6409 731.756 37.2731C706.446 25.9065 673.121 18.7822 634.077 16.0796C555.992 10.6747 455.135 22.9617 350.023 54.2384C244.911 85.5154 155.49 129.847 95.8862 176.22C66.0826 199.407 43.7576 223.087 30.6447 245.877C17.5333 268.665 13.6557 290.517 20.6451 310.106Z" stroke="#7D5182"/>
<g clip-path="url(#clip0_103_20)">
<path d="M566.699 313.613C564.845 303.122 565.844 300.734 574.623 294.7C564.133 296.555 561.746 295.554 555.71 286.776C557.563 297.267 556.564 299.655 547.785 305.689C558.275 303.834 560.662 304.835 566.699 313.613Z" fill="#7D5182"/>
</g>
<defs>
<clipPath id="clip0_103_20">
<rect width="29" height="29" fill="white" transform="translate(542.291 292.271) rotate(-22.2679)"/>
</clipPath>
</defs>
</svg>
