<svg width="234" height="496" viewBox="0 0 234 496" fill="none" xmlns="http://www.w3.org/2000/svg">
<path d="M107.199 489.738C117.828 466.082 128.913 442.556 138.079 418.331C140.355 412.295 142.516 406.194 144.58 400.06C145.556 397.018 146.482 393.975 147.376 390.9C147.558 389.742 147.979 388.634 148.611 387.646C149.349 386.448 149.799 385.095 149.928 383.693C152.934 371.247 155.957 358.41 154.218 345.508C153.389 339.667 150.968 334.266 149.798 328.539C149.3 325.524 148.996 322.481 148.887 319.428C148.644 316.174 148.465 312.741 148.302 309.406C147.993 302.719 147.766 296.032 147.311 289.345C147.161 286.094 146.71 282.865 145.962 279.697C145.076 276.738 144.343 273.735 143.768 270.7C143.28 267.446 143.654 264.079 143.475 260.825C143.229 257.602 142.795 254.397 142.175 251.226C141.102 245.222 139.883 239.235 138.274 233.329C137.462 230.401 136.649 227.505 135.576 224.657C135.056 223.193 134.52 221.761 133.951 220.33C133.382 218.898 132.829 218.019 131.302 217.792C129.1 217.506 126.873 218.09 125.093 219.419C123.273 221.278 121.749 223.408 120.575 225.731C117.599 230.932 115.926 236.777 115.699 242.765C115.287 249.323 115.445 255.905 116.17 262.435C116.528 265.689 116.978 268.987 117.519 272.327C118.152 275.403 118.366 278.55 118.153 281.682C117.793 284.549 117.211 287.383 116.414 290.159C115.762 292.678 114.784 295.101 113.505 297.366C111.197 301.352 107.8 304.899 102.973 305.127C99.5057 305.252 96.107 304.139 93.3837 301.987C91.7375 300.541 90.4518 298.731 89.6293 296.699C88.4107 294.23 86.8574 291.942 85.0135 289.899C81.6004 285.929 77.5859 282.512 74.2866 278.428C72.515 276.248 71.036 273.792 69.2645 271.628C67.4993 269.503 65.492 267.592 63.2834 265.933C62.103 265.053 60.8465 264.28 59.529 263.623C58.6147 263.093 57.8576 262.329 57.3348 261.41C55.6931 259.137 54.3545 256.66 53.3529 254.04C51.4619 248.776 50.9035 243.125 51.7276 237.592C52.0303 234.531 52.5298 231.493 53.2229 228.497C53.9726 225.725 55.2291 223.115 56.9285 220.801C58.4202 218.568 60.2081 216.549 62.2432 214.798C64.3398 213.008 66.794 211.658 69.0044 210.031C73.3434 206.938 77.1387 203.144 80.2352 198.805C81.9362 196.48 83.0513 193.779 83.4857 190.93C83.8758 188.474 84.2821 184.894 82.0717 183.17C80.2839 181.771 77.4072 182.584 75.4406 183.17C72.8849 184.068 70.5279 185.455 68.5006 187.254C66.5348 188.996 64.658 190.837 62.8771 192.769C60.9422 194.781 58.7048 196.477 56.2459 197.796C53.6371 199.005 51.1862 200.529 48.9483 202.335C47.1471 204.291 45.6164 206.48 44.3975 208.843C43.2028 211.21 41.512 213.291 39.4404 214.944C38.5306 215.5 37.5734 215.974 36.5799 216.36C34.9888 217.115 33.4983 218.066 32.1429 219.191C29.7474 220.737 27.4512 222.433 25.2679 224.267C23.2869 226.163 21.6628 228.401 20.4733 230.872C17.9378 236.388 19.3031 242.538 21.2534 248.004C23.4151 254.057 25.3817 260.125 27.2832 266.259C29.1848 272.392 31.8178 278.689 33.9632 284.953C36.1086 291.216 38.0752 297.415 40.3018 303.598C41.1737 306.539 42.3163 309.393 43.7149 312.123C45.1615 314.572 47.3384 316.507 49.9398 317.654L48.217 317.264C49.956 308.885 44.0562 300.994 39.7492 294.356C35.0521 287.1 28.8598 280.95 24.2765 273.613C19.6931 266.275 16.5889 257.262 14.0696 248.818C12.8182 244.555 11.6805 240.26 10.5753 235.965C9.89064 233.834 9.34769 231.66 8.95 229.457C8.78137 227.218 9.10309 224.969 9.89267 222.868C11.4581 218.758 13.6512 214.916 16.3938 211.479C19.0593 207.818 21.9686 204.337 24.7478 200.774C27.2861 197.25 29.557 193.541 31.5415 189.678C32.5609 187.824 33.6786 186.027 34.8896 184.292C36.2701 182.646 37.551 180.918 38.7253 179.119C39.7078 177.236 40.5236 175.271 41.1632 173.245C41.8458 171.244 42.7885 169.341 43.6499 167.372C45.1159 163.395 46.8089 159.506 48.7208 155.723C50.5574 152.469 52.7028 149.589 56.8472 149.362C58.0447 149.297 59.2423 149.485 60.3624 149.914C61.4824 150.343 62.4998 151.003 63.3484 151.851C64.6076 153.223 65.5511 154.855 66.1127 156.631C66.6743 158.408 66.8403 160.286 66.599 162.133C65.8509 167.011 64.5307 171.784 62.6658 176.353C60.8636 181.078 58.7906 185.696 56.4572 190.182C54.4581 194.038 50.6224 196.511 48.3307 200.22C48.217 200.416 46.5917 199.944 46.4942 199.749C46.1164 198.85 45.9219 197.885 45.9219 196.91C45.9219 195.934 46.1164 194.969 46.4942 194.07C47.128 191.907 47.7944 189.743 48.5908 187.563C50.2602 183.169 52.2539 178.905 54.5556 174.807C56.8597 170.72 59.4962 166.829 62.4382 163.174C63.6017 161.709 64.8847 160.343 66.2739 159.091C66.6899 158.672 67.2194 158.384 67.7971 158.262C68.3747 158.141 68.9752 158.191 69.5245 158.407C72.2225 159.075 75.4731 160.311 76.4807 163.174C77.6339 166.821 77.9451 170.681 77.3909 174.466C77.1886 176.122 76.7279 177.736 76.0257 179.249C75.6368 180.07 75.1571 180.845 74.5954 181.559C73.8214 182.34 73.0941 183.166 72.4175 184.032C71.5717 186.125 71.1411 188.363 71.1498 190.621C70.841 193.338 70.5809 196.039 70.3209 198.756C69.8333 203.637 69.3295 208.632 68.403 213.513C67.3954 218.768 65.3313 223.714 64.2748 228.936C63.3925 234.025 62.8495 239.167 62.6495 244.327C62.5411 249.764 62.829 255.202 63.5109 260.597C63.9766 265.523 63.4967 270.494 62.0969 275.24C60.4716 280.511 58.8464 285.75 57.4324 291.086C56.0654 296.163 54.9802 301.312 54.1818 306.51C53.808 309.097 53.5317 311.684 53.3529 314.287C53.3529 315.588 53.2066 316.89 53.1903 318.175C53.0033 319.688 53.0033 321.218 53.1903 322.731C53.7602 324.15 54.4736 325.508 55.3195 326.782C55.9208 327.937 56.5222 329.108 57.1398 330.263C58.5375 332.98 59.9515 335.697 61.333 338.398C64.1285 343.881 66.859 349.413 69.4595 354.993C74.4958 365.566 77.3798 377.037 77.9435 388.736C77.9435 388.736 76.1232 388.59 76.1069 388.265C75.5713 378.347 73.4476 368.58 69.8171 359.337C67.9805 354.456 65.4938 349.689 63.1696 344.971C60.8455 340.253 58.6513 335.974 56.3271 331.5L52.7028 324.537C52.1175 323.625 51.6992 322.617 51.4675 321.559C51.3538 320.048 51.3538 318.531 51.4675 317.02C51.6588 312.026 52.2019 307.051 53.0928 302.133C54.0192 296.943 55.2707 291.818 56.6847 286.742C58.0337 281.943 59.9353 277.208 60.9755 272.344C62.1599 267.491 62.3424 262.448 61.5118 257.522C60.9027 252.552 60.7232 247.539 60.9755 242.538C61.1524 237.369 61.7393 232.222 62.7308 227.147C63.8522 222.38 65.6563 217.84 66.5827 212.992C67.5091 208.144 68.013 203.23 68.5006 198.252C68.7173 195.963 68.9448 193.669 69.1832 191.37C69.27 189.05 69.6134 186.748 70.2071 184.504C70.8572 182.665 72.5475 181.592 73.5552 179.932C74.4794 178.367 75.1127 176.647 75.4243 174.856C75.9834 171.367 75.8564 167.802 75.0505 164.362C74.9038 163.283 74.4953 162.256 73.8607 161.371C73.226 160.486 72.3846 159.77 71.4098 159.286C70.0446 158.603 69.297 158.505 68.1593 159.546C67.4929 160.132 66.8103 160.734 66.1926 161.369C62.8296 165.077 59.8963 169.154 57.4486 173.522C54.9201 177.806 52.7458 182.289 50.9474 186.928C50.1023 189.076 49.4359 191.256 48.7371 193.436C48.0382 195.616 47.3068 197.943 48.4282 200.09L46.5917 199.618C48.4933 196.446 51.4675 194.233 53.6292 191.256C54.676 189.613 55.5891 187.888 56.3597 186.098C57.3186 184.065 58.2613 182.031 59.1552 179.981C60.8242 176.049 62.2145 172.004 63.3159 167.876C64.3073 164.199 65.315 160.392 64.3723 156.602C63.9833 154.905 63.2227 153.315 62.1457 151.948C61.6666 151.381 61.1209 150.873 60.5204 150.435C60.1039 150.107 59.6163 149.882 59.0968 149.778C58.5773 149.673 58.0406 149.692 57.5299 149.833C53.3691 150.549 51.4513 154.129 49.7122 157.594C47.9732 161.059 46.5917 165.045 45.0151 168.771C44.2675 170.561 43.3899 172.285 42.7722 174.124C42.1329 176.149 41.2831 178.101 40.2368 179.948C39.2291 181.575 37.8476 183.04 36.6937 184.618C35.4826 186.352 34.365 188.15 33.3456 190.003C31.4605 193.679 29.3207 197.218 26.9419 200.595C24.309 204.044 21.5135 207.363 18.913 210.844C16.2525 214.134 14.0088 217.741 12.2331 221.582C11.4483 223.424 10.9337 225.369 10.7053 227.358C10.642 229.619 10.9832 231.872 11.713 234.012C12.7694 238.129 13.8259 242.245 14.9636 246.328C17.1705 254.548 20.164 262.535 23.9026 270.18C28.1447 278.559 34.8408 285.18 40.1555 292.827C42.8432 296.634 45.2809 300.613 47.4531 304.736C49.7826 308.648 50.6575 313.258 49.9235 317.752C49.9235 317.931 48.2982 317.427 48.1845 317.362C45.9209 316.37 43.9628 314.792 42.5122 312.79C40.9409 310.258 39.7267 307.52 38.9041 304.655C36.5799 298.391 34.5645 292.03 32.4029 285.701C30.2413 279.372 27.527 273.125 25.5929 266.698C23.6588 260.272 21.741 254.236 19.4819 248.102C17.4177 242.473 15.8737 236.095 18.4904 230.384C19.68 227.912 21.304 225.675 23.285 223.779C25.4641 221.934 27.7606 220.233 30.16 218.686C31.1593 217.809 32.249 217.04 33.4106 216.392C34.8831 215.818 36.3025 215.116 37.6526 214.294C39.7447 212.521 41.4536 210.34 42.6747 207.883C43.8918 205.503 45.4893 203.338 47.4043 201.473C49.7923 199.729 52.3326 198.205 54.9944 196.918C59.8703 194.168 62.9746 189.564 67.2979 186.131C70.5484 183.511 74.8717 181.429 79.1787 181.966C80.6063 182.091 81.9912 182.518 83.2419 183.219C85.4361 184.569 85.5011 187.156 85.3711 189.499C85.2478 192.491 84.3518 195.4 82.7706 197.943C81.3576 200.203 79.7243 202.317 77.8947 204.255C75.9583 206.256 73.8719 208.105 71.6536 209.787C69.4432 211.414 67.0053 212.862 64.8112 214.57C60.3134 217.983 56.9625 222.688 55.2057 228.058C54.4215 231.123 53.878 234.246 53.5804 237.396C53.1506 240.2 53.0036 243.04 53.1416 245.873C53.644 251.627 55.694 257.136 59.0739 261.817C60.6992 264.16 63.6084 265.169 65.8513 266.958C68.0079 268.705 69.9696 270.68 71.7024 272.848C73.5227 275.109 74.953 277.631 76.8708 279.828C78.7886 282.024 80.5114 283.749 82.3968 285.652C86.2067 289.143 89.3561 293.293 91.6934 297.903C94.0013 303.028 99.5436 306.136 104.94 303.695C109.604 301.58 112.448 296.097 113.96 291.46C116.005 285.731 116.657 279.596 115.861 273.564C114.734 267.02 114.012 260.413 113.7 253.78C113.424 247.272 113.294 240.13 115.016 233.785C115.771 231.061 116.863 228.443 118.267 225.991C119.506 223.572 121.046 221.32 122.85 219.288C125.239 216.832 129.498 216.929 132.602 217.889C133.355 218.05 134.052 218.407 134.623 218.924C135.193 219.441 135.618 220.1 135.853 220.834C137.012 223.784 138.052 226.767 138.973 229.782C140.755 235.662 142.21 241.637 143.329 247.679C144.659 254.105 145.393 260.641 145.523 267.202C145.557 270.418 146.027 273.615 146.921 276.704C147.899 279.888 148.579 283.156 148.952 286.466C149.505 293.25 149.749 300.051 150.058 306.851C150.204 310.301 150.366 313.766 150.594 317.215C150.789 320.372 150.854 323.593 151.293 326.717C152.105 332.59 154.673 338.024 155.762 343.832C156.865 350.286 156.958 356.873 156.039 363.356C155.097 369.85 153.795 376.286 152.138 382.635C151.876 384.229 151.495 385.8 151 387.337C150.81 387.686 150.575 388.009 150.301 388.297C149.929 388.883 149.669 389.535 149.537 390.217C148.676 393.276 147.75 396.318 146.791 399.36C138.762 424.513 127.921 448.706 116.95 472.769C114.317 478.577 111.668 484.385 109.052 490.21C108.954 490.438 107.182 489.787 107.215 489.738H107.199Z" fill="black"/>
<path d="M110.45 303.387C110.12 299.982 109.367 296.631 108.207 293.413C107.215 290.713 105.476 288.288 104.794 285.506C103.096 278.907 100.721 272.5 97.7075 266.39C94.8795 260.435 91.9052 254.545 89.5811 248.379C88.4792 245.537 87.551 242.63 86.8018 239.675C86.4117 238.129 86.2004 236.551 85.8266 235.005C85.5666 233.932 84.7865 233.216 84.6727 232.109C84.2989 228.856 84.4939 225.309 84.4126 221.99C84.3314 218.671 84.2501 215.14 84.4126 211.74C84.5841 208.499 85.052 205.28 85.8104 202.125C86.8568 198.574 88.2618 195.14 90.0036 191.875C93.1079 185.465 96.4073 179.152 99.3978 172.693C102.491 166.456 105.999 160.434 109.897 154.666C113.457 149.021 119.389 144.904 121.729 138.527C124.248 131.612 121.729 124.697 119.454 118.125C117.326 111.996 114.79 106.017 111.864 100.228C110.401 97.3103 108.83 94.4631 107.15 91.6864C105.525 88.9531 103.038 86.2687 102.665 83.0147C102.372 80.3628 102.567 76.4255 99.414 75.4331C94.977 74.0664 92.214 78.4755 90.7513 81.9409C88.6712 87.4909 88.3589 93.5495 89.8573 99.2843C90.8501 102.558 92.0387 105.769 93.4167 108.9C94.4732 111.877 95.042 115.115 95.8059 118.173C97.5812 124.521 99.9482 130.687 102.876 136.591C105.2 141.602 107.963 146.466 112.351 149.948C113.117 150.67 114.025 151.225 115.017 151.575C115.358 151.575 115.748 151.575 116.106 151.575C117.731 152.112 119.08 153.365 120.673 153.967C123.714 155.046 126.948 155.473 130.165 155.219C133.789 155.008 136.243 152.47 138.795 150.208C141.319 147.805 143.438 145.009 145.068 141.927C148.303 136.078 150.57 129.743 151.781 123.168C153.007 116.005 153.221 108.704 152.415 101.481C151.732 94.3059 147.068 88.465 143.817 82.3477C140.843 76.7021 138.275 70.8451 134.927 65.411C134.13 64.1257 133.301 62.8729 132.391 61.6365C131.29 60.458 130.365 59.1264 129.644 57.683C128.47 54.8483 126.821 52.2349 124.769 49.9549C120.921 45.0659 116.757 40.4353 112.303 36.0932C107.401 31.8922 103.251 26.8853 100.032 21.2878C98.6236 18.7375 97.4381 16.0702 96.4885 13.3157C96.076 12.1252 95.9775 10.8482 96.2024 9.60833C96.4273 8.36849 96.9681 7.20775 97.7725 6.23843C99.9829 3.16347 103.786 -1.11544 108.061 0.267481C110.416 1.28682 112.462 2.90838 113.993 4.9694C115.837 7.38779 118.028 9.5204 120.494 11.2983C126.049 14.7539 131.379 18.5577 136.454 22.687C139.12 24.9485 141.867 27.1123 144.581 29.1949C145.938 30.0865 147.241 31.059 148.482 32.1071C149.717 33.246 150.757 34.6777 151.895 35.9142C154.203 38.3872 156.77 40.6812 158.965 43.1542C160.914 45.5629 162.262 48.4016 162.898 51.4354C164.669 58.3337 164.783 65.5249 166.148 72.4883C167.797 79.7732 169.853 86.9595 172.308 94.013C173.381 97.3808 174.551 100.716 175.868 104.003C177.022 106.882 178.517 109.648 179.476 112.625C181.297 117.732 181.052 123.349 178.793 128.277C177.42 130.765 175.756 133.081 173.836 135.175C171.447 137.99 169.171 140.918 166.994 143.896C162.865 149.557 159.046 155.415 155.096 161.206C154.056 162.736 152.886 165.811 150.741 165.892C149.785 165.856 148.86 165.539 148.083 164.981C147.305 164.422 146.709 163.647 146.369 162.752C145.385 160.649 144.832 158.37 144.743 156.049C144.467 152.486 144.061 148.939 143.557 145.409C141.558 131.059 137.852 116.872 137.169 102.376C136.844 95.3308 133.919 88.9206 131.302 82.4616C130.719 81.1511 130.241 79.7964 129.872 78.4104C129.498 76.7835 129.433 75.1565 128.978 73.5295C128.122 70.2564 126.673 67.1683 124.704 64.4186C120.868 59.6353 112.465 61.6527 107.362 62.4662C100.292 63.5726 93.1567 64.1745 86.0379 64.9392C82.5273 65.3134 79.0329 65.8991 75.5386 66.3547C71.8782 66.772 68.2785 67.6127 64.8116 68.8602C58.3105 71.3332 51.403 72.9764 44.7393 75.1565C40.5298 76.5394 41.3587 80.6882 43.8617 83.2913C44.826 84.3077 45.9188 85.1938 47.1123 85.927C48.5236 86.7528 50.0091 87.4446 51.5493 87.9932C52.8459 88.6715 54.2378 89.1488 55.6775 89.4087C57.3028 89.5877 58.9281 89.6365 60.5534 89.669C64.064 89.7666 67.6396 88.1885 70.9227 87.0659C76.8805 84.7697 83.0402 83.0375 89.321 81.8921C95.0583 81.0786 101.722 81.1925 106.939 84.0397C109.231 85.5227 111.299 87.3251 113.083 89.3924C115.159 91.4138 117.002 93.6623 118.576 96.0955C119.486 97.5923 121.827 101.155 120.575 102.864C119.324 104.572 116.398 104.182 114.545 104.149C111.191 104.046 107.854 103.615 104.582 102.864C101.04 101.857 97.4005 101.235 93.7255 101.009C86.5262 101.034 79.5143 103.309 73.6695 107.517C68.4361 111.177 64.5679 116.237 60.7647 121.297C58.8395 123.604 57.5657 126.385 57.0753 129.351C56.8736 130.062 56.96 130.825 57.3159 131.474C57.6718 132.122 58.2685 132.605 58.9769 132.816C60.4392 133.518 62.0228 133.933 63.6414 134.036C66.8355 134.233 70.0311 133.676 72.9706 132.409C76.0424 131.059 78.3665 127.984 80.5282 125.511C82.1863 123.461 84.0547 121.59 86.1029 119.93C88.3238 118.326 90.8272 117.156 93.4817 116.481C96.5426 115.694 99.7248 115.496 102.86 115.896C105.476 116.221 106.484 117.523 107.004 120.126C108.188 126.585 109.751 132.968 111.685 139.243C115.569 150.973 123.16 162.557 133.643 169.374C139.055 172.872 145.784 175.036 152.122 172.856C157.307 171.066 160.817 166.494 163.499 161.971C166.35 157.224 168.885 152.295 171.089 147.215C172.129 144.674 173.38 142.225 174.827 139.893C176.014 138.104 177.607 135.679 179.703 134.785C180.922 134.248 181.914 134.459 182.092 135.907C182.401 138.283 180.922 140.495 179.963 142.513C176.859 149.021 174.145 155.854 171.236 162.524C170.52 164.151 169.805 165.778 169.058 167.405C167.972 169.235 167.116 171.191 166.506 173.23C165.744 176.163 164.693 179.013 163.369 181.739C160.702 188.128 158.761 194.797 157.583 201.62C155.503 215.043 158.786 228.53 163.012 241.22C167.255 253.364 172.428 265.162 178.484 276.509C184.417 288.012 190.739 299.287 196.525 310.887C203.026 323.903 209.17 337.211 215.557 350.325C221.945 363.438 228.186 376.242 233.972 389.437C234.232 390.006 232.623 390.982 232.346 390.543C225.845 375.9 218.922 361.404 211.884 346.989C205.09 333.062 198.67 318.94 191.535 305.176C178.826 280.658 164.247 256.612 157.827 229.458C155.952 222.46 155.136 215.221 155.405 207.982C155.974 200.835 157.522 193.8 160.005 187.075C161.24 183.577 162.638 180.144 164.101 176.744C164.686 175.41 164.702 174.027 165.222 172.709C166.002 170.708 167.124 168.788 168.001 166.836C171.252 159.645 174.177 152.291 177.477 145.1C178.582 142.692 180.955 139.519 180.516 136.688C180.175 134.508 178.127 137.046 177.477 137.892C176.345 139.341 175.37 140.907 174.567 142.562C171.869 147.849 169.692 153.299 166.75 158.506C161.679 167.731 154.089 176.402 142.484 174.645C135.886 173.604 130.327 169.537 125.597 165.046C120.816 160.42 116.834 155.032 113.814 149.102C110.908 143.093 108.752 136.749 107.394 130.213C106.614 126.813 106.159 123.282 105.216 119.93C104.127 116.091 99.0402 116.677 95.8709 117.018C91.7974 117.396 87.9631 119.113 84.9652 121.899C82.6898 124.096 80.772 126.634 78.5779 128.879C76.7898 130.926 74.5691 132.549 72.0767 133.63C69.3353 134.677 66.4295 135.228 63.4952 135.256C62.177 135.236 60.8666 135.05 59.5945 134.703C58.6193 134.41 56.0188 133.613 55.515 132.605C55.2859 131.464 55.3418 130.285 55.6775 129.172C55.9459 127.802 56.4055 126.476 57.0428 125.234C58.4262 122.788 60.0603 120.492 61.9186 118.385C63.7253 115.941 65.6736 113.605 67.7534 111.389C72.1397 106.92 77.5114 103.544 83.4375 101.53C86.8114 100.452 90.3163 99.8385 93.8556 99.7074C97.3571 99.7205 100.84 100.213 104.209 101.172C108.213 102.208 112.328 102.754 116.463 102.799C116.87 102.799 118.625 103.01 119.015 102.717C119.763 102.115 118.804 100.472 118.511 99.7887C117.822 98.228 116.96 96.7492 115.943 95.3796C114.065 92.9301 111.988 90.6392 109.735 88.5301C107.405 86.0612 104.415 84.3159 101.121 83.5028C93.9531 81.7457 86.493 83.031 79.618 85.1298C76.0261 86.2036 72.4993 87.5051 68.9399 88.6928C65.9337 89.9781 62.7278 90.7322 59.4644 90.9218C56.4794 91.0092 53.5068 90.5004 50.7204 89.425C49.1921 88.8863 47.7085 88.2281 46.2834 87.4564C45.1268 86.7823 44.0382 85.9977 43.0328 85.1135C41.1799 83.4866 39.5384 80.981 40.1885 78.3454C40.5125 77.3654 41.0646 76.4766 41.7994 75.7524C42.5341 75.0282 43.4304 74.4894 44.4143 74.1803C47.6649 72.9438 51.1917 72.1629 54.5398 71.1705C58.473 69.999 62.3412 68.7137 66.1931 67.282C69.4767 66.1832 72.8732 65.4573 76.3187 65.1182C79.9106 64.6463 83.47 64.0606 87.0781 63.6702C95.042 62.8241 102.957 61.8805 110.872 60.7742C115.748 60.0908 123.29 58.952 126.54 63.8654C128.305 66.5767 129.653 69.5384 130.538 72.651C130.961 74.278 131.042 75.9049 131.416 77.5319C131.981 79.533 132.704 81.486 133.578 83.3727C134.91 86.6266 136.276 89.8805 137.283 93.3785C138.199 97.0236 138.743 100.752 138.909 104.507C139.656 112.3 140.891 119.947 142.273 127.659C143.654 135.37 144.971 142.74 145.8 150.355C146.222 154.162 145.897 165.144 152.203 164.591L150.952 165.388C158.461 154.634 165.352 143.391 174.047 133.499C176.076 131.359 177.574 128.772 178.421 125.946C179.268 123.12 179.44 120.134 178.923 117.23C178.333 114.346 177.372 111.552 176.063 108.916C174.665 105.792 173.43 102.587 172.308 99.3657C170.179 93.2158 168.44 86.9682 166.603 80.7207C164.824 74.0115 163.569 67.1739 162.849 60.2698C162.539 56.6984 161.768 53.1822 160.557 49.8085C160.063 48.5258 159.488 47.2759 158.835 46.0664C157.879 44.6698 156.754 43.3966 155.486 42.2756C153.309 40.0955 151.163 37.8828 149.099 35.6051C148.056 34.3736 146.897 33.2458 145.637 32.2373L141.802 29.3575C136.422 25.2901 131.4 20.8485 125.841 17.0414C123.225 15.2355 120.462 13.6248 117.877 11.8026C115.971 10.2808 114.262 8.52636 112.79 6.58009C111.165 4.61146 109.052 2.18729 106.435 1.50396C103.103 0.641673 100.552 4.02575 98.894 6.38485C96.6185 9.63877 98.0813 12.3721 99.4465 15.5772C100.569 18.347 101.928 21.0143 103.51 23.5493C106.76 28.6905 111.327 32.6115 115.716 36.7602C119.999 41.0206 123.959 45.5941 127.564 50.443C128.377 51.4807 129.126 52.5674 129.807 53.6969C130.555 54.9985 130.928 56.5929 131.725 57.8294C132.521 59.0659 133.529 60.042 134.358 61.1809C135.187 62.3198 136.178 63.8654 137.007 65.2646C140.128 70.4546 142.582 76.0025 145.393 81.3552C148.205 86.708 152.333 92.0769 153.699 98.3407C154.238 101.604 154.477 104.91 154.414 108.216C154.517 111.556 154.392 114.899 154.04 118.222C153.316 124.387 151.706 130.414 149.262 136.119C147.181 141 144.386 146.482 140.323 150.127C138.558 151.833 136.655 153.389 134.634 154.78C132.693 156.022 130.436 156.677 128.133 156.667C125.379 156.777 122.628 156.397 120.006 155.545C118.549 155.01 117.145 154.34 115.813 153.544C114.692 152.909 113.57 152.974 112.563 152.258C108.238 149.191 104.797 145.039 102.583 140.219C99.938 135.264 97.6776 130.113 95.8222 124.811C94.8632 121.801 94.1969 118.743 93.368 115.684C92.4983 112.288 91.4126 108.952 90.1174 105.695C87.9864 100.642 87.0786 95.1561 87.4682 89.6853C87.8181 84.7211 89.8211 80.0179 93.1567 76.3279C96.0822 73.318 101.803 72.5208 103.591 77.0926C103.967 78.1386 104.18 79.2359 104.225 80.3465C104.236 82.2609 104.801 84.1312 105.85 85.7318C107.605 88.4108 109.274 91.1604 110.856 93.9805C113.789 99.3036 116.368 104.815 118.576 110.478C120.77 116.01 123.338 122.013 124.183 127.935C124.609 130.807 124.434 133.736 123.671 136.536C122.907 139.337 121.571 141.948 119.746 144.205C117.894 146.58 115.764 148.711 113.83 151.022C111.699 153.791 109.745 156.693 107.979 159.71C106.175 162.492 104.355 165.29 102.811 168.219C101.186 171.473 99.7066 174.857 98.0976 178.143C95.1233 184.212 92.0027 190.215 89.2072 196.365C86.4117 202.515 85.9566 209.755 85.9566 216.556C85.9566 219.81 86.1192 223.064 86.2167 226.415C86.2167 227.912 86.2167 229.441 86.3142 230.938C86.3142 232.093 87.0618 232.663 87.3869 233.704C88.2646 236.519 88.5571 239.545 89.4348 242.392C90.4295 245.543 91.5905 248.638 92.9129 251.666C95.3996 257.441 98.2764 263.054 100.893 268.732C102.21 271.612 103.331 274.557 104.355 277.551C104.777 278.787 105.184 280.023 105.558 281.26C105.948 283.145 106.492 284.995 107.183 286.792C108.457 289.154 109.544 291.613 110.433 294.146C111.268 296.863 111.818 299.66 112.075 302.492C112.075 303.045 110.45 303.94 110.45 303.387Z" fill="black"/>
<path d="M150.724 388.606C152.818 391.712 154.343 395.166 155.226 398.807C156.38 402.777 157.388 406.763 158.672 410.684C159.956 414.605 161.451 418.672 162.654 422.74C163.857 426.807 164.913 430.728 166.116 434.682C167.604 439.046 168.591 443.565 169.058 448.153C169.058 448.478 167.189 448.69 167.172 448.429C166.792 444.363 165.958 440.352 164.686 436.471C163.499 432.485 162.361 428.499 161.207 424.513C160.054 420.527 158.607 416.378 157.274 412.425C155.942 408.471 154.853 404.534 153.764 400.548C152.862 396.394 151.21 392.441 148.888 388.883C148.79 388.752 149.733 388.557 149.798 388.541C149.863 388.525 150.594 388.378 150.757 388.541L150.724 388.606Z" fill="black"/>
<path d="M76.6604 387.891C77.2455 391.682 75.4902 395.31 73.6373 398.482C71.5407 402.062 69.2653 405.56 66.9736 409.009C62.0978 416.346 57.0269 423.505 51.8422 430.599C46.6575 437.692 41.4729 444.867 36.1744 451.912C30.876 458.956 25.3825 465.806 20.0678 472.818C17.3698 476.349 14.7694 479.928 12.2177 483.572C9.85442 486.893 7.25825 490.041 4.4488 492.993C3.74992 493.741 3.0348 494.473 2.31967 495.205C1.60455 495.937 0.288063 494.994 1.14946 494.115C3.99068 491.269 6.64542 488.242 9.09712 485.053C11.6976 481.636 14.103 478.041 16.671 474.592C21.8719 467.644 27.3004 460.876 32.5663 453.978C37.8322 447.08 42.8706 440.067 47.9903 433.088C53.1099 426.108 58.2621 419.015 63.138 411.791C65.5434 408.222 67.8838 404.621 70.1592 400.988C72.0608 397.913 74.3037 394.708 74.8563 391.063C74.9864 390.179 74.9864 389.28 74.8563 388.395C74.71 387.403 76.4816 386.768 76.6604 387.891Z" fill="black"/>
</svg>
