<svg width="101" height="101" viewBox="0 0 101 101" fill="none" xmlns="http://www.w3.org/2000/svg">
<circle cx="50.5" cy="50.5" r="49.5" stroke="white" stroke-width="2"/>
<g clip-path="url(#clip0_23_811)">
<path d="M49.9672 27.7781C51.2341 27.8493 52.1188 29.6163 52.643 30.5682C53.4656 32.1474 54.1507 33.7947 54.6908 35.4918C55.43 37.69 56.048 39.9273 56.5421 42.1934C56.5943 42.3814 56.7063 42.5471 56.861 42.6656C57.0157 42.784 57.2047 42.8488 57.3995 42.8499C59.6988 42.6273 62.0086 42.5323 64.3184 42.5655C66.1 42.5459 67.8798 42.6832 69.6373 42.9758C70.6421 43.1672 72.6572 43.4627 73.1214 44.5732C73.5856 45.6838 72.2094 47.1444 71.5323 47.8556C70.2848 49.166 68.9192 50.3582 67.453 51.4171C65.5545 52.8421 63.5763 54.1572 61.5279 55.356C61.3302 55.4796 61.1873 55.6743 61.1284 55.9001C61.0695 56.1259 61.0991 56.3658 61.2112 56.5705C62.131 58.6766 62.9296 60.8337 63.603 63.0314C64.1829 64.7528 64.6051 66.5235 64.8645 68.3216C64.9846 69.3172 65.285 71.3359 64.3184 72.0307C63.3518 72.7255 61.588 71.8283 60.6869 71.407C59.0883 70.6338 57.5623 69.7183 56.1271 68.6717C54.1975 67.3224 52.3486 65.8611 50.5897 64.2951C50.4211 64.1342 50.1973 64.0445 49.9644 64.0445C49.7316 64.0445 49.5077 64.1342 49.3392 64.2951C47.6246 65.8185 45.825 67.2432 43.9493 68.5623C42.5203 69.6148 41.0039 70.5427 39.4167 71.3359C38.4993 71.779 36.6426 72.7309 35.6378 72.0307C34.633 71.3304 34.9388 69.4485 35.048 68.4802C35.2861 66.6957 35.6901 64.9375 36.2548 63.2283C36.9383 60.9715 37.7553 58.7574 38.7013 56.5978C38.8148 56.3935 38.8451 56.1532 38.7861 55.9269C38.7271 55.7007 38.5833 55.506 38.3846 55.3833C36.3362 54.1846 34.358 52.8695 32.4595 51.4444C30.9933 50.3855 29.6277 49.1933 28.3802 47.883C27.7304 47.1444 26.3215 45.6947 26.7911 44.6006C27.2607 43.5064 29.2704 43.1672 30.2752 42.9593C32.0327 42.6668 33.8125 42.5295 35.5941 42.549C37.9097 42.5225 40.2251 42.6248 42.5294 42.8554C42.7246 42.8561 42.9145 42.792 43.0696 42.6733C43.2247 42.5545 43.3362 42.3878 43.3868 42.1989C43.8808 39.9328 44.4989 37.6955 45.238 35.4973C45.7781 33.8002 46.4633 32.1529 47.2859 30.5737C47.832 29.6218 48.6948 27.8383 49.9672 27.7836C51.103 27.7234 51.1085 25.9454 49.9672 26.0056C46.6906 26.1807 45.0797 30.8198 44.124 33.3637C43.1055 36.0962 42.286 38.8991 41.6721 41.7503L42.5294 41.0993C37.844 40.6234 32.1537 40.1146 27.6703 41.8488C21.0299 44.42 28.5113 50.6895 31.4165 52.8777C33.3601 54.343 35.3878 55.6929 37.489 56.9206C37.3798 56.5158 37.276 56.1109 37.1668 55.7061C35.2446 60.0827 32.9292 65.4002 33.2077 70.2582C33.6172 77.4576 42.0106 72.1292 44.9923 70.0011C46.939 68.6178 48.8077 67.1275 50.5897 65.537H49.3392C50.8081 66.8554 52.359 68.0918 53.9372 69.268C56.3237 71.0514 59.005 73.0209 61.932 73.7813C68.8837 75.5867 66.3663 65.8816 65.2795 62.4187C64.564 60.1366 63.7235 57.8956 62.7621 55.7061C62.6528 56.1109 62.5491 56.5158 62.4399 56.9206C64.1819 55.9085 65.8693 54.7925 67.5021 53.6382C69.8995 51.893 72.5098 49.9783 74.148 47.4508C77.9707 41.4658 68.081 40.8367 64.5095 40.7711C62.1393 40.7396 59.7691 40.8419 57.4104 41.0774L58.2677 41.7284C57.6538 38.8772 56.8343 36.0743 55.8158 33.3418C54.8492 30.8144 53.2601 26.1752 49.9672 26.0002C48.8204 25.94 48.8258 27.718 49.9672 27.7781Z" fill="white"/>
</g>
<defs>
<clipPath id="clip0_23_811">
<rect width="50" height="48" fill="white" transform="translate(25 26)"/>
</clipPath>
</defs>
</svg>
