<svg width="38" height="38" viewBox="0 0 38 38" fill="none" xmlns="http://www.w3.org/2000/svg">
<path d="M19 0C8.50725 0 0 8.50725 0 19C0 29.4928 8.50725 38 19 38C29.4928 38 38 29.4928 38 19C38 8.50725 29.4928 0 19 0ZM28.3322 13.0166L25.213 27.7099C24.9834 28.7517 24.3628 29.0051 23.4967 28.5143L18.7467 25.0151L16.4572 27.2223C16.345 27.3675 16.201 27.4851 16.0364 27.566C15.8717 27.647 15.6907 27.6892 15.5072 27.6893H15.4992L15.8365 22.8538L24.6398 14.9023C25.0198 14.5651 24.5543 14.3735 24.0493 14.7108L13.1733 21.5602L8.48667 20.0972C7.47333 19.7758 7.44483 19.0839 8.70042 18.5868L27.0133 11.5283C27.8651 11.2179 28.6061 11.7309 28.3306 13.0182L28.3322 13.0166Z" fill="white"/>
</svg>
