<svg width="101" height="101" viewBox="0 0 101 101" fill="none" xmlns="http://www.w3.org/2000/svg">
<circle cx="50.5" cy="50.5" r="49.5" stroke="white" stroke-width="2"/>
<g clip-path="url(#clip0_23_810)">
<path d="M41.6248 60.7091C37.4823 62.813 41.9562 67.0262 44.3692 68.2276C47.502 69.7922 51.5668 70.0699 54.6737 68.2917C54.8655 68.1738 55.0046 67.9827 55.0608 67.7599C55.117 67.537 55.0858 67.3003 54.974 67.1009C52.0898 63.1868 46.8029 58.8348 41.8112 60.6023C40.7756 60.9654 41.2313 62.6421 42.2565 62.279C46.4871 60.7785 51.1992 64.8315 53.5345 67.9606C53.6329 67.5655 53.7313 67.1703 53.8348 66.7752C51.8878 67.8912 49.4023 67.9767 47.2741 67.448C46.1062 67.1668 44.9963 66.6731 43.9964 65.9902C43.0799 65.3601 40.4442 63.2349 42.4844 62.1883C43.4268 61.6916 42.5776 60.1751 41.6248 60.7091Z" fill="white"/>
<path d="M49.7492 48.0162C49.3822 57.0609 51.747 66 56.5171 73.5995C57.1074 74.534 58.5883 73.6636 57.9721 72.7238C53.3571 65.388 51.0713 56.7526 51.4321 48.0162C51.4787 46.9002 49.7958 46.9002 49.7492 48.0162Z" fill="white"/>
<path d="M57.0193 47.6638C61.9126 45.3303 63.5851 39.7929 62.824 34.5438C62.5547 32.6748 62.0058 28.2427 59.8569 27.5219C58.9197 27.2282 58.1947 27.8155 57.5733 28.4563C56.2011 29.8714 54.9843 31.5214 53.7156 33.0326L55.1241 33.4171C54.6591 31.77 54.0255 30.1787 53.2341 28.6699C52.7887 27.8209 52.1311 25.9519 50.9143 26C49.8528 26.0427 48.9518 27.6874 48.4184 28.467C47.4027 30.003 46.5814 31.6665 45.9743 33.4171L47.3776 33.0326C45.7569 31.1102 41.8422 24.4888 39.7036 29.2947C38.1502 32.8083 37.3994 37.5181 38.5851 41.272C40.9153 48.657 50.5777 50.3498 56.8173 47.7492C57.8115 47.3381 57.3766 45.6614 56.372 46.0779C51.5046 48.107 43.7063 47.5143 40.8376 42.2866C39.481 39.8249 39.5535 36.7865 40.0713 34.0899C40.2276 33.2709 40.4281 32.4615 40.6719 31.6656C41.0033 30.5976 41.2829 29.1025 42.5775 29.9408C43.2144 30.352 43.7892 31.3826 44.2863 31.9753C44.9353 32.7336 45.5791 33.4954 46.2177 34.2608C46.3229 34.365 46.4524 34.4396 46.5937 34.4773C46.7349 34.5149 46.8832 34.5144 47.0243 34.4758C47.1653 34.4371 47.2943 34.3617 47.3988 34.2567C47.5033 34.1517 47.5798 34.0207 47.621 33.8763C47.9524 32.9739 49.8942 28.0024 50.966 28.2C51.4839 28.3068 52.1001 30.1117 52.3124 30.5602C52.8099 31.6274 53.217 32.7368 53.5292 33.8763C53.5691 34.0217 53.6449 34.1538 53.7493 34.2598C53.8538 34.3657 53.9831 34.4419 54.1247 34.4806C54.2663 34.5194 54.4152 34.5196 54.5568 34.481C54.6985 34.4425 54.8279 34.3665 54.9325 34.2608L57.0762 31.719C57.8012 30.8593 58.9041 28.7821 59.9397 30.117C60.4576 30.8272 60.675 32.253 60.877 33.1447C61.1735 34.3365 61.3471 35.5572 61.3948 36.7865C61.4932 40.77 59.774 44.4439 56.2167 46.1419C55.1914 46.6332 56.0406 48.1284 57.0193 47.6638Z" fill="white"/>
</g>
<defs>
<clipPath id="clip0_23_810">
<rect width="25" height="48" fill="white" transform="translate(38 26)"/>
</clipPath>
</defs>
</svg>
