<svg width="101" height="101" viewBox="0 0 101 101" fill="none" xmlns="http://www.w3.org/2000/svg">
<circle cx="50.5" cy="50.5" r="49.5" stroke="white" stroke-width="2"/>
<g clip-path="url(#clip0_23_813)">
<path d="M29.9394 39.114C43.6405 39.114 57.3417 39.0943 71.0428 39.0549C71.2091 39.0517 71.3718 39.0052 71.5149 38.9199C71.658 38.8346 71.7768 38.7134 71.8596 38.5682C71.9424 38.423 71.9864 38.2587 71.9873 38.0913C71.9882 37.9238 71.946 37.759 71.8649 37.6129C69.8348 34.2894 67.4246 31.217 64.6835 28.4585C62.599 26.4078 59.4634 26.3841 56.6977 26.195C52.658 25.935 48.606 25.935 44.5663 26.195C41.5834 26.3723 38.8471 26.4196 36.516 28.5176C34.8007 30.1641 33.24 31.9664 31.8537 33.9015C30.9729 35.048 29.7045 36.3245 29.1115 37.6661C28.6182 38.789 30.2859 39.7641 30.7615 38.6353C31.2507 37.7688 31.8294 36.9567 32.4878 36.2123C33.7151 34.5575 34.9893 32.9264 36.375 31.4016C37.4202 30.2196 38.577 28.9845 40.0743 28.5944C41.2466 28.354 42.437 28.2136 43.6327 28.1748C47.2712 27.9138 50.9214 27.8566 54.5662 28.0034C56.9443 28.098 60.7552 27.8321 62.7869 29.3036C64.2549 30.3674 65.4469 32.1404 66.5684 33.541C67.8862 35.1453 69.1059 36.8288 70.2207 38.5821C70.4908 38.0975 70.7668 37.6188 71.0428 37.1342C57.3417 37.1578 43.6405 37.1775 29.9394 37.1933C29.6993 37.2123 29.4751 37.3217 29.3116 37.4997C29.148 37.6777 29.0572 37.9112 29.0572 38.1537C29.0572 38.3961 29.148 38.6296 29.3116 38.8076C29.4751 38.9856 29.6993 39.095 29.9394 39.114Z" fill="white"/>
<path d="M29.1116 38.6353C32.9753 46.2413 36.9153 53.8178 41.331 61.1342C43.6406 64.9796 46.0677 68.7501 48.6122 72.4457C49.3286 73.5272 49.951 74.461 51.3133 73.7341C52.2704 73.2022 52.9926 72.0675 53.6151 71.2105C54.7894 69.6208 55.7994 67.9365 56.8094 66.2463C59.4987 61.7429 61.9825 57.1155 64.4429 52.4881C66.9032 47.8606 69.3107 43.1741 71.865 38.5821C71.9476 38.4358 71.9909 38.2704 71.9907 38.1021C71.9905 37.9339 71.9467 37.7685 71.8638 37.6224C71.7808 37.4763 71.6615 37.3545 71.5176 37.2689C71.3737 37.1833 71.2101 37.1369 71.0429 37.1342L35.1244 37.1815H29.9395C29.6994 37.2005 29.4752 37.3099 29.3117 37.4879C29.1481 37.6659 29.0573 37.8994 29.0573 38.1418C29.0573 38.3843 29.1481 38.6178 29.3117 38.7958C29.4752 38.9738 29.6994 39.0832 29.9395 39.1022L65.858 39.049H71.0429L70.2208 37.607C65.8286 45.5026 61.8064 53.5991 57.3613 61.4593C55.5352 64.6801 53.7442 68.096 51.4013 70.9682C51.1547 71.2696 50.5969 71.6538 50.4442 71.9907C50.4442 71.9907 50.2328 72.227 50.3092 72.1029C50.2211 72.2448 50.3796 72.0498 50.5323 72.1029C51.1606 72.428 50.1095 71.2756 50.0156 71.1396C47.6668 67.7355 45.4316 64.2684 43.3099 60.7383C38.7767 53.2623 34.731 45.5026 30.7616 37.6661C30.2038 36.5669 28.5537 37.5361 29.1116 38.6353Z" fill="white"/>
<path d="M43.7971 38.4994C45.6644 49.9645 47.2439 61.607 49.7512 72.948C50.0213 74.13 51.8592 73.6454 51.595 72.4398C49.0818 61.0928 47.4847 49.4563 45.635 37.9911C45.4354 36.7737 43.5975 37.2878 43.7971 38.4994Z" fill="white"/>
<path d="M56.6684 38.263C55.3883 44.492 54.1905 50.7348 53.0748 56.9914C52.515 60.1433 51.9787 63.2775 51.4659 66.394C51.1664 68.2438 51.0549 70.3182 50.4442 72.103C50.0449 73.2849 51.8887 73.7814 52.288 72.6112C52.8752 70.8383 53.0043 68.7639 53.3097 66.9023C53.8225 63.7503 54.3568 60.6181 54.9127 57.5056C56.0284 51.2411 57.2262 44.9963 58.5063 38.7713C58.7529 37.5893 56.915 37.0515 56.6684 38.263Z" fill="white"/>
<path d="M38.3011 29.209C39.9334 32.5954 42.1706 35.6626 43.9322 38.9781C44.5194 40.0655 46.1577 39.0963 45.5764 38.0088C43.8148 34.6934 41.5776 31.6262 39.9452 28.2398C39.4108 27.1288 37.7608 28.1039 38.3011 29.209Z" fill="white"/>
<path d="M45.9581 38.5231C48.0074 34.7998 50.1389 31.1062 52.335 27.4775C52.975 26.4196 51.3133 25.4563 50.685 26.5083C48.4713 30.1369 46.3574 33.8306 44.3081 37.5538C43.7209 38.6353 45.365 39.6105 45.9581 38.5231Z" fill="white"/>
<path d="M51.0608 27.8439C53.0749 31.3543 55.1946 34.8648 56.7624 38.5821C57.2381 39.7168 58.8822 38.7358 58.4124 37.6129C56.8388 33.866 54.719 30.3851 52.7108 26.8746C52.5751 26.6712 52.3676 26.5274 52.1303 26.4726C51.893 26.4178 51.6439 26.456 51.4337 26.5795C51.2234 26.703 51.0678 26.9025 50.9985 27.1374C50.9293 27.3723 50.9515 27.6249 51.0608 27.8439Z" fill="white"/>
<path d="M58.4124 38.5822C60.0741 35.3554 62.0001 32.2645 63.5561 28.9845C64.0846 27.8735 62.4405 26.8983 61.912 28.0153C60.356 31.3189 58.43 34.3861 56.7623 37.6129C56.1752 38.7063 57.8428 39.6755 58.4124 38.5822Z" fill="white"/>
</g>
<defs>
<clipPath id="clip0_23_813">
<rect width="43" height="48" fill="white" transform="translate(29 26)"/>
</clipPath>
</defs>
</svg>
