<svg width="101" height="101" viewBox="0 0 101 101" fill="none" xmlns="http://www.w3.org/2000/svg">
<circle cx="50.5" cy="50.5" r="49.5" stroke="white" stroke-width="2"/>
<g clip-path="url(#clip0_23_812)">
<path d="M53.0328 51.4438C52.9623 53.219 51.4461 57.7988 49.1307 55.1184C47.591 53.3136 47.8613 50.5858 48.3315 48.4852C48.9652 45.816 49.9745 43.2517 51.3286 40.8699H49.6772C51.4402 44.0355 52.9447 47.7515 53.0328 51.4261C53.0328 52.6568 54.9721 52.6628 54.9428 51.4261C54.8428 47.4083 53.2796 43.3669 51.3286 39.8994C51.2429 39.7561 51.1218 39.6375 50.9771 39.5552C50.8324 39.4728 50.6691 39.4296 50.5029 39.4296C50.3367 39.4296 50.1734 39.4728 50.0287 39.5552C49.884 39.6375 49.7629 39.7561 49.6772 39.8994C47.4617 43.8817 44.9759 49.5267 46.4685 54.1006C47.1032 56.071 48.8192 58.2426 51.1699 57.7633C53.9202 57.1716 54.8781 53.8343 54.9721 51.4142C54.9898 50.1894 53.0798 50.1894 53.0328 51.4438Z" fill="white"/>
<path d="M71.8383 29.5976C70.184 27.9205 68.0797 26.7657 65.7832 26.2749C63.4867 25.784 61.0979 25.9785 58.9096 26.8343C53.3502 29.0237 51.2699 34.8343 49.5539 40.1302H51.3933C49.9535 35.5503 48.2257 30.3965 43.9299 27.7752C42.2625 26.7621 40.3774 26.1681 38.4339 26.0435C36.4904 25.9188 34.5456 26.2672 32.7641 27.0592C23.8726 31.0296 25.3477 42.7515 28.2097 50.2604C30.1137 55.1716 33.0521 59.787 36.2372 63.9349C39.1227 67.6864 42.7016 71.6923 47.2091 73.4024C51.1171 74.8817 54.8488 73.4024 57.9987 70.9586C62.2828 67.6686 65.6384 63.1243 68.4827 58.5325C71.4211 53.7988 73.8129 48.7929 74.6592 43.2012C75.3644 38.5444 75.1939 33.2781 71.8383 29.5976C71.0097 28.6805 69.6581 30.0414 70.4867 30.9527C75.7052 36.7219 72.5024 47.2544 69.3114 53.2544C66.955 57.8417 64.0262 62.107 60.5962 65.9468C58.1162 68.6331 54.7547 71.8639 50.8996 72.1302C46.9387 72.3787 43.3539 69.0473 40.8211 66.3905C37.4915 62.771 34.6286 58.7431 32.2998 54.4024C30.2788 50.8697 28.8996 47.0025 28.2273 42.9823C27.6396 39.3373 27.5632 34.9467 29.7964 31.8047C32.2528 28.3314 36.9953 27.1243 40.921 28.4497C46.1571 30.2249 48.0318 35.8225 49.5832 40.6391C49.6412 40.8395 49.7622 41.0156 49.928 41.1409C50.0939 41.2662 50.2956 41.3339 50.503 41.3339C50.7103 41.3339 50.912 41.2662 51.0779 41.1409C51.2437 41.0156 51.3647 40.8395 51.4227 40.6391C52.886 36.0592 54.6078 30.7692 59.3503 28.7337C61.2186 27.9376 63.2809 27.7235 65.2712 28.119C67.2615 28.5145 69.0883 29.5015 70.5161 30.9527C70.7006 31.0914 70.9288 31.158 71.1583 31.1403C71.3879 31.1226 71.6033 31.0217 71.7647 30.8564C71.9261 30.691 72.0225 30.4723 72.036 30.2409C72.0495 30.0095 71.9793 29.7809 71.8383 29.5976Z" fill="white"/>
</g>
<defs>
<clipPath id="clip0_23_812">
<rect width="49" height="48" fill="white" transform="translate(26 26)"/>
</clipPath>
</defs>
</svg>
