<svg width="362" height="362" viewBox="0 0 362 362" fill="none" xmlns="http://www.w3.org/2000/svg">
<circle cx="181" cy="181" r="176.112" stroke="#272727" stroke-width="5.7506"/>
<path d="M71.1163 178.96V184.87H57.6867V210.093H51.1804V151.823H74.3694V157.733H57.6867V178.96H71.1163Z" fill="#272727"/>
<path d="M85.0587 198.356L82.8065 210.093H76.8008L87.9782 151.823H97.4039L108.581 210.093H102.075L99.8229 198.356H85.0587ZM85.8928 192.778H98.9053L92.3157 159.148L85.8928 192.778Z" fill="#272727"/>
<path d="M135.18 210.01H128.924L119.248 163.643V210.093H113.576V151.823H122.668L132.26 198.356L141.519 151.823H150.611V210.093H144.439V163.227L135.18 210.01Z" fill="#272727"/>
<path d="M163.827 183.871V210.093H157.321V151.823H163.827V178.044H178.174V151.823H184.681V210.093H178.174V183.871H163.827Z" fill="#272727"/>
<path d="M190.87 165.891C190.87 161.396 191.954 157.844 194.123 155.236C196.348 152.572 199.712 151.24 204.216 151.24C208.721 151.24 212.085 152.572 214.309 155.236C216.534 157.844 217.646 161.396 217.646 165.891V196.025C217.646 200.465 216.534 204.016 214.309 206.68C212.085 209.344 208.721 210.676 204.216 210.676C199.712 210.676 196.348 209.344 194.123 206.68C191.954 204.016 190.87 200.465 190.87 196.025V165.891ZM197.293 196.358C197.293 199.022 197.849 201.103 198.961 202.601C200.129 204.044 201.881 204.765 204.216 204.765C206.607 204.765 208.359 204.044 209.471 202.601C210.583 201.103 211.14 199.022 211.14 196.358V165.558C211.14 162.894 210.583 160.841 209.471 159.398C208.359 157.9 206.607 157.15 204.216 157.15C201.881 157.15 200.129 157.9 198.961 159.398C197.849 160.841 197.293 162.894 197.293 165.558V196.358Z" fill="#272727"/>
<path d="M229.964 196.358C229.964 199.022 230.492 201.103 231.548 202.601C232.661 204.044 234.412 204.765 236.804 204.765C239.139 204.765 240.835 204.044 241.892 202.601C243.004 201.103 243.56 199.022 243.56 196.358V151.823H249.649V196.025C249.649 200.465 248.593 204.044 246.479 206.763C244.366 209.427 241.058 210.759 236.553 210.759C232.105 210.759 228.824 209.427 226.71 206.763C224.597 204.044 223.541 200.465 223.541 196.025V151.823H229.964V196.358Z" fill="#272727"/>
<path d="M268.31 151.24C272.759 151.24 276.04 152.572 278.153 155.236C280.266 157.844 281.323 161.368 281.323 165.808V167.389H275.15V165.475C275.15 162.811 274.622 160.758 273.565 159.315C272.509 157.872 270.813 157.15 268.477 157.15C266.142 157.15 264.446 157.872 263.389 159.315C262.332 160.758 261.804 162.783 261.804 165.392C261.804 167.556 262.277 169.443 263.222 171.052C264.223 172.661 265.447 174.16 266.892 175.547C268.338 176.879 269.895 178.211 271.564 179.543C273.287 180.819 274.872 182.234 276.318 183.788C277.764 185.342 278.96 187.118 279.905 189.116C280.906 191.058 281.406 193.389 281.406 196.108C281.406 200.548 280.322 204.099 278.153 206.763C276.04 209.372 272.731 210.676 268.227 210.676C263.723 210.676 260.414 209.372 258.301 206.763C256.188 204.099 255.131 200.548 255.131 196.108V192.778H261.22V196.441C261.22 199.105 261.776 201.158 262.889 202.601C264.001 204.044 265.725 204.765 268.06 204.765C270.396 204.765 272.12 204.044 273.232 202.601C274.344 201.158 274.9 199.105 274.9 196.441C274.9 194.277 274.4 192.418 273.399 190.864C272.453 189.254 271.258 187.784 269.812 186.452C268.366 185.065 266.809 183.733 265.141 182.456C263.472 181.124 261.915 179.682 260.47 178.128C259.024 176.574 257.8 174.826 256.799 172.883C255.854 170.886 255.381 168.527 255.381 165.808C255.381 161.313 256.438 157.761 258.551 155.153C260.664 152.544 263.917 151.24 268.31 151.24Z" fill="#272727"/>
<path d="M307.854 177.628V183.455H293.591V204.183H311.107V210.093H287.084V151.823H311.107V157.733H293.591V177.628H307.854Z" fill="#272727"/>
</svg>
