<svg width="16" height="25" viewBox="0 0 16 25" fill="none" xmlns="http://www.w3.org/2000/svg">
<g clip-path="url(#clip0_221_48)">
<path d="M14.7371 1.79125C15.0652 2.10681 15.2495 2.53473 15.2495 2.98092C15.2495 3.4271 15.0652 3.85502 14.7371 4.17058L6.07464 12.4999L14.7371 20.8292C15.0559 21.1467 15.2323 21.5717 15.2283 22.0128C15.2243 22.454 15.0403 22.8761 14.7158 23.188C14.3914 23.5001 13.9524 23.6771 13.4936 23.6809C13.0347 23.6848 12.5927 23.5151 12.2626 23.2086L2.36288 13.6896C2.03482 13.374 1.8505 12.9461 1.8505 12.4999C1.8505 12.0537 2.03482 11.6258 2.36288 11.3103L12.2626 1.79125C12.5908 1.4758 13.0358 1.29858 13.4999 1.29858C13.9639 1.29858 14.409 1.4758 14.7371 1.79125Z" fill="red"/>
</g>
<defs>

</defs>
</svg>
