<?xml version="1.0" standalone="no"?>
<!DOCTYPE svg PUBLIC "-//W3C//DTD SVG 20010904//EN"
 "http://www.w3.org/TR/2001/REC-SVG-20010904/DTD/svg10.dtd">
<svg version="1.0" xmlns="http://www.w3.org/2000/svg"
 width="1259.000000pt" height="1259.000000pt" viewBox="0 0 1259.000000 1259.000000"
 preserveAspectRatio="xMidYMid meet">
<metadata>
Created by potrace 1.14, written by Peter Selinger 2001-2017
</metadata>
<g transform="translate(0.000000,1259.000000) scale(0.100000,-0.100000)"
fill="#000000" stroke="none">
<path d="M5947 12514 c-2 -3 -44 -7 -93 -9 -49 -3 -109 -8 -134 -11 -25 -3
-65 -7 -90 -10 -99 -9 -192 -21 -270 -34 -30 -6 -71 -12 -90 -14 -76 -10 -316
-60 -490 -101 -286 -69 -732 -222 -1015 -350 -118 -53 -421 -206 -505 -255
-47 -27 -92 -53 -100 -56 -8 -4 -61 -36 -118 -71 -586 -360 -1111 -817 -1549
-1348 -581 -704 -985 -1492 -1223 -2390 -18 -66 -34 -130 -36 -143 -3 -13 -11
-52 -19 -86 -8 -33 -17 -77 -20 -96 -3 -19 -8 -42 -10 -50 -2 -8 -7 -31 -10
-50 -3 -19 -8 -42 -10 -50 -2 -8 -7 -33 -10 -55 -25 -173 -34 -237 -40 -285
-3 -30 -8 -71 -10 -90 -6 -36 -9 -78 -22 -245 -15 -208 -8 -821 12 -990 2 -16
7 -57 10 -90 11 -105 15 -136 30 -245 4 -26 43 -260 50 -295 19 -103 85 -386
106 -450 5 -16 21 -70 35 -120 116 -401 328 -908 515 -1233 27 -47 49 -86 49
-88 0 -18 355 -565 379 -584 3 -3 45 -57 93 -120 247 -329 647 -744 964 -1000
43 -35 81 -67 84 -70 3 -3 32 -25 65 -50 33 -25 62 -47 65 -50 7 -7 79 -61
115 -86 142 -99 176 -122 220 -150 28 -18 55 -37 60 -41 10 -8 149 -93 215
-131 506 -295 1031 -512 1595 -657 124 -32 367 -85 450 -98 17 -3 73 -12 125
-21 52 -8 118 -18 145 -21 28 -4 59 -8 70 -10 11 -1 56 -6 100 -10 44 -4 91
-9 105 -11 150 -25 969 -25 1122 1 13 2 55 7 93 10 39 3 85 8 103 10 85 12
111 16 167 25 33 5 78 12 100 15 23 3 52 8 65 11 14 2 50 9 80 15 143 26 417
91 506 120 17 5 40 11 50 14 21 4 178 52 269 83 385 128 860 349 1215 565 342
208 637 427 945 701 151 134 428 417 550 561 28 32 64 75 80 94 17 20 46 56
65 81 19 25 37 47 40 50 7 6 79 100 105 136 11 15 34 46 50 68 39 51 98 137
105 151 7 13 84 129 90 135 7 6 123 200 177 295 115 202 248 475 338 696 25
63 50 123 55 134 21 50 103 292 140 415 22 74 44 149 50 165 17 56 58 230 89
375 36 171 55 281 76 445 4 28 9 61 11 75 2 14 6 56 10 95 3 38 7 81 10 94 18
120 26 756 11 976 -10 152 -23 287 -31 331 -2 11 -7 46 -10 79 -4 33 -11 85
-16 115 -5 30 -11 71 -14 90 -3 19 -12 71 -20 115 -9 44 -17 91 -20 105 -16
87 -90 390 -116 475 -78 249 -132 412 -160 480 -4 11 -24 63 -45 115 -37 96
-42 107 -90 215 -28 63 -209 429 -225 455 -5 8 -35 60 -66 115 -78 137 -193
318 -289 453 -44 63 -87 124 -95 135 -17 26 -191 250 -199 257 -3 3 -26 30
-51 60 -24 30 -61 73 -81 95 -20 22 -62 69 -94 105 -78 87 -320 327 -424 420
-46 41 -89 80 -95 85 -15 14 -174 145 -212 175 -37 30 -66 52 -164 124 -41 31
-80 59 -85 64 -36 30 -440 292 -451 292 -2 0 -25 13 -51 29 -199 122 -640 332
-884 421 -46 17 -93 35 -104 40 -100 46 -592 187 -803 230 -151 31 -346 66
-422 76 -19 2 -46 6 -60 9 -14 2 -52 7 -85 10 -33 4 -71 8 -85 10 -14 2 -59 6
-100 10 -41 3 -97 8 -125 11 -59 7 -782 13 -788 8z m768 -208 c146 -12 242
-22 323 -32 26 -3 61 -7 77 -9 82 -10 316 -51 476 -84 221 -46 735 -201 894
-271 22 -9 87 -36 145 -60 257 -105 628 -299 900 -472 191 -122 502 -348 596
-433 6 -5 31 -26 55 -47 204 -169 470 -430 649 -637 30 -35 60 -69 65 -75 22
-23 174 -215 231 -291 401 -533 728 -1175 928 -1825 49 -159 121 -439 140
-546 7 -33 12 -58 20 -94 3 -14 8 -42 11 -62 2 -21 11 -75 19 -120 8 -46 18
-110 21 -143 4 -33 9 -62 10 -66 2 -3 7 -45 10 -95 3 -49 8 -96 10 -104 26
-100 26 -905 0 -1105 -2 -16 -7 -57 -10 -90 -3 -33 -8 -73 -10 -90 -11 -81
-28 -203 -31 -226 -2 -14 -17 -97 -34 -185 -59 -298 -143 -609 -229 -844 -18
-47 -34 -92 -36 -100 -24 -84 -137 -346 -240 -555 -104 -212 -208 -398 -323
-577 -42 -66 -81 -127 -87 -136 -5 -9 -13 -21 -18 -26 -4 -6 -52 -73 -107
-148 -99 -138 -246 -324 -325 -414 -196 -220 -411 -435 -590 -589 -44 -38 -82
-71 -85 -75 -13 -15 -247 -196 -350 -270 -268 -195 -583 -384 -880 -528 -96
-47 -176 -85 -177 -84 -2 1 -29 -12 -62 -28 -33 -17 -66 -30 -73 -30 -8 0 -22
-6 -33 -13 -35 -24 -355 -139 -540 -195 -196 -59 -318 -91 -540 -138 -11 -2
-29 -6 -40 -8 -31 -7 -127 -25 -160 -30 -16 -2 -59 -9 -95 -15 -36 -5 -87 -13
-115 -17 -27 -3 -57 -8 -66 -9 -9 -2 -52 -6 -95 -10 -43 -4 -92 -9 -109 -11
-212 -26 -878 -25 -1099 1 -16 2 -57 6 -90 9 -34 4 -72 8 -86 10 -14 3 -47 7
-75 10 -27 4 -61 8 -75 11 -14 2 -41 7 -60 9 -19 3 -62 10 -95 16 -33 6 -87
15 -119 21 -33 5 -62 12 -65 14 -4 2 -24 6 -46 9 -22 4 -125 29 -230 56 -104
28 -200 52 -211 55 -57 13 -420 142 -565 200 -197 80 -517 235 -689 335 -69
40 -138 80 -155 90 -54 31 -217 137 -310 202 -154 107 -464 348 -531 412 -6 6
-49 45 -95 86 -391 351 -786 827 -1074 1294 -74 121 -83 136 -163 281 -259
472 -483 1066 -587 1560 -32 150 -53 260 -59 309 -4 27 -9 52 -11 55 -1 3 -6
31 -10 61 -3 30 -8 66 -10 80 -7 45 -14 104 -20 170 -4 36 -8 77 -10 91 -27
221 -26 972 1 1112 2 12 7 55 10 96 3 42 8 84 10 95 2 11 6 42 9 70 3 28 14
101 25 161 10 61 22 126 25 145 3 19 19 96 36 170 17 74 32 143 34 152 15 69
74 276 121 420 148 453 344 877 600 1295 63 103 246 374 293 433 111 142 226
286 230 290 3 3 21 23 40 45 179 211 430 460 666 661 484 412 1045 753 1625
989 277 112 542 198 845 274 173 43 470 99 615 116 30 4 66 8 80 10 14 2 54 7
90 10 36 3 76 8 89 10 13 2 78 7 145 11 66 3 123 8 125 10 5 5 633 -3 706 -10z"/>
<path d="M4830 6295 l0 -4885 545 0 545 0 1 38 c0 20 0 972 0 2115 l1 2077
1124 0 c618 0 1124 3 1125 8 0 4 2 226 2 495 l2 487 -1127 0 -1126 0 0 1779 0
1779 1399 -1 1399 -2 0 498 0 497 -1945 0 -1945 0 0 -4885z"/>
</g>
</svg>
