<?xml version="1.0" standalone="no"?>
<!DOCTYPE svg PUBLIC "-//W3C//DTD SVG 20010904//EN"
 "http://www.w3.org/TR/2001/REC-SVG-20010904/DTD/svg10.dtd">
<svg version="1.0" xmlns="http://www.w3.org/2000/svg"
 width="170.000000pt" height="170.000000pt" viewBox="0 0 170.000000 170.000000"
 preserveAspectRatio="xMidYMid meet">
<metadata>
Created by potrace 1.14, written by Peter Selinger 2001-2017
</metadata>
<g transform="translate(0.000000,170.000000) scale(0.100000,-0.100000)"
fill="#000000" stroke="none">
<path d="M639 1626 c-2 -2 -22 -6 -44 -9 -103 -14 -235 -76 -331 -155 -158
-130 -253 -332 -255 -544 -1 -129 45 -248 141 -361 67 -81 192 -167 240 -167
25 0 25 7 -1 45 -61 90 -130 259 -146 360 -14 87 -6 255 16 347 64 273 225
432 441 439 154 5 286 -67 379 -206 34 -50 81 -156 81 -182 0 -11 3 -23 7 -27
4 -3 8 -17 10 -29 2 -12 8 -47 13 -77 8 -54 7 -245 -3 -285 -30 -123 -84 -253
-136 -329 -17 -24 -31 -47 -31 -50 0 -17 54 -1 108 32 98 59 179 143 234 242
88 159 81 372 -19 577 -55 113 -186 243 -303 301 -47 23 -112 49 -145 58 -54
14 -246 29 -256 20z"/>
<path d="M110 455 c0 -3 7 -20 16 -38 51 -99 171 -214 279 -267 103 -51 176
-70 302 -77 92 -5 127 -2 243 22 22 5 176 62 197 74 10 5 50 22 88 37 192 74
325 81 410 21 26 -18 28 -19 15 -2 -26 32 -115 83 -172 98 -62 16 -212 15
-266 -2 -18 -5 -35 -10 -37 -10 -18 -2 -72 -17 -150 -43 -103 -34 -105 -34
-205 -53 -90 -16 -264 -12 -332 9 -27 8 -48 12 -48 10 0 -2 -23 5 -51 16 -63
25 -122 66 -216 148 -40 34 -73 60 -73 57z"/>
</g>
</svg>
