<svg width="91" height="194" viewBox="0 0 91 194" fill="none" xmlns="http://www.w3.org/2000/svg">
<g clip-path="url(#clip0_25_268)">
<path d="M74.0278 198.218C73.8648 199.452 74.2359 200.692 74.4382 201.927C74.6351 203.738 74.6464 205.567 74.472 207.381C72.3244 208.983 69.9014 210.116 67.5234 211.309C57.8483 216.176 48.5724 222.461 41.8824 231.303C40.2802 233.422 38.7567 235.825 38.4025 238.514C38.2942 238.66 38.1583 238.782 38.0034 238.87C37.8814 238.927 37.7455 238.941 37.6151 238.912C37.4848 238.882 37.3668 238.809 37.2782 238.704C37.1039 238.496 37.1882 238.223 37.2388 237.95C37.8516 234.603 38.1552 232.312 37.5424 228.912C34.8327 213.832 27.6255 201.019 20.677 188.627C21.5596 185.968 23.9714 184.283 25.6916 182.129C35.631 188.87 46.3517 192.811 57.764 196.045C62.863 197.488 69.2437 198.657 74.0278 198.218Z" stroke="black" stroke-width="0.7" stroke-miterlimit="10"/>
<path d="M23.4822 185.387C23.9137 186.076 24.4766 186.662 25.135 187.108C29.0702 190.117 33.5677 192.152 38.0651 194.158" stroke="black" stroke-width="0.7" stroke-miterlimit="10"/>
<path d="M78.3959 177.316C77.086 179.322 72.9259 181.553 70.4523 182.123C61.806 184.111 51.9004 183.826 42.9448 181.559C40.9405 181.053 38.9851 180.352 37.1038 179.464C34.366 178.164 31.1953 176.687 30.2677 173.713C29.9023 172.526 30.5432 171.34 30.6612 170.111C30.7454 168.669 30.6945 167.222 30.5094 165.791C30.4363 165.043 30.5094 164.283 30.4532 163.53C30.2846 159.672 28.1145 156.2 27.4512 152.396C28.9803 150.58 29.4076 148.361 29.8461 145.975C30.2088 143.576 30.4397 141.156 30.5375 138.729C31.0716 131.358 32.7132 123.827 36.9351 117.957C37.1319 117.88 37.2331 118.017 37.3624 118.189C37.4655 118.38 37.582 118.562 37.7109 118.735C38.0426 119.091 38.6104 119.055 38.9646 119.382C39.1401 119.584 39.2929 119.807 39.42 120.046C39.4802 120.148 39.5628 120.232 39.6607 120.292C39.7587 120.352 39.869 120.386 39.9822 120.39C40.0271 120.39 40.0552 120.426 40.0384 120.468C38.9436 123.45 38.5183 126.659 38.796 129.844C38.8745 132.172 39.2103 134.483 39.7966 136.729C40.3881 138.986 41.613 141.001 43.3103 142.509C45.4876 144.224 48.0925 145.228 50.8041 145.399C55.0486 145.749 58.6015 145.696 62.6099 144.212C65.9492 142.984 69.8283 140.456 71.2843 136.236C71.8488 134.479 72.1928 132.651 72.3075 130.8C72.4996 127.654 72.4017 124.496 72.0151 121.37C71.8631 119.817 71.4299 118.31 70.739 116.931C70.0194 115.637 69.1593 114.396 67.7313 113.868C67.7043 113.731 67.7242 113.588 67.7876 113.465C67.8475 113.381 67.9153 113.303 67.9899 113.233C68.0879 113.066 68.1493 112.877 68.1698 112.681C68.2204 112.491 68.2485 112.462 68.4341 112.486C71.5429 112.842 73.7916 114.895 75.585 117.388C77.3126 119.839 78.6984 122.539 79.7001 125.405C80.6514 127.989 81.3685 130.661 81.842 133.387C82.1006 134.919 82.1962 136.473 82.4042 138.01C82.8846 141.74 83.9725 145.354 85.6199 148.693C85.4568 151.313 85.0634 153.912 84.4449 156.455C84.1807 157.524 83.8827 158.574 83.5792 159.63C82.9046 162.012 82.2168 164.39 81.516 166.764C81.2124 167.832 80.9032 168.906 80.6896 169.998C80.5209 170.835 80.4085 171.678 80.2455 172.515C79.9453 174.231 79.3159 175.865 78.3959 177.316V177.316Z" stroke="black" stroke-width="0.7" stroke-miterlimit="10"/>
<path d="M31.6675 170.74C34.4784 173.992 38.824 175.215 42.9111 176.016C50.4912 177.486 58.2057 178.036 65.9042 177.654C69.2181 177.475 72.4901 176.792 75.6187 175.624" stroke="black" stroke-width="0.7" stroke-miterlimit="10"/>
<path d="M37.2613 166.509C35.3502 165.949 33.5141 165.135 31.7969 164.087C31.3359 163.802 30.8187 163.351 30.9424 162.805C31.6438 162.902 32.3201 163.144 32.9325 163.518C39.2639 166.708 46.3035 168.001 53.2834 167.256" stroke="black" stroke-width="0.7" stroke-miterlimit="10"/>
<path d="M20.5981 188.455C12.7782 199.559 6.54366 212.194 5.71726 226.004C5.12697 235.683 10.4171 250.561 12.767 259.938" stroke="black" stroke-width="0.7" stroke-miterlimit="10"/>
<path d="M77.7888 178.093C76.923 180.764 76.1472 183.46 75.4614 186.182C75.2365 187.084 75.0172 187.962 74.8992 188.912C74.7811 189.862 74.6855 190.758 74.6181 191.684C74.4438 193.945 74.2302 195.951 74.0559 198.212" stroke="black" stroke-width="0.7" stroke-miterlimit="10"/>
<path d="M30.3577 173.69C29.3037 176.726 27.8093 179.571 25.9277 182.123" stroke="black" stroke-width="0.7" stroke-miterlimit="10"/>
<path d="M28.0415 68.3197C26.6039 69.4468 25.6046 71.0883 25.2306 72.9369C24.8707 74.773 24.8707 76.6675 25.2306 78.5036C25.8658 82.3018 27.811 85.8388 31.0885 87.5421C32.449 88.2424 33.9612 88.5272 35.3948 89.0139C37.458 89.7201 39.2232 91.18 41.1121 92.3017C42.3208 93.0198 43.5576 93.7675 44.384 94.9367C45.0249 95.8387 45.3735 96.9307 45.9469 97.904C47.0864 99.6469 48.773 100.908 50.7085 101.465C52.6324 102.015 54.6264 102.241 56.6171 102.135C57.9996 102.191 59.378 101.942 60.6648 101.405C61.3035 101.127 61.8605 100.674 62.2785 100.093C62.6964 99.5121 62.9602 98.8241 63.0428 98.0998C63.0088 97.6934 63.0746 97.2846 63.2339 96.9129C63.5379 96.5917 63.9325 96.3834 64.3583 96.3194C65.2182 96.0078 65.9556 95.403 66.4543 94.6005C66.953 93.7979 67.1847 92.8431 67.1129 91.8862C67.0736 91.542 67.023 91.1325 67.2647 90.9011C67.5065 90.6696 67.8663 90.7587 68.1811 90.7052C68.5188 90.5973 68.8128 90.3735 69.0165 90.0693C69.2201 89.7651 69.3218 89.3979 69.3054 89.0257C69.2593 88.2762 69.1291 87.5352 68.9175 86.818C68.6477 85.4649 68.7826 84.0169 68.2823 82.735C67.9595 81.9857 67.4604 81.336 66.8326 80.8478C66.2048 80.3596 65.4692 80.0491 64.6956 79.9457C63.1323 79.7643 61.5623 80.2184 60.305 81.2157C59.4294 81.8801 58.6998 82.736 58.166 83.7251C57.6322 84.7141 57.3067 85.813 57.2117 86.9469C57.1167 88.0808 57.2545 89.223 57.6156 90.2956C57.9767 91.3682 58.5527 92.3459 59.3043 93.1622C60.2554 94.2679 61.575 94.9421 62.9865 95.0435C64.3808 95.085 66.562 93.7082 66.3596 92.9189C65.7974 92.0821 64.1559 94.5153 62.9865 95.3758C61.6879 96.3432 59.8159 96.1414 58.4891 95.1918C57.2087 94.1671 56.2904 92.7192 55.8806 91.0791C55.116 88.4501 55.2285 85.4412 56.6452 83.1326C58.0619 80.824 60.9121 79.4472 63.3913 80.2959C63.6536 80.4284 63.9493 80.4679 64.2346 80.4086C64.7968 80.2009 64.7349 79.3523 64.555 78.7588C62.7223 72.4028 59.0625 66.4681 53.6712 63.0438C48.2799 59.6195 41.0391 59.1388 35.7883 62.7649C35.0312 63.3502 34.2428 63.8892 33.4271 64.3791C32.7058 64.6883 32.0035 65.045 31.3246 65.4473C31.0389 65.6435 30.7893 65.8928 30.5881 66.1832C30.3858 66.48 30.3689 67.0675 30.189 67.293C29.8292 67.7381 28.5868 67.9221 28.0415 68.3197Z" stroke="black" stroke-width="0.7" stroke-miterlimit="10"/>
<path d="M26.147 82.0881C26.2145 83.2098 25.2531 84.1712 25.27 85.2928C25.27 86.7706 26.9565 87.6667 27.277 89.1207C27.485 90.0228 27.1364 90.9486 26.8441 91.8269C26.2893 93.2621 26.122 94.8315 26.3606 96.361C26.7485 98.1414 27.9741 99.542 29.0366 100.978C30.6234 103.125 31.9247 105.491 32.9044 108.011C33.0011 108.314 33.1476 108.598 33.3373 108.848C33.62 109.138 33.9714 109.343 34.3548 109.441C36.3412 110.081 38.4573 110.124 40.4657 109.566C40.6569 108.919 40.1846 107.785 39.6618 107.934C39.4875 108.023 40.1396 109.275 40.5669 109.856C41.7988 111.524 42.5414 113.535 42.7032 115.643C42.765 116.188 42.721 116.742 42.5739 117.269C42.4104 117.732 42.1663 118.159 41.8543 118.527C41.3161 119.213 40.6985 119.825 40.016 120.349" stroke="black" stroke-width="0.7" stroke-miterlimit="10"/>
<path d="M60.9854 101.275C61.5104 104.174 62.4049 106.985 63.6445 109.631C63.9183 110.25 64.2558 110.835 64.6508 111.376C65.5234 112.402 66.5727 113.243 67.7427 113.856" stroke="black" stroke-width="0.7" stroke-miterlimit="10"/>
<path d="M37.1376 97.5895C37.0944 97.9194 36.9384 98.2212 36.6991 98.4382C36.3878 98.6412 36.0892 98.8652 35.8052 99.1088C35.6271 99.4018 35.4837 99.7167 35.378 100.046C35.2318 100.361 34.9338 100.64 34.6134 100.575C34.4981 100.536 34.3957 100.464 34.318 100.366C34.2403 100.268 34.1907 100.149 34.1749 100.023C34.1476 99.7687 34.1629 99.5116 34.2199 99.2631C34.6707 96.7063 34.2737 94.0636 33.0955 91.7795C32.7186 91.2034 32.4249 90.5714 32.2241 89.9041C32.1314 89.568 32.1455 89.2091 32.2643 88.8822C32.3831 88.5553 32.6 88.2785 32.8819 88.0941C33.2079 87.9338 33.5059 88.2721 33.7701 88.5273C34.0085 88.8024 34.1988 89.1198 34.3323 89.465C35.0125 90.949 35.3953 92.5653 35.4567 94.2127C35.4422 94.3685 35.4572 94.5259 35.5006 94.6756C35.544 94.8253 35.615 94.9645 35.7096 95.0851C35.7996 94.9622 35.8608 94.8185 35.8881 94.6659C35.9155 94.5132 35.9083 94.3559 35.867 94.2068C35.6366 92.6756 34.7427 91.2869 34.709 89.738C34.8246 89.6728 34.9557 89.6442 35.0863 89.6558C35.217 89.6674 35.3417 89.7186 35.4454 89.8033C35.6515 89.9735 35.8235 90.1853 35.9514 90.4264" stroke="black" stroke-width="0.7" stroke-miterlimit="10"/>
<path d="M27.0858 88.6934C26.9368 88.7365 26.7805 88.7434 26.6286 88.7136C26.4767 88.6838 26.3332 88.6181 26.2088 88.5213C26.2088 88.5213 26.1357 88.4739 26.1076 88.5213C26.1028 88.5388 26.1028 88.5573 26.1076 88.5748C26.1003 88.644 26.113 88.714 26.1441 88.7755C26.1752 88.8369 26.2233 88.887 26.2819 88.919C26.3775 88.9664 26.5236 88.9961 26.5293 89.1089C26.5349 89.2216 26.3887 89.2572 26.2819 89.2572C26.3881 89.4134 26.5328 89.5358 26.7003 89.6112C26.8679 89.6865 27.0518 89.7119 27.232 89.6845" stroke="black" stroke-width="0.7" stroke-miterlimit="10"/>
<path d="M36.6709 117.839C35.5311 116.131 34.2108 114.566 32.7357 113.174C30.7174 111.269 28.3956 109.672 26.7035 107.441C25.6179 105.907 24.696 104.251 23.9544 102.503C21.5708 97.36 19.2846 92.1632 17.0958 86.913C16.7305 85.8519 16.1556 84.885 15.4093 84.0763C14.611 83.3285 13.3573 83.0021 12.4691 83.6252C12.7583 83.8304 13.0988 83.9399 13.4473 83.9399C13.7957 83.9399 14.1362 83.8304 14.4255 83.6252C14.9969 83.2078 15.4826 82.6729 15.8534 82.0525C18.6643 77.9398 22.4421 72.8479 25.2643 68.7352C29.5481 62.6168 34.3973 56.963 39.7404 51.857C40.505 51.1152 41.7811 49.8096 41.7249 49.5425C41.2583 49.0202 40.1902 50.4861 40.1958 51.4594C41.5563 51.0677 42.377 49.6375 43.4958 48.7235C44.8108 47.7569 46.3928 47.2788 47.9932 47.3645C49.5779 47.4532 51.1554 47.6515 52.7155 47.9579C53.4203 48.1006 54.1431 48.1126 54.8518 47.9936C55.4924 47.8236 56.106 47.5556 56.6733 47.1983L60.6085 45.0025C61.6994 44.4029 62.7281 43.6849 63.678 42.8601C65.016 41.6731 65.4264 39.3468 66.3146 35.5604C66.4833 34.8424 66.6182 33.9878 66.1572 33.4358C66.0996 33.3487 66.019 33.2815 65.9254 33.2425C65.8318 33.2036 65.7294 33.1946 65.631 33.2168C65.5326 33.239 65.4425 33.2913 65.3721 33.3672C65.3018 33.4431 65.2541 33.5392 65.2353 33.6436C65.1509 33.9301 65.1393 34.235 65.2015 34.5278C65.2409 34.878 65.3983 35.329 65.73 35.2993C66.0617 35.2696 66.1179 34.9492 66.1741 34.7059C66.2809 34.2133 66.2922 33.5783 65.8818 33.3231C65.4714 33.0679 64.8698 33.4596 64.5269 33.8809C63.454 35.2911 62.581 36.8584 61.9353 38.5337C61.8194 38.885 61.6319 39.2052 61.3862 39.4717C61.1405 39.7383 60.8424 39.9448 60.5129 40.0767C59.3275 40.7493 58.2169 41.5595 57.2017 42.4921C58.2361 41.0381 59.7596 40.0827 61.0245 38.8482C61.5304 38.4381 61.8812 37.8511 62.014 37.1925C62.0281 36.7308 61.9415 36.272 61.761 35.8512C61.4462 34.9492 61.5474 34.6643 60.9065 33.9818C60.2656 33.2993 58.8152 32.2667 57.9382 32.5278C57.8921 32.5373 57.8493 32.5599 57.8145 32.5931C57.7077 32.7059 57.8145 32.9017 57.9325 33.0145C58.1849 33.2553 58.4077 33.5284 58.5959 33.8275C58.6947 33.9836 58.76 34.1607 58.7872 34.3462C58.8144 34.5318 58.8029 34.7214 58.7533 34.9017C58.6783 35.0971 58.5696 35.2762 58.4329 35.4299C57.6145 36.4749 56.7013 37.4329 55.7063 38.2904C56.164 37.5332 56.7334 36.858 57.3928 36.2904C57.9888 35.6495 58.5172 34.8067 58.3823 33.9165C58.3416 33.6583 58.2474 33.4128 58.1065 33.1973C57.9656 32.9819 57.7814 32.802 57.5671 32.6703C57.35 32.5431 57.1088 32.4681 56.861 32.4506C56.6132 32.4332 56.3648 32.4737 56.1336 32.5694C55.87 32.6905 55.6239 32.8503 55.4027 33.0442C54.3563 33.8993 53.4124 34.8858 52.5918 35.9818C53.2214 35.3805 53.813 34.7362 54.3627 34.053C54.6896 33.7266 54.9332 33.3183 55.071 32.8661C55.1211 32.2965 55.0033 31.7244 54.7337 31.2281C54.6261 30.9365 54.4763 30.6642 54.2896 30.421C54.1934 30.3 54.0715 30.2046 53.9337 30.1427C53.796 30.0808 53.6463 30.0542 53.4969 30.065C53.2433 30.1294 53.0117 30.2671 52.828 30.4626L49.2412 33.6317C48.2125 34.5397 46.6665 34.1599 45.3397 34.3498C42.1072 34.8245 39.6561 37.5367 37.1994 39.7978C35.9037 41.0216 34.5449 42.1687 33.1292 43.234C27.3202 47.5379 21.7458 52.1842 16.4324 57.1507C11.139 61.9713 6.30209 67.3238 1.99005 73.1328C1.08494 74.379 0.162969 75.7678 0.16859 77.3404C0.153976 77.6426 0.201705 77.9445 0.308477 78.2252C0.415249 78.506 0.578517 78.7589 0.786988 78.9665C1.05068 77.7892 1.15291 76.5781 1.09057 75.3701C1.09435 75.2703 1.07093 75.1715 1.0231 75.0853C0.899424 74.9072 0.607091 74.9784 0.489033 75.1565C0.391054 75.3553 0.353743 75.5813 0.382219 75.8034C0.596833 81.7004 1.25288 87.5702 2.34423 93.3581C3.83287 101.008 6.30299 108.407 9.68629 115.352C14.1163 124.533 19.2714 132.533 23.8476 142.651C25.2137 145.672 25.6803 149.423 27.468 152.188" stroke="black" stroke-width="0.7" stroke-linecap="round" stroke-linejoin="round"/>
<path d="M68.2992 112.331C69.0019 109.073 70.2893 106.883 71.5317 104.023C72.2651 102.479 72.737 100.812 72.9259 99.0969C73.2914 93.097 72.791 90.4917 72.746 86.9071C72.6954 82.8063 72.2851 79.7084 72.7123 75.6313C73.0384 72.4622 73.6568 69.2397 73.0271 66.1358C73.6624 66.5453 73.6736 67.4889 73.713 68.2782C73.7523 69.0676 74.1065 70.0586 74.8374 70.0586C75.0173 68.2782 73.713 66.8005 72.4987 65.5305C67.1299 59.7798 62.8292 53.0677 58.5566 46.3438" stroke="black" stroke-width="0.7" stroke-miterlimit="10"/>
<path d="M49.4044 33.4062C47.4986 30.8603 45.5366 28.2668 43.0293 26.4033C41.5412 25.3133 39.8923 24.4911 38.1496 23.9701C36.969 23.62 35.7153 23.3766 34.7315 22.6229C33.8762 21.8561 33.1862 20.9051 32.7077 19.8337L30.7569 16.1779C29.9507 14.8105 29.3211 13.3356 28.8848 11.7922C28.6601 10.7685 28.6486 9.7054 28.8511 8.6765C29.1997 6.76554 29.2896 5.86941 29.5313 4.43915C29.5281 3.99981 29.5927 3.56284 29.7225 3.1454C29.8109 2.93808 29.9735 2.77615 30.1747 2.69497C30.3759 2.61379 30.5994 2.61998 30.7962 2.71217C30.9465 2.82189 31.059 2.98018 31.1167 3.1632C31.1715 3.35379 31.1886 3.55427 31.1667 3.75211C31.1448 3.94996 31.0845 4.14091 30.9895 4.31302C30.8945 4.48514 30.7669 4.63471 30.6147 4.75241C30.4625 4.8701 30.2889 4.95337 30.1048 4.99701C30.029 5.02935 29.9444 5.02935 29.8687 4.99701C29.8261 4.96142 29.7914 4.9164 29.7672 4.86513C29.7429 4.81386 29.7295 4.75758 29.7281 4.70028C29.6718 4.25362 29.7281 3.79919 29.8911 3.38278C29.9362 3.22574 30.0157 3.08212 30.1231 2.96354C30.2305 2.84497 30.3629 2.75479 30.5095 2.7003C30.6992 2.6559 30.8974 2.68102 31.0717 2.77151C31.2998 2.8959 31.4995 3.07132 31.6568 3.28555C31.8141 3.49977 31.9252 3.74763 31.9824 4.01186C32.0989 4.53856 32.1424 5.08027 32.1117 5.62015C32.0272 7.08707 32.1716 8.55867 32.539 9.97619C32.7071 10.4954 32.9061 11.0028 33.1349 11.4955C33.7308 12.8723 34.3324 14.2432 34.9395 15.6675C34.7034 15.8159 34.4504 15.4895 34.338 15.2224L32.9213 11.6913C32.7509 11.3142 32.6281 10.9152 32.5559 10.5044C32.4996 9.9375 32.5512 9.36447 32.7077 8.81893C32.8106 8.37653 32.9479 7.94382 33.1181 7.52518C33.6537 6.27124 34.6201 5.27861 35.8221 4.74776C36.1214 4.58425 36.4646 4.53398 36.7947 4.60532C36.8749 4.62741 36.9501 4.66598 37.0162 4.71883C37.0822 4.77168 37.1377 4.83776 37.1795 4.91329C37.2212 4.98883 37.2485 5.07232 37.2596 5.15899C37.2708 5.24567 37.2656 5.33381 37.2444 5.41837C37.1728 5.55482 37.0818 5.6789 36.9746 5.78632C36.6273 6.26664 36.408 6.83626 36.3393 7.43616C36.2337 7.87997 36.1976 8.33906 36.2325 8.79519C36.3011 9.1807 36.4204 9.55422 36.5867 9.90497C36.9858 10.8783 37.3906 11.8456 37.7954 12.8189C37.8572 12.9673 38.0203 13.1334 38.1214 13.0207C38.0323 12.5811 37.8389 12.1727 37.5593 11.8337C37.1711 11.2856 36.8305 10.7017 36.5417 10.0889C36.1096 9.29538 35.9414 8.372 36.0639 7.46583C36.3111 6.63263 36.7653 5.88463 37.3794 5.29968C37.593 5.05636 37.8797 4.7893 38.1777 4.88425C38.4756 4.97921 38.5487 5.27001 38.633 5.53706C39.4032 7.98808 40.1622 10.5756 41.9049 12.3857C42.0117 12.1364 41.7981 11.8693 41.6182 11.6735C40.3589 10.2907 39.8417 8.35009 39.3695 6.49254L38.1383 1.6558C38.0461 1.38004 38.0116 1.08646 38.0371 0.795273C38.056 0.653537 38.1149 0.521103 38.2062 0.41524C38.2975 0.309378 38.4168 0.235 38.5487 0.201807C38.9085 0.142461 39.1952 0.504475 39.3695 0.84275C39.4807 1.01432 39.5567 1.20856 39.5925 1.41298C39.6283 1.6174 39.6232 1.82747 39.5775 2.02968C39.4369 2.41543 38.8804 2.62315 38.6387 2.29674C38.5804 2.20243 38.5385 2.09793 38.515 1.98814C38.4296 1.79947 38.393 1.59033 38.4088 1.38191C38.4246 1.17348 38.4922 0.973155 38.6049 0.801208C38.7104 0.702214 38.8397 0.635957 38.9786 0.60977C39.1175 0.583584 39.2606 0.598491 39.392 0.652841C39.6513 0.770976 39.8819 0.949517 40.0666 1.17509C41.9162 3.22255 42.3828 6.27296 44.0018 8.54C44.4628 9.19875 45.0306 9.83376 45.1262 10.6409C47.0995 11.5429 48.6342 13.4183 49.8485 15.2877C51.0628 17.1571 52.0241 19.2105 53.2609 21.0621C56.4148 25.8099 61.1315 29.0442 64.8756 33.2875" stroke="black" stroke-width="0.7" stroke-linecap="round" stroke-linejoin="round"/>
<path d="M66.489 34.9314C71.0427 39.6791 75.3864 44.6445 79.5203 49.8274C82.4886 53.5425 85.4513 57.6315 86.0135 62.4563C86.054 62.6189 86.0317 62.7918 85.9517 62.937C85.6762 63.2991 85.1927 62.7709 85.0747 62.3436C84.743 61.0532 84.6251 59.712 84.7261 58.3792C85.0915 58.2012 85.4176 58.6938 85.5581 59.0914C87.5145 64.8539 88.83 73.2693 89.5328 79.3404C90.2851 86.5559 90.6754 93.8083 90.7021 101.067C90.8089 107.922 91.1181 113.394 89.8925 120.954C88.83 127.518 88.6108 132.064 88.1442 139.073C87.8462 142.407 86.9876 145.659 85.6087 148.675" stroke="black" stroke-width="0.7" stroke-linecap="round" stroke-linejoin="round"/>
</g>
<defs>
<clipPath id="clip0_25_268">
<rect width="91" height="194" fill="white"/>
</clipPath>
</defs>
</svg>
