<svg width="124" height="166" viewBox="0 0 124 166" fill="none" xmlns="http://www.w3.org/2000/svg">
<path d="M36.5214 62.0898C34.9183 62.6591 34.5947 61.5464 34.7817 61.1619C35.4878 59.8152 36.6077 58.7467 37.9665 58.1233C39.6775 57.2879 41.5934 57.0143 43.4734 56.774C48.5849 56.0865 54.1277 55.4802 58.5886 58.1344C58.8833 55.8055 57.219 53.5912 55.1737 52.5488C53.1284 51.5064 50.7704 51.3807 48.4914 51.2698L38.9011 50.8114C38.3304 50.7418 37.7518 50.8049 37.208 50.9962C36.6237 51.3235 36.1367 51.8077 35.7989 52.3972C33.0444 56.4165 30.7525 60.7508 28.9692 65.3132C27.9807 67.8528 27.1432 70.6549 27.8549 73.2906C28.3294 75.0464 29.4545 76.9539 28.5738 78.5324C27.7327 80.011 25.7197 80.0665 24.1884 80.7503C23.0686 81.2918 22.1671 82.2176 21.639 83.3685C21.1109 84.5194 20.9892 85.8236 21.2948 87.0568C21.7321 87.1542 22.1868 87.1288 22.6113 86.9831C23.0357 86.8374 23.4141 86.5768 23.7068 86.2287C23.3868 85.7814 22.6859 85.9663 22.2689 86.3064C21.852 86.6464 21.4386 87.1122 20.8994 87.1233C20.2703 87.1233 19.821 86.5282 19.325 86.1326C17.8871 85.0015 15.849 85.5559 14.1991 86.2879C11.8421 87.3309 9.6006 88.6309 7.51318 90.1656C8.12067 91.2303 9.61601 91.2524 10.7663 90.905C11.9165 90.5575 13.1063 89.9882 14.2638 90.3135C14.9 90.4909 15.4356 90.9234 16.018 91.2414C18.4479 92.5574 21.4098 91.7552 24.1417 91.8587C26.1104 91.9376 28.032 92.5004 29.7457 93.5C31.2051 94.3539 32.6213 95.5553 34.2856 95.6108C31.4099 94.2578 30.213 90.6277 27.6069 88.7757C26.7713 88.1975 25.8211 87.8177 24.8251 87.6636C23.8292 87.5095 22.8124 87.5851 21.8484 87.8848" stroke="black" stroke-width="0.7" stroke-linecap="round" stroke-linejoin="round"/>
<path d="M32.8155 96.7307C31.4352 96.2686 29.9182 96.6679 28.6062 97.3C27.2942 97.9321 26.09 98.7787 24.7241 99.311C22.5174 100.15 20.0783 100.062 17.9339 99.067C17.3811 101.965 17.1963 104.925 17.3839 107.872C17.4666 109.177 17.5996 110.582 16.9382 111.698C16.0971 113.107 14.3249 113.513 12.7397 113.794C11.2767 114.053 9.37162 114.094 8.74976 112.708C10.4392 111.443 12.7038 111.65 14.4148 112.903C17.711 115.34 22.2079 115.255 26.1296 114.186C30.0512 113.118 33.7285 111.196 37.6753 110.216C41.9349 109.162 46.5468 109.196 50.3786 107.018C54.3326 104.763 56.8488 100.479 58.4412 96.1208C59.1576 94.1753 59.7308 92.1772 60.1558 90.1433C60.7382 87.3931 61.2522 84.543 60.713 81.7816C60.1738 79.0202 58.3442 76.3512 55.6806 75.6822C52.8732 74.9724 50.0263 76.5952 47.7725 78.4361C45.1808 80.5432 42.8408 83.0717 41.4245 86.1399C40.0082 89.2081 39.5948 92.8604 40.8062 96.021C41.1184 96.8748 41.5815 97.6619 42.1722 98.3425C44.1564 100.535 47.6036 100.771 50.2851 99.5993C52.9558 98.4776 55.2961 96.6595 57.0753 94.3242C58.6389 92.2208 60.3104 89.0861 60.8029 86.4874" stroke="black" stroke-width="0.7" stroke-linecap="round" stroke-linejoin="round"/>
<path d="M46.8777 60.574C46.0582 61.195 45.8964 62.4038 46.051 63.4389C46.1361 64.3261 46.5383 65.1494 47.1797 65.7492C48.0639 66.4886 49.3688 66.4479 50.4148 65.9784C51.1901 65.6491 51.8269 65.048 52.2121 64.2817C52.3973 63.8983 52.4831 63.4723 52.461 63.0448C52.439 62.6173 52.3099 62.203 52.0863 61.8419C51.8038 61.4534 51.4337 61.1414 51.0079 60.9326C50.4618 60.6172 49.8326 60.4878 49.2106 60.5629C48.901 60.6036 48.6088 60.7335 48.3678 60.9376C48.1267 61.1416 47.9467 61.4115 47.8483 61.7162C47.7712 61.9999 47.7853 62.3016 47.8883 62.5764C47.9914 62.8512 48.178 63.0844 48.4203 63.2414C48.6626 63.3984 48.9478 63.4708 49.2333 63.4478C49.5188 63.4247 49.7895 63.3075 50.005 63.1136C50.386 62.7772 50.5226 62.0933 50.1344 61.7643C49.9168 61.6123 49.6566 61.5382 49.3939 61.5536C49.2196 61.5216 49.0403 61.5321 48.8706 61.5841C48.7008 61.6361 48.5452 61.7282 48.4162 61.853C48.3649 61.9334 48.3298 62.0235 48.3131 62.1181C48.2963 62.2127 48.2983 62.3097 48.3187 62.4035C48.3392 62.4973 48.3778 62.5859 48.4322 62.6641C48.4866 62.7422 48.5557 62.8084 48.6355 62.8585C48.8022 62.951 48.992 62.9899 49.1805 62.9701C49.3689 62.9504 49.5472 62.8728 49.6923 62.7476C49.9295 62.5517 50.0769 62.1672 49.8756 61.9343C49.8124 61.8665 49.7331 61.8168 49.6456 61.7902C49.5218 61.7559 49.3924 61.7488 49.2657 61.7694C49.1391 61.7899 49.0181 61.8377 48.9106 61.9095C48.8031 61.9813 48.7116 62.0756 48.6419 62.1863C48.5722 62.2969 48.5259 62.4214 48.5061 62.5517" stroke="black" stroke-width="0.7" stroke-linecap="round" stroke-linejoin="round"/>
<path d="M36.5469 62.0713C39.5016 60.6925 42.8446 60.5557 46.0869 60.5594C48.4881 60.5594 51.0977 60.6999 52.9166 62.2968C53.8044 63.0694 54.5342 64.1932 55.6844 64.4039C54.491 64.6848 53.5277 65.5129 52.3738 65.9269C50.7374 66.4698 48.9866 66.535 47.3162 66.1154C45.6558 65.6942 44.0362 65.1176 42.4779 64.3928L39.4836 63.1175" stroke="black" stroke-width="0.7" stroke-linecap="round" stroke-linejoin="round"/>
<path d="M4.45072 52.3972C4.38937 52.1594 4.40535 51.9075 4.49621 51.6799C4.58707 51.4523 4.74783 51.2615 4.95396 51.1366C5.36565 50.8885 5.83205 50.7523 6.30911 50.7411C8.31848 50.5526 10.3386 50.778 12.3444 51.0072C13.6061 51.1514 14.9038 51.303 16.0289 51.9055C18.1568 53.0441 19.2316 55.5023 20.1482 57.7831C20.1794 57.8501 20.1953 57.9234 20.195 57.9975C20.1832 58.0372 20.1637 58.074 20.1379 58.1057C20.112 58.1375 20.0802 58.1637 20.0444 58.1826C20.0085 58.2016 19.9693 58.2129 19.9291 58.2161C19.889 58.2192 19.8486 58.214 19.8104 58.2009C19.659 58.1404 19.5201 58.0514 19.4006 57.9384C18.7931 57.4689 17.9627 57.4394 17.2115 57.4431C15.1662 57.4431 13.1065 57.554 11.1007 57.1806C9.09491 56.8072 7.08914 55.8942 5.84182 54.2233" stroke="black" stroke-width="0.7" stroke-linecap="round" stroke-linejoin="round"/>
<path d="M13.4158 51.2031C13.0395 51.5122 12.7585 51.927 12.607 52.3971C12.3552 53.0962 12.3313 53.8605 12.5387 54.5749C12.7462 55.2892 13.1738 55.9148 13.7571 56.3574C14.3404 56.8 15.0479 57.0357 15.7728 57.0288C16.4977 57.0219 17.2007 56.7729 17.776 56.3192C18.0593 56.1124 18.2838 55.8317 18.4266 55.506C18.5201 55.2567 18.5558 54.9883 18.5309 54.7223C18.5063 54.3693 18.3973 54.028 18.2136 53.7288C18.0298 53.4295 17.777 53.1816 17.4777 53.0071C17.1738 52.841 16.8315 52.7638 16.4879 52.784C16.1444 52.8043 15.8128 52.921 15.5294 53.1217C15.2533 53.3331 15.0467 53.6264 14.9375 53.9621C14.8283 54.2978 14.8216 54.6598 14.9183 54.9996C14.976 55.1939 15.0798 55.3705 15.2203 55.5134C15.4002 55.6755 15.6275 55.7715 15.8663 55.7862C16.1052 55.8009 16.342 55.7336 16.5395 55.5947C16.7327 55.4506 16.8869 55.2582 16.9875 55.0357C17.0882 54.8131 17.1319 54.5679 17.1146 54.3231C17.1078 54.1324 17.062 53.9453 16.9802 53.774C16.8985 53.6026 16.7826 53.4509 16.6401 53.3287C16.496 53.2091 16.3216 53.1344 16.1375 53.1134C15.9534 53.0925 15.7674 53.1261 15.6013 53.2104C15.4283 53.3263 15.2874 53.4863 15.1922 53.6748C15.0971 53.8633 15.0511 54.0739 15.0585 54.2861C15.0374 54.5591 15.1127 54.8308 15.2706 55.0513C15.63 55.506 16.4496 55.3212 16.7084 54.7888C16.7988 54.6108 16.8212 54.4044 16.7714 54.2102C16.7215 54.016 16.6029 53.848 16.4388 53.739C16.0794 53.5505 15.5797 53.8832 15.6696 54.275" stroke="black" stroke-width="0.7" stroke-linecap="round" stroke-linejoin="round"/>
<path d="M22.6645 52.1162C22.0642 50.4047 20.3892 49.3363 18.7105 48.7708C17.0318 48.2052 15.2417 48.0056 13.599 47.3291C11.3977 46.4098 9.60071 44.692 8.54862 42.5013C8.25386 41.8877 8.02381 41.1668 8.27543 40.5347C8.52705 39.9026 9.47242 39.5847 9.86423 40.1355C7.68641 43.3409 4.58634 45.7636 1 47.0629C3.4054 41.8544 5.36235 36.439 6.84838 30.8791C8.38327 25.1604 9.86423 18.6433 14.8319 15.6305C17.0498 14.2887 19.6595 13.8672 22.1865 13.3793C27.0535 12.4367 32.068 11.0319 35.7272 7.60147C36.694 6.73932 37.4888 5.69228 38.0673 4.51849C38.6388 3.306 38.2938 1.53531 37.0536 1.09911C35.6158 0.596372 34.275 2.0972 33.743 3.54997C31.8774 8.62174 34.5338 14.4809 38.5849 17.9668C42.636 21.4527 47.8158 23.1014 52.7871 24.9165C57.7584 26.7315 62.8519 28.9199 66.2524 33.0675C72.0828 40.1835 71.1698 50.8963 67.9994 59.6093C65.7456 65.7937 62.4673 72.3589 64.3509 78.669C67.6902 89.9068 84.7393 92.2209 87.3166 103.666C87.6567 105.013 87.6455 106.428 87.2843 107.769C86.5654 110.22 84.4086 111.894 82.3058 113.295C77.3643 116.616 72.0953 119.39 66.5867 121.572C65.8678 121.306 65.6198 120.489 65.8426 119.724C66.0655 118.959 66.6514 118.386 67.2337 117.875C71.6874 113.902 77.2985 111.329 81.2526 106.823C82.1404 105.806 82.9564 104.664 83.2835 103.337C84.1031 100.01 81.7055 96.8084 79.369 94.3501C77.0326 91.8919 74.3977 89.0713 74.617 85.6409C74.8974 81.3269 79.4589 78.8243 83.5136 77.6784C87.5683 76.5324 92.2268 75.575 94.4411 71.9005C96.1306 69.0948 96.2168 64.9398 99.1141 63.5018C99.6173 63.2504 100.192 63.0804 100.512 62.5961C100.832 62.1119 100.714 61.3984 100.893 60.8144C101.073 60.2303 101.972 59.8311 102.205 60.3929" stroke="black" stroke-width="0.7" stroke-linecap="round" stroke-linejoin="round"/>
<path d="M102.159 78.0665C103.309 78.2698 102.967 80.6542 101.551 80.266C101.165 80.1595 100.833 79.9064 100.622 79.5579C100.41 79.2094 100.335 78.7913 100.412 78.3881C100.638 77.2792 101.817 76.6507 102.888 76.7284C103.96 76.806 104.829 77.3753 105.62 78.0407C110.336 82.0145 111.224 89.9697 107.504 94.9379C106.447 96.35 104.596 97.5958 103.068 96.7493C102.047 96.18 101.544 94.8381 100.451 94.4352C99.8582 94.2171 99.2039 94.3243 98.5785 94.2725C95.5986 94.0212 94.1104 90.5278 93.2513 87.5853C92.5073 85.0532 91.7739 82.2696 92.7732 79.8224C91.6733 80.8427 90.8322 82.1217 89.8149 83.227C88.5892 84.5652 86.9788 85.7111 85.106 85.4117C84.6313 85.3499 84.1804 85.1624 83.7973 84.8675C83.4142 84.5727 83.1121 84.1807 82.9205 83.7298C82.2735 82.0848 83.4453 80.5987 84.6926 79.6265C85.771 78.7874 87.0255 78.0739 87.6869 76.8577C88.4993 75.3791 88.1542 73.3718 87.0543 72.0928C86.4803 71.471 85.78 70.987 85.0034 70.6752C84.2268 70.3634 83.3929 70.2315 82.561 70.2888C80.6092 70.3813 78.607 71.3165 76.7702 70.6585C75.8589 70.3049 75.1125 69.6082 74.682 68.7098C74.2515 67.8113 74.1692 66.7782 74.4517 65.8196C74.7716 64.877 75.4402 64.0822 75.6666 63.1137C75.9075 62.0676 75.6019 60.9549 75.8176 59.905C76.3748 57.1954 79.9442 56.4413 82.5107 57.2915C87.7372 59.0289 90.8897 64.8289 90.958 70.518C90.9587 70.6458 90.9173 70.7701 90.8406 70.8706C90.7638 70.9711 90.6562 71.0419 90.5353 71.0715C90.4144 71.1011 90.2873 71.0877 90.1748 71.0335C90.0623 70.9793 89.9709 70.8875 89.9156 70.7731C89.1817 69.2118 88.8539 67.4814 88.9641 65.751C89.0744 64.0205 89.6189 62.3489 90.5446 60.8994C90.8833 60.4909 91.129 60.0097 91.2635 59.491C91.4253 58.4375 90.5446 57.554 89.7322 56.8849L82.1297 50.5489C81.5042 50.0276 80.8105 49.3807 81.2562 48.39C81.3337 48.2258 81.4356 48.0749 81.5582 47.9428C83.5496 45.7839 86.8278 46.5269 89.5094 47.3883C91.9357 48.1682 94.5022 49.0407 96.1126 51.0627C97.5504 52.8851 97.9926 55.3878 97.7661 57.7166C97.5518 59.4892 97.1244 61.2276 96.4936 62.8919C96.4522 62.9806 96.4467 63.0827 96.4783 63.1756C96.51 63.2684 96.5763 63.3446 96.6626 63.3872C96.7489 63.4299 96.8481 63.4355 96.9384 63.403C97.0287 63.3704 97.1028 63.3022 97.1443 63.2135C98.0537 61.7349 98.2011 59.6352 98.3772 57.798C98.618 55.3212 99.6569 52.338 102.062 52.0608C102.87 51.9684 103.722 52.2197 104.484 51.9166C105.886 51.3621 106.26 49.1996 108.158 49.3549C108.559 49.3975 108.947 49.5229 109.3 49.7236C109.653 49.9243 109.963 50.1962 110.211 50.523C111.289 51.8686 111.458 53.6392 112.166 55.1697C112.561 56.0236 113.119 56.7888 113.532 57.639C114.082 58.7596 114.366 59.9989 114.358 61.2543C114.35 62.5098 114.052 63.7453 113.488 64.8587C112.924 65.9721 112.11 66.9313 111.114 67.657C110.117 68.3827 108.968 68.854 107.759 69.032C107.64 69.0502 107.518 69.0235 107.417 68.9568C107.315 68.8902 107.241 68.7881 107.207 68.6693C107.172 68.5505 107.181 68.4231 107.231 68.3104C107.281 68.1977 107.369 68.1074 107.479 68.0561C109.247 67.1652 111.548 67.3426 113.363 68.2705C115.699 69.4682 117.403 71.6344 118.985 73.7711C120.743 76.1443 122.49 78.6728 123 81.6116C120.042 82.8204 116.749 84.0181 113.755 82.9054C110.002 81.5118 108.187 77.05 104.768 74.9355C104.049 76.599 101.429 76.8688 100.405 75.3828C100.407 75.7507 100.337 76.1154 100.199 76.4549C100.061 76.7944 99.858 77.1018 99.6017 77.3585C99.3454 77.6153 99.0413 77.8161 98.7076 77.949C98.374 78.0819 98.0177 78.1441 97.6601 78.1319C97.3025 78.1197 96.9509 78.0333 96.6266 77.878C96.3023 77.7226 96.0118 77.5015 95.7726 77.2278C95.5334 76.9541 95.3504 76.6336 95.2347 76.2854C95.1189 75.9373 95.0727 75.5686 95.0989 75.2017C95.2751 73.0613 95.6561 71.8377 96.925 70.1299L100.548 65.2688C101.155 64.5256 101.67 63.7087 102.083 62.8364C102.417 62.0232 102.802 60.7183 102.044 60.2266" stroke="black" stroke-width="0.7" stroke-linecap="round" stroke-linejoin="round"/>
<path d="M44.1128 110.17C40.407 122.626 35.8956 151.153 47.4963 165.618" stroke="black" stroke-width="0.7"/>
</svg>
