<svg width="114" height="140" viewBox="0 0 114 140" fill="none" xmlns="http://www.w3.org/2000/svg">
<path d="M101.616 57.0273L101.28 55.3213C101.222 55.0432 101.101 54.782 100.926 54.5582C100.751 54.3343 100.526 54.1538 100.27 54.0306C100.013 53.9074 99.7313 53.8448 99.4465 53.8478C99.1616 53.8507 98.8813 53.9191 98.6273 54.0476C93.8667 56.4406 89.361 59.3075 85.1791 62.6045C84.5496 63.0283 84.0309 63.596 83.6662 64.2603C83.4321 64.8897 83.3325 65.561 83.3737 66.2311C83.3407 71.9929 83.7386 77.7492 84.5639 83.4522C84.6916 84.3236 84.8228 85.2554 84.4597 86.0598C84.0966 86.8642 83.3031 87.4005 82.4861 87.7356C81.5278 88.129 80.4998 88.3258 79.4635 88.3143C78.4272 88.3028 77.4039 88.0832 76.4546 87.6686C75.7452 88.8886 75.0123 90.2327 75.2241 91.627C75.4359 93.0213 77.1169 94.2178 78.2836 93.4235C78.7475 93.1084 79.1644 92.5185 79.7057 92.666C79.9045 92.7405 80.079 92.8681 80.21 93.0347C80.8894 93.7674 81.4765 94.58 81.9583 95.4546C79.0098 97.107 75.3922 95.6222 72.1075 94.8044C70.653 94.4405 69.1669 94.216 67.6696 94.134C66.0861 94.0469 64.3815 94.0838 63.077 93.1889C62.566 92.8369 62.0684 92.3342 61.396 92.5587C61.3123 92.5788 61.2348 92.6191 61.1704 92.6761C61.106 92.7331 61.0567 92.805 61.0268 92.8855C60.9969 92.966 60.9873 93.0526 60.9989 93.1377C61.0106 93.2227 61.043 93.3036 61.0934 93.3732C61.2481 93.5978 61.4733 93.5777 61.6851 93.5576L68.9505 92.8369C69.9995 92.733 71.0921 92.6325 72.0907 92.9777C73.0253 93.3129 73.7919 93.9832 74.703 94.3754C75.4328 94.6758 76.2278 94.7846 77.0118 94.6913C77.7959 94.598 78.5428 94.3057 79.1812 93.8424" stroke="black" stroke-width="0.7" stroke-linecap="round" stroke-linejoin="round"/>
<path d="M62.5256 94.3418C65.1061 97.5649 68.7275 99.7965 72.7732 100.656C74.081 100.931 75.4628 101.055 76.7471 100.7C77.6228 100.448 78.424 99.9885 79.0818 99.3596C79.7395 98.7308 80.234 97.9519 80.5227 97.0902" stroke="black" stroke-width="0.7" stroke-linecap="round" stroke-linejoin="round"/>
<path d="M101.374 55.6328C102.844 58.4516 99.9824 61.4547 98.8259 64.4143C97.2558 68.4363 98.9604 73.0047 98.214 77.2513C97.5214 81.203 94.1358 87.3266 91.3218 90.1956C84.3052 97.3448 82.0795 104.393 75.6681 111.747C71.9396 116.021 64.3481 113.849 59.964 112.22C51.0031 108.855 43.4161 102.62 38.393 94.4925C33.4407 86.4216 31.1176 77.8345 32.1363 68.4263C32.6641 63.5563 35.6597 61.2838 39.6168 60.7174C43.574 60.1509 47.6622 62.1117 50.1434 65.2422C52.6246 68.3727 53.6265 72.4919 53.5054 76.4804C53.4281 79.2523 52.5742 82.3694 50.093 83.6229C48.7986 84.2765 47.2588 84.2933 45.8333 84.0251C41.9501 83.2978 37.724 80.6734 36.1203 77.0703C35.3067 75.2437 34.9805 74.4828 35.2361 72.8103C35.3739 71.9322 36.9171 72.3377 36.2447 75.7866C36.0026 77.0435 30.6233 95.6623 17.6962 123.786C16.5733 126.226 13.5643 131.495 12.2833 130.272C12.1326 130.109 12.0401 129.901 12.02 129.681C11.9999 129.46 12.0535 129.239 12.1724 129.052C15.4302 123.619 22.5948 121.722 29.0028 121.527C45.4231 121.035 61.4533 128.17 73.9602 138.789" stroke="black" stroke-width="0.7" stroke-linecap="round" stroke-linejoin="round"/>
<path d="M15.3394 32.238C16.2269 29.0807 13.1843 25.7357 9.89284 25.6385C6.6014 25.5413 3.62934 28.0115 2.34504 31.0314C1.06074 34.0513 1.15824 37.4868 1.73651 40.7145C3.50495 50.5718 10.4778 60.1544 20.332 62.0146C25.1969 62.9262 30.2164 61.9107 34.967 60.5231C53.8191 54.9673 70.4573 43.6749 82.5535 28.226C84.8565 25.2631 87.0048 22.1427 89.7853 19.6222C92.5657 17.1017 96.1294 15.1879 99.8882 15.2649C100.866 15.2549 101.831 15.4851 102.699 15.9353C104.535 16.971 105.294 19.3875 104.8 21.4321C104.306 23.4766 102.783 25.1525 100.994 26.2921C100.285 26.7471 99.4492 26.9655 98.6073 26.9155C98.4852 26.8979 98.3691 26.8512 98.269 26.7793C98.1688 26.7074 98.0876 26.6124 98.0321 26.5025C97.9767 26.3926 97.9487 26.271 97.9505 26.148C97.9523 26.025 97.9838 25.9043 98.0425 25.796C98.53 24.8776 99.821 24.3984 100.937 24.4553C105.18 24.6698 107.638 29.2818 108.882 33.3307C110.381 38.2351 111.363 43.2822 111.81 48.3899C112.055 51.2187 112.126 54.1414 111.165 56.8127C109.184 62.3196 103.267 65.6813 101.26 71.1781C100.813 72.3982 100.604 73.8595 101.331 74.9321C101.845 75.703 102.729 76.1253 103.556 76.5409C107.433 78.4916 111.245 81.3908 112.361 85.5704C114.093 92.0526 108.448 98.451 102.164 100.847C99.2192 101.974 95.9782 102.587 93.5138 104.534C91.0494 106.482 89.8155 110.517 92.0143 112.759" stroke="black" stroke-width="0.7" stroke-linecap="round" stroke-linejoin="round"/>
<path d="M54.1409 56.2698C55.3243 58.1601 57.8391 58.7601 60.0715 58.5825C62.3039 58.4048 64.4422 57.6205 66.6746 57.4563C67.6041 57.3418 68.5474 57.4712 69.4113 57.8317C70.8133 58.502 71.5798 60.0103 72.2455 61.4147C70.9242 59.6919 69.3441 57.8216 67.1755 57.6306C66.2635 57.6004 65.3532 57.7298 64.4859 58.0127L62.1997 58.6093C61.8958 58.6627 61.6096 58.7893 61.3659 58.978C61.2173 59.1371 61.1068 59.3277 61.0427 59.5356C60.9787 59.7434 60.9627 59.963 60.9961 60.1779C61.0405 60.7433 61.2543 61.2823 61.6098 61.725C61.9653 62.1678 62.4461 62.4938 62.9898 62.6607C63.5334 62.8276 64.1149 62.8278 64.6586 62.6612C65.2024 62.4946 65.6834 62.1689 66.0392 61.7264C66.6006 61.0359 66.7889 59.9835 66.288 59.2494C65.6593 58.3277 64.3212 58.2674 63.2319 58.5054C62.7074 58.6227 62.0988 58.8975 62.0551 59.4304C62.0047 60.0606 62.778 60.4091 63.4 60.4862C63.9435 60.5977 64.5091 60.5071 64.9902 60.2315C65.4407 59.9198 65.629 59.1992 65.2356 58.8171" stroke="black" stroke-width="0.7" stroke-linecap="round" stroke-linejoin="round"/>
<path d="M102.692 62.4837C101.132 63.7406 98.9099 63.7674 96.9364 63.3954C94.9629 63.0233 93.0398 62.3161 91.0326 62.3128C89.0255 62.3094 86.82 63.2512 86.1644 65.1416C86.1006 65.3619 86.0956 65.5949 86.1498 65.8177C86.2041 66.0405 86.3157 66.2453 86.4737 66.4119C86.7914 66.7593 87.2097 66.9995 87.6706 67.099C88.186 67.2285 88.7248 67.2344 89.2428 67.1162C89.7609 66.9979 90.2435 66.7589 90.651 66.4188C91.0585 66.0786 91.3793 65.647 91.587 65.1593C91.7948 64.6716 91.8836 64.1418 91.8463 63.6132C91.8504 63.4878 91.8273 63.363 91.7785 63.2473C91.7298 63.1316 91.6566 63.0278 91.5638 62.9429" stroke="black" stroke-width="0.7" stroke-linecap="round" stroke-linejoin="round"/>
<path d="M89.0389 65.4066C89.4405 65.4775 89.8544 65.4077 90.2104 65.2092C90.5664 65.0107 90.8426 64.6956 90.9922 64.3173C91.066 64.1003 91.1134 63.8752 91.1334 63.647C91.1536 63.517 91.1536 63.3848 91.1334 63.2548C91.0359 62.799 90.4913 62.5845 90.0239 62.5845C89.3784 62.5845 88.1177 62.99 87.8184 63.6537C87.4755 64.4179 88.3026 65.2591 89.0389 65.4066Z" stroke="black" stroke-width="0.7" stroke-linecap="round" stroke-linejoin="round"/>
<path d="M96.3984 63.9316C96.4013 64.6704 96.1989 65.3956 95.8138 66.0269C95.4287 66.6581 94.8758 67.1707 94.2164 67.5079C93.9142 67.6497 93.599 67.762 93.275 67.8431C91.4545 68.3241 89.5192 68.1065 87.8521 67.2331" stroke="black" stroke-width="0.7" stroke-linecap="round" stroke-linejoin="round"/>
<path d="M75.1739 83.509C75.6839 83.5304 76.1806 83.6772 76.62 83.9363C77.0593 84.1953 77.4276 84.5586 77.6921 84.9938C77.7487 85.0692 77.7846 85.158 77.7964 85.2514C77.8082 85.3449 77.7954 85.4398 77.7593 85.5268C77.645 85.7111 77.3827 85.7178 77.1709 85.6843C75.89 85.4798 74.7301 84.6084 73.4391 84.7022C73.2387 84.7306 73.0361 84.7407 72.8339 84.7324C72.745 84.7344 72.6577 84.7095 72.5833 84.661C72.5089 84.6126 72.4509 84.5428 72.417 84.4609C73.0222 83.7638 74.293 83.4521 75.1739 83.509Z" stroke="black" stroke-width="0.7" stroke-linecap="round" stroke-linejoin="round"/>
<path d="M58.5283 58.1232C58.7166 57.3255 59.584 56.9032 60.3741 56.6853C62.5897 56.0686 64.9465 56.1792 67.2192 56.5278C67.9311 56.6022 68.6236 56.8043 69.2633 57.1244C69.8864 57.5293 70.4346 58.0384 70.8839 58.6293C71.5511 59.3327 72.1006 60.1384 72.5111 61.0158" stroke="black" stroke-width="0.7" stroke-linecap="round" stroke-linejoin="round"/>
<path d="M87.3645 63.315C88.419 62.3114 89.7187 61.6005 91.1343 61.253C92.5499 60.9055 94.032 60.9334 95.4334 61.3341C96.3748 61.6156 97.3094 62.1083 97.8272 62.9463C97.8877 63.0468 97.8944 63.2379 97.7768 63.2278" stroke="black" stroke-width="0.7" stroke-linecap="round" stroke-linejoin="round"/>
<path d="M58.9216 57.52C58.6022 58.9579 59.2343 60.4997 60.3101 61.5086C61.429 62.4863 62.8244 63.0941 64.3043 63.2481C65.774 63.4006 67.2556 63.4006 68.7254 63.2481C69.1557 63.2213 69.586 63.1911 70.013 63.1308C70.3638 63.1002 70.7018 62.9852 70.9981 62.7956C71.1454 62.7013 71.2603 62.5645 71.3276 62.4034C71.3949 62.2423 71.4113 62.0646 71.3747 61.894C71.3404 61.7798 71.275 61.6774 71.1858 61.598C71.0966 61.5187 70.987 61.4657 70.8693 61.4448C70.7516 61.4239 70.6304 61.436 70.5192 61.4798C70.408 61.5235 70.3112 61.5972 70.2395 61.6926C70.1679 61.788 70.1242 61.9013 70.1133 62.02C70.1025 62.1387 70.1249 62.258 70.1781 62.3648C70.2313 62.4715 70.3132 62.5614 70.4147 62.6244C70.5161 62.6875 70.6331 62.7212 70.7527 62.7219" stroke="black" stroke-width="0.7" stroke-linecap="round" stroke-linejoin="round"/>
<path d="M15.1647 31.1654C15.1804 31.6498 15.0642 32.1293 14.8285 32.553C14.5528 32.9519 13.951 33.1664 13.5744 32.8648C13.3931 32.7078 13.2739 32.4915 13.2382 32.2547C12.8516 30.4951 14.9528 28.769 16.5969 29.4896C17.582 29.9119 18.1838 30.9342 18.4561 31.9699C18.7284 33.0055 18.7452 34.0848 18.9302 35.1372C19.6429 39.2162 22.9209 42.511 26.7099 44.1868C30.499 45.8627 34.7553 46.1979 38.9075 46.1777C44.4717 46.1576 50.5334 45.3599 54.4334 41.3982C57.977 37.8018 58.8646 31.8794 56.528 27.4082C56.3262 27.016 56.0506 26.6004 55.6202 26.5066C55.0655 26.3859 54.5645 26.8417 54.2485 27.321C53.1457 28.96 52.9541 31.0347 52.1909 32.8581C51.4897 34.4694 50.3583 35.8581 48.9202 36.8728C47.482 37.8875 45.7921 38.4894 44.0346 38.6129C42.734 38.7323 41.4296 38.4289 40.3162 37.7482C39.2437 37.0242 38.5074 35.7372 38.699 34.4468C38.9375 34.4477 39.1737 34.4012 39.3939 34.3099C39.6141 34.2186 39.8138 34.0845 39.9813 33.9153C40.1488 33.7461 40.2808 33.5453 40.3695 33.3246C40.4581 33.1039 40.5017 32.8678 40.4977 32.6301C40.4343 32.3442 40.4343 32.048 40.4977 31.762C40.6961 31.2693 41.3584 31.2258 41.8896 31.2023C44.4044 31.0783 46.5965 29.57 48.654 28.1154C49.4206 27.5691 50.2779 26.6205 49.7602 25.8362C47.6935 27.1901 45.478 28.3034 43.1571 29.1544C42.537 29.4137 41.8781 29.5689 41.2071 29.6136C40.4207 29.584 39.6466 29.4089 38.9243 29.0974C37.4965 28.5679 36.0889 27.9858 34.7015 27.3512C33.0205 26.577 31.2689 25.6452 30.304 24.0565C29.3391 22.4678 29.5139 20.0512 31.1277 19.1295C31.6118 18.8546 32.1867 18.7239 32.6002 18.3519C33.9451 17.1184 32.6002 14.3566 34.0527 13.2573C34.994 12.5534 36.3288 13.1467 37.3071 13.7935C38.3695 14.4974 39.5093 15.4895 39.4118 16.7564C39.3815 17.1788 39.2067 17.5944 39.2537 18.0167C39.3445 18.7909 40.1144 19.2736 40.8037 19.6389C42.9352 20.7718 45.1508 21.9315 47.5614 22.089C47.8735 22.1434 48.1946 22.0736 48.4557 21.8946C48.7919 21.5997 48.7213 21.0533 48.4893 20.6779C48.2549 20.298 47.8915 20.0145 47.4652 19.8789C47.0389 19.7434 46.5779 19.7647 46.1661 19.9392C45.7543 20.1136 45.4189 20.4296 45.2208 20.8296C45.0228 21.2296 44.9753 21.6872 45.0869 22.1192C45.3693 23.2051 46.6066 23.8218 47.7295 23.7615C48.8524 23.7012 49.8778 23.1247 50.8327 22.5281C51.0119 22.4294 51.1724 22.3001 51.3067 22.146C51.8043 21.4757 51.1789 20.5774 50.5435 20.0478C48.4658 18.315 45.9341 17.1721 43.9169 15.3554C41.8997 13.5388 40.4237 10.72 41.392 8.19618C41.7518 7.25771 42.5586 6.38626 43.5673 6.3561C44.5759 6.32593 45.4702 7.12029 46.4687 7.05325C47.8337 6.96275 48.5296 5.44778 49.2659 4.3015C50.4225 2.49493 52.5036 1.1576 54.6519 1.33524C56.8003 1.51288 58.7604 3.54736 58.4443 5.67235C58.3334 6.40302 57.9871 7.10688 58.0443 7.84425C58.1485 8.4352 58.358 9.00277 58.6629 9.52011C59.4118 11.1638 59.704 12.978 59.5088 14.7728C59.3136 16.5676 58.6383 18.2772 57.5534 19.7227C57.2743 20.0813 56.9549 20.4701 56.9818 20.9226C57.0237 21.1896 57.1585 21.4333 57.3626 21.611C57.5667 21.7888 57.8271 21.8892 58.098 21.8946C58.6443 21.8836 59.1715 21.6927 59.5975 21.3516C61.4635 20.0344 62.4284 17.7083 62.5427 15.4292C62.657 13.15 62.0249 10.901 61.2315 8.76262C61.0499 8.27327 60.8549 7.75711 60.986 7.2376C61.2046 6.40637 62.1729 6.03098 63.0302 5.92373C64.2626 5.77799 65.5122 5.91682 66.6822 6.32946C67.8523 6.7421 68.9114 7.41751 69.7778 8.30344C70.43 8.97378 70.9781 9.83852 70.9713 10.777C70.9646 11.7155 70.2048 12.6808 69.2634 12.6338C69.2836 13.2237 70.1006 13.4885 70.2451 14.0583C70.2868 14.3201 70.2456 14.5884 70.1275 14.8259C68.4767 19.0457 63.7799 21.05 59.6446 22.9303C59.1268 23.1649 58.5116 23.6375 58.7335 24.1604C58.8042 24.2836 58.901 24.39 59.0171 24.4721C59.1332 24.5543 59.2659 24.6103 59.4059 24.6363C61.134 25.1089 62.9428 24.2039 64.3279 23.0744C65.7131 21.9449 66.9234 20.5472 68.5271 19.7596C70.0031 19.039 71.8287 18.9116 73.2643 19.7059C74.6999 20.5003 75.574 22.3203 75.0361 23.8688C74.4477 25.5446 72.5683 26.3691 70.8402 26.8183C68.506 27.3984 66.117 27.7321 63.7127 27.8137C62.1628 27.8774 60.5725 27.864 59.0999 27.3713C58.1706 27.0578 57.3142 26.5608 56.5818 25.91" stroke="black" stroke-width="0.7" stroke-linecap="round" stroke-linejoin="round"/>
</svg>
