<svg width="111" height="166" viewBox="0 0 111 166" fill="none" xmlns="http://www.w3.org/2000/svg">
<g clip-path="url(#clip0_83_822)">
<path d="M110.607 39.238C110.401 37.0915 110.226 34.9372 110.054 32.7868C109.772 29.6632 109.76 26.5087 109.203 23.4159C109.048 22.3022 108.783 21.2069 108.413 20.146C107.959 18.8634 107.365 17.6353 106.643 16.4838C105.749 14.9361 104.633 13.5297 103.332 12.31C102.157 11.2482 100.661 10.6789 99.3072 9.93259C98.557 9.55697 97.904 9.01039 97.3997 8.33614C96.8885 7.54369 96.4612 6.68968 95.7821 6.02802C94.157 4.43157 91.9405 3.67759 89.8995 2.76973C88.3918 2.18079 86.8143 1.79282 85.2071 1.61566C83.8947 1.5118 82.5786 1.49641 81.2662 1.41563C80.2584 1.36657 79.2552 1.24703 78.2639 1.05787C76.3564 0.638561 74.4947 0.0692246 72.5414 0.0422965C71.0834 0.0294223 69.627 0.143974 68.1886 0.384668C67.7575 0.473146 66.2811 0.600092 65.5448 0.769354C63.9845 1.05787 62.2372 1.02709 60.5853 1.7003C59.3739 2.21183 58.2297 2.87206 57.1786 3.66605C54.5539 5.50485 53.7909 7.15515 53.7909 8.03224C53.7909 8.90932 54.3746 9.671 54.7561 10.4404C55.9006 12.6869 54.779 15.5721 53.6116 17.911C52.8029 19.5336 51.9115 21.1129 50.9411 22.6426C49.8348 24.5045 48.4156 26.2087 47.7289 28.2898C47.5077 29.0207 47.2063 29.8094 47.4085 30.5749C47.6297 31.2212 48.2554 31.5135 48.8505 31.7289C48.8734 31.8828 48.9001 32.0328 48.9116 32.1636C48.9998 32.6716 49.0419 33.1867 49.0375 33.7024C49.0384 34.5805 48.7084 35.4262 48.1142 36.0682C47.9159 36.3106 47.7327 36.5183 47.5802 36.7145C47.4903 36.7129 47.401 36.7286 47.3169 36.7606C47.2785 36.7813 47.2452 36.8104 47.2193 36.8457C47.1934 36.881 47.1756 36.9216 47.1672 36.9647C47.1588 37.0078 47.16 37.0522 47.1707 37.0947C47.1815 37.1373 47.2014 37.1769 47.2292 37.2107C47.1185 37.3646 47.0232 37.5608 47.1834 37.7185C47.314 37.8026 47.4504 37.8772 47.5916 37.9416C48.0074 38.1917 48.4118 38.4571 48.8124 38.711C49.4224 39.2373 50.0846 39.6988 50.7885 40.0882C51.273 40.3267 51.7728 40.5344 52.2764 40.7345C52.9952 41.1097 53.7428 41.4262 54.5119 41.6808C54.7006 41.7717 54.9107 41.8077 55.1185 41.7847C55.2057 41.7521 55.2798 41.6915 55.3294 41.6123C55.3791 41.533 55.4015 41.4395 55.3932 41.3461C55.5998 41.4233 55.8114 41.4863 56.0265 41.5346C56.1794 41.558 56.3335 41.5734 56.4881 41.5808C56.4942 41.6265 56.5109 41.6701 56.5367 41.7082C56.5626 41.7462 56.5968 41.7777 56.6369 41.8C56.7461 41.8424 56.8671 41.8424 56.9764 41.8C57.1057 41.7775 57.2332 41.7453 57.3579 41.7039C57.4986 41.6715 57.6247 41.5931 57.7165 41.4808C57.7569 41.4097 57.7679 41.3255 57.7472 41.2463C57.7265 41.1671 57.6758 41.0993 57.6059 41.0576C57.4926 41.0154 57.371 41.0009 57.2511 41.0153C56.9639 40.9757 56.6748 40.9513 56.3851 40.9422C56.0547 40.8935 55.7341 40.7922 55.4352 40.6421C55.2253 40.5498 54.5196 40.2574 54.0694 40.0382C53.2101 39.5541 52.3772 39.0238 51.5744 38.4494C50.9183 38.0317 50.2308 37.6665 49.5182 37.3569C49.0915 37.1415 48.6504 36.9564 48.1982 36.803L48.3317 36.6375C48.7011 36.1968 49.0139 35.7108 49.2626 35.1911C49.4301 34.7853 49.5256 34.3531 49.5449 33.914C49.5707 33.2231 49.5195 32.5314 49.3923 31.852L49.4762 31.879C51.0785 32.3714 52.6388 33.36 54.1991 34.3717C56.1943 35.7066 57.953 37.707 59.9215 39.3727C60.1064 39.5502 60.3298 39.6819 60.5739 39.7574C60.6751 39.7574 60.7721 39.7168 60.8437 39.6447C60.9152 39.5725 60.9554 39.4747 60.9554 39.3727C60.9457 39.1003 60.8876 38.8319 60.7837 38.5802C60.6628 38.2325 60.4987 37.9016 60.2954 37.5954C59.5215 36.5754 58.6776 35.6113 57.7699 34.7103C57.1328 34.1063 56.4309 33.5793 55.748 33.0292C54.721 32.1881 53.5601 31.5287 52.3145 31.0788C51.6836 30.8852 51.0398 30.7373 50.388 30.6364L49.5372 30.4556C49.4551 30.4282 49.3682 30.4185 49.2821 30.4271C49.196 30.4358 49.1127 30.4625 49.0375 30.5056C48.8956 30.6499 48.816 30.8449 48.8162 31.048C48.5829 30.9733 48.3646 30.8574 48.1715 30.7057C47.6679 30.2941 47.8815 29.5901 48.1409 28.6399C48.5181 27.4486 49.0809 26.3254 49.8081 25.3124C50.3918 24.4199 50.9526 23.5197 51.5286 22.6196C52.448 21.1654 53.2797 19.6613 54.0541 18.1226C54.8286 16.5838 55.561 14.8489 55.7175 13.0562C55.8253 12.0107 55.625 10.9562 55.1414 10.0249C54.7599 9.25554 54.3288 8.6362 54.3403 7.98992C54.3 7.63206 54.3821 7.27106 54.573 6.96666C56.2287 4.3354 59.7232 2.38889 61.8443 1.81955C62.8743 1.53873 63.6106 1.55796 64.7093 1.39639C65.9568 1.2002 66.8075 1.04248 68.0474 0.907842C69.0469 0.777048 70.0464 0.623173 71.0536 0.580858C72.3308 0.503884 73.6125 0.589185 74.8685 0.834751C76.1046 1.06172 77.3139 1.43486 78.5538 1.65029C80.0205 1.8631 81.498 1.99154 82.9791 2.03497C85.4334 2.02986 87.864 2.519 90.1284 3.4737C91.5193 4.02435 92.8629 4.68954 94.1455 5.46253C94.9746 5.98573 95.6709 6.69709 96.1789 7.53984C96.8236 8.86427 97.9015 9.92401 99.2309 10.5404C100.715 11.3098 102.283 11.9945 103.286 13.0986C104.421 14.2517 105.398 15.5533 106.189 16.9685C106.881 18.0897 107.439 19.2892 107.853 20.5423C108.311 22.0974 108.628 23.6915 108.799 25.3047C109.096 27.9167 109.237 31.5251 109.562 34.4756C109.794 37.7378 110.21 40.9845 110.325 44.2543C110.346 46.4827 110.219 48.7099 109.943 50.921C109.363 55.7911 108.124 61.3344 106.762 66.3738C105.594 70.8362 104.171 75.2486 103.404 79.8071C102.976 82.3617 102.815 84.9546 102.924 87.5431C102.977 90.1205 103.378 92.6749 103.519 95.2369C103.601 96.5943 103.582 97.9561 103.462 99.3107C103.328 101.574 102.978 103.82 102.416 106.016C101.878 108.324 101.142 110.605 100.429 112.875C99.8832 114.64 99.4178 116.429 98.8494 118.187C98.0864 120.688 97.0754 123.131 96.5833 125.716C95.7249 130.116 95.8203 131.22 97.3005 135.564C97.679 136.541 97.9179 137.569 98.0101 138.614C98.0646 139.52 97.9467 140.427 97.6629 141.288C96.7331 144.312 95.3942 147.192 93.6839 149.847C93.558 150.047 93.4283 150.232 93.3024 150.439C93.6305 148.939 96.0644 139.01 94.3439 134.59C93.8073 133.353 93.0481 132.226 92.1045 131.267C90.9259 129.988 89.675 128.78 88.3582 127.647C86.1036 125.623 83.8604 123.154 82.8189 120.622C82.6556 120.243 82.5278 119.849 82.4374 119.445C82.2902 118.801 82.1756 118.15 82.0941 117.495C81.7889 114.925 82.1704 112.267 82.4756 109.959C82.9563 106.962 83.5171 103.977 84.0893 100.999C84.6256 98.4089 84.8421 95.7614 84.734 93.1172C84.5858 90.5457 84.2027 87.9934 83.5895 85.4928C82.0636 78.7684 81.1251 75.1062 84.2228 68.8204C85.2126 66.7865 86.3487 64.8283 87.6219 62.9617C89.022 60.9536 90.4221 59.234 91.9901 57.2491C94.6109 53.9061 97.3959 50.6363 99.5704 46.9318C101.013 44.4055 102.272 41.7777 103.34 39.0688C104.017 37.2444 104.562 35.3723 104.969 33.4677C105.487 31.0557 106.018 28.5937 105.85 26.1087C105.813 24.9687 105.51 23.8535 104.965 22.8542C104.637 22.2656 104.202 21.7463 103.847 21.1731C103.41 20.4829 103.107 19.7153 102.954 18.9112C102.713 17.727 102.278 16.5919 101.665 15.5529C101.128 14.7753 100.52 14.0502 99.8489 13.3871C99.2042 12.7562 98.5136 12.1753 97.8804 11.5329C97.01 10.7349 96.1991 9.87342 95.4541 8.95549C94.4584 7.72834 93.5466 6.37424 92.2915 5.40868C91.6754 5.03619 91.0186 4.73671 90.3344 4.5162C89.3139 4.13794 88.2562 3.87099 87.1794 3.7199C86.4164 3.6045 85.6534 3.54295 84.8904 3.46601C84.2399 3.36003 83.584 3.29068 82.9257 3.25828C82.3512 3.28411 81.7789 3.34836 81.2128 3.45062C80.4498 3.5314 79.0421 3.75452 78.1609 3.83531C77.1613 3.93148 76.1733 4.10074 75.189 4.27385C74.3955 4.4008 73.5944 4.48543 72.8085 4.65854C71.664 4.93166 70.5195 5.18556 69.375 5.46638C68.3144 5.75489 67.273 6.10111 66.2162 6.38963C64.778 6.82048 63.3092 7.159 61.8595 7.54369C60.6953 7.81258 59.5707 8.23284 58.5138 8.79392C58.0789 9.05166 56.7322 9.60176 57.026 10.225C57.1837 10.4314 57.3949 10.5899 57.6364 10.6827C58.11 10.9028 58.6144 11.0481 59.1318 11.1136C60.1886 11.329 61.2759 11.4059 62.2983 11.7599C63.6016 12.3454 64.8416 13.0647 65.9988 13.9064C67.6888 14.9412 69.2071 16.053 70.1952 17.5455C71.2147 19.0078 71.9511 20.651 72.3659 22.3887C72.7106 23.7334 72.9051 25.1128 72.9458 26.501C73.0553 29.4098 72.9431 32.3228 72.6101 35.2142C72.3965 38.1224 71.8089 41.0999 72.4842 43.9851C72.6464 44.8027 72.9526 45.5845 73.3883 46.2932C75.9978 50.14 71.9348 54.2716 71.1642 55.0294C69.7603 56.4066 67.8338 58.0723 68.3717 60.2727C68.421 60.483 68.4874 60.6888 68.5701 60.8882C68.4174 61.0228 68.2572 61.1652 68.1161 61.3113C67.9125 61.5325 67.803 61.8253 67.8109 62.1269C67.8109 62.4423 67.8109 62.7578 67.7803 63.0732C67.7081 63.5162 67.5799 63.948 67.3989 64.3581C66.8457 65.466 66.2315 66.5469 65.7355 67.6856C65.2161 68.7662 64.8648 69.9209 64.6941 71.1093C64.613 71.6266 64.6642 72.1563 64.8428 72.6481C64.8877 72.7594 64.9599 72.8574 65.0525 72.933C65.1451 73.0086 65.2552 73.0593 65.3725 73.0805C65.4898 73.1016 65.6105 73.0924 65.7234 73.0538C65.8362 73.0152 65.9375 72.9484 66.0178 72.8596C66.3664 72.4676 66.6347 72.0101 66.8075 71.5132C67.4027 69.9091 67.9177 68.2742 68.4899 66.6623C68.9198 65.5052 69.2354 64.3082 69.4322 63.0886C69.5315 62.5624 69.5315 62.0221 69.4322 61.496C69.3819 61.3374 69.3114 61.1862 69.2224 61.0459C69.2873 60.9844 69.3483 60.919 69.4017 60.8574C69.7223 60.4508 69.9467 59.9759 70.0579 59.4687C70.1214 59.0648 70.2316 58.6697 70.386 58.2916C70.5195 58.0223 70.5042 58.0223 70.6721 57.8722L70.7636 57.8184H70.7942C71.1458 57.92 71.4793 58.0771 71.7822 58.2839C72.152 58.4714 72.5628 58.5614 72.9763 58.5455C74.3612 58.4993 75.6277 57.8107 76.7455 57.0298C77.3174 56.6354 77.8457 56.1801 78.3211 55.6718C78.7225 55.1996 79.0958 54.7038 79.4389 54.187C80.1637 53.1444 80.8084 51.8788 80.6062 50.5517C80.5185 49.4822 79.4885 49.663 78.7407 49.8938C77.6926 50.23 76.6933 50.7048 75.7689 51.3056C75.5433 51.456 75.2981 51.5738 75.0402 51.6557H75.0211C75.0921 51.473 75.183 51.2989 75.292 51.1364C75.6586 50.5838 76.0777 50.0684 76.5433 49.5976C77.6739 48.3515 79.1423 47.4674 80.7665 47.0549C81.3855 46.9732 82.0143 47.0084 82.6205 47.1587C82.9203 47.2336 83.1991 47.3765 83.4357 47.5765C83.6724 47.7765 83.8607 48.0283 83.9863 48.3128C84.8752 50.1093 83.7345 53.2137 82.487 54.8755C81.3174 56.4137 79.9468 57.7854 78.4126 58.9532C77.7526 59.4533 76.3945 60.3304 75.4484 60.8767C74.5023 61.4229 73.5066 61.9307 72.7779 62.7616C72.3162 63.3676 71.9198 64.0214 71.5953 64.712C71.5409 64.7656 71.4923 64.8249 71.4503 64.8889C70.8862 65.6875 70.3837 66.5286 69.9473 67.4048C69.5119 68.2683 69.1544 69.1695 68.8791 70.0976C68.6106 71.173 68.4143 72.2654 68.2916 73.3674C68.0779 75.0947 67.8872 76.8296 67.8376 78.5722C67.7384 83.1885 67.7002 87.974 69.2873 92.3825C69.9396 94.0559 70.9391 95.5485 71.8051 97.1103C72.9496 99.2722 73.9301 101.43 74.0941 103.719C74.1819 105.285 73.8423 106.462 73.415 108.028C73.1404 109.009 72.9 110.001 72.6711 110.994C72.0188 113.952 71.9425 116.883 71.416 119.641C71.141 121.428 70.7329 123.191 70.1952 124.915C69.6726 126.558 69.005 128.147 68.4556 129.778C67.4523 132.59 66.6893 135.483 65.9454 138.376C65.5143 140.087 65.0069 141.776 64.6178 143.496C64.1066 145.75 63.5725 147.997 63.1604 150.27C62.901 151.355 62.8056 152.017 62.0388 152.609C61.6154 152.994 60.2382 153.378 59.5591 153.425C58.1171 153.521 56.6712 153.367 55.2253 153.39C53.7795 153.413 52.3412 153.278 50.8992 153.301C49.0582 153.371 47.222 153.537 45.398 153.798C42.9879 154.3 40.6185 154.984 38.3098 155.844C37.131 156.252 35.6393 156.702 34.7581 156.517C33.9117 156.414 33.1265 156.02 32.534 155.402C31.8952 154.804 31.4734 154.008 31.3361 153.14C31.0118 151.047 32.141 148.447 32.7781 146.096C33.7586 142.888 34.7886 139.695 35.9255 136.541C36.7113 134.379 37.379 132.444 38.2945 130.451C39.523 127.881 40.6865 125.254 41.2168 122.434C41.3729 121.714 41.4039 120.972 41.3084 120.242C41.2626 119.776 40.8315 119.472 40.5454 119.976C40.358 120.543 40.2126 121.123 40.1105 121.711C39.8999 122.525 39.6452 123.326 39.3475 124.111C37.543 128.828 35.4829 133.452 33.8349 138.229C33.0547 140.549 32.4177 142.916 31.9274 145.315C31.6832 146.512 31.4009 147.7 31.0538 148.87C30.6723 150.151 30.3213 151.178 29.5278 152.274C28.9968 152.844 28.3672 153.31 27.6699 153.652C26.8327 154.122 25.9647 154.535 25.0719 154.886C23.1377 155.737 21.7338 155.348 19.8416 154.502C19.1898 154.227 18.5747 153.872 18.0104 153.444C17.3363 152.87 16.725 152.225 16.1869 151.52C14.7995 149.781 13.8611 147.722 13.4554 145.527C13.0895 143.834 12.8851 142.109 12.845 140.376C12.7381 138.483 12.7305 136.591 12.7572 134.698C12.7839 132.805 12.8335 130.828 12.9289 128.897C13.0332 127.476 13.0421 126.049 12.9556 124.627C12.8984 124.273 12.8946 123.746 12.4482 123.677C12.1918 123.662 11.9365 123.721 11.7119 123.846C11.7348 123.631 11.7539 123.419 11.7768 123.204C11.9675 121.057 11.9446 118.899 12.0934 116.749C12.288 114.402 12.4749 112.052 12.6351 109.705C12.7801 108.201 12.9785 106.704 13.1082 105.2C13.3256 102.477 13.5813 99.6877 14.6876 97.3257C15.4738 95.6225 16.5348 94.0626 17.8273 92.7095C19.5796 90.7723 21.7182 89.2307 24.1029 88.1856C26.5026 87.1169 29.078 86.5065 31.6985 86.3852C32.9465 86.4197 34.1947 86.3204 35.4219 86.089C35.9035 85.9947 36.3696 85.8329 36.8067 85.6082C37.004 85.0753 37.1472 84.5237 37.234 83.9617C37.4133 83.0115 37.4476 82.0383 37.5659 81.0881C37.6842 80.1379 37.8444 78.8954 37.9474 77.5182C38.193 76.0538 38.3434 74.5747 38.3975 73.0905C38.3632 72.2057 38.3975 71.3247 38.4395 70.44C38.4402 69.7125 38.4007 68.9856 38.3212 68.2626C38.2144 67.2278 38.1839 66.9047 38.5501 66.7047C39.0842 66.7047 39.6145 66.7047 40.1448 66.7047C41.9264 66.7854 43.7042 66.8547 45.4857 66.8354C48.4919 66.7547 51.4829 66.343 54.4967 66.3777C55.3283 66.3777 59.8376 66.4084 58.7542 64.9236C58.2849 64.3388 56.4957 64.3273 55.767 64.3465C53.3674 64.4196 51.4409 64.812 49.1405 65.039C47.7188 65.1851 46.292 65.2826 44.8601 65.3313C43.0923 65.3016 41.3254 65.4303 39.5802 65.716C39.2133 65.7951 38.8515 65.8966 38.4967 66.0199H38.1992C36.6874 66.0712 35.1739 66.0301 33.667 65.8968C32.6534 65.887 31.6534 65.6601 30.7333 65.2313C30.0166 64.8129 29.3552 64.305 28.7648 63.7195C28.095 63.1978 27.5803 62.5005 27.2769 61.7037C27.0492 61.0381 27.007 60.3223 27.1549 59.6341C27.2998 59.0186 27.5669 58.4416 27.75 57.8338C28.0532 56.6231 28.2334 55.3844 28.2879 54.1369C28.2874 53.2822 28.3589 52.429 28.5015 51.5865C28.586 51.2356 28.7142 50.8969 28.883 50.5786C29.0253 50.2476 29.2256 49.9453 29.4744 49.6861L29.5125 49.6438C29.3981 49.9823 29.0929 50.6017 28.9746 50.894C28.5931 51.8634 28.0132 53.7369 29.0089 54.7409C30.2679 55.9911 31.9503 56.5374 33.6632 56.7874C34.6621 56.9612 35.6798 56.9974 36.6884 56.8951C37.3127 56.8172 37.9244 56.6582 38.5082 56.422C38.5878 56.402 38.6599 56.3589 38.7155 56.2981C38.7711 56.2372 38.8078 56.1613 38.821 56.0796C38.8462 56.0508 38.8645 56.0166 38.8744 55.9796C38.9469 55.6795 38.554 55.4641 38.4052 55.2448C38.1006 54.8828 37.825 54.4969 37.5811 54.0908C37.2836 53.5714 37.1157 53.0944 36.8182 52.4212C36.5922 51.9673 36.3185 51.5391 36.0018 51.1441L36.0513 51.2095C35.3666 50.2226 34.6185 49.2819 33.812 48.3936C33.6556 48.2359 33.4915 48.0935 33.3275 47.9512C33.9329 47.5223 34.3957 46.9189 34.6551 46.2201L34.7123 46.2509C35.3317 46.584 35.9684 46.8832 36.6198 47.1472C37.0315 47.524 37.4986 47.8341 38.0046 48.0666C38.6163 48.3479 39.3101 48.389 39.9502 48.182C40.4907 47.9636 40.9589 47.5955 41.3007 47.1203C41.5182 46.7894 41.4114 46.3278 40.9574 46.3509C40.5474 46.4573 40.1467 46.5975 39.7595 46.7702C39.088 46.9731 38.3793 47.0179 37.688 46.901L37.3446 46.8048C37.3917 46.7974 37.4378 46.7845 37.482 46.7663C37.5586 46.7361 37.6244 46.6832 37.6707 46.6145C37.717 46.5458 37.7417 46.4647 37.7414 46.3817C37.6742 46.0322 37.4913 45.7161 37.2225 45.4853C36.8144 45.1223 36.3288 44.859 35.8034 44.716C35.0175 44.489 34.0103 44.6621 33.6327 44.4082C33.4419 44.3044 33.2512 43.7273 33.0452 43.2542C32.6827 42.204 32.4386 41.3846 32.7171 40.5229C32.7989 40.1612 33.0075 39.8416 33.3046 39.6227C33.522 39.4727 34.2774 39.0341 34.7161 38.7572C35.647 38.2071 36.5244 37.5723 37.3866 36.9376C38.2099 36.38 38.9997 35.7737 39.7519 35.1219C40.7335 34.2244 41.6466 33.2535 42.4834 32.2175C42.6741 32.0367 42.739 31.6635 42.43 31.5674C42.6014 31.4127 42.7413 31.2258 42.842 31.0173C42.9263 31.0163 43.0068 30.9818 43.0661 30.9213C43.1254 30.8608 43.1586 30.7792 43.1586 30.6941C43.1069 29.2819 42.7571 27.8969 42.1324 26.6318C41.5296 25.4278 40.8735 24.2506 40.2669 23.0466C40.1067 22.735 39.9464 22.4195 39.8053 22.0964C39.7902 22.0686 39.7695 22.0444 39.7445 22.0251C39.7195 22.0059 39.6908 21.9922 39.6603 21.9848C39.6141 21.9728 39.5653 21.9746 39.5202 21.9902C39.475 22.0058 39.4353 22.0344 39.4061 22.0725C39.3768 22.1105 39.3593 22.1564 39.3557 22.2044C39.3521 22.2524 39.3625 22.3005 39.3856 22.3426C39.7671 23.1735 40.1906 23.9967 40.6064 24.8084C40.6005 24.8413 40.6015 24.8751 40.6094 24.9076C40.6173 24.9401 40.6319 24.9705 40.6522 24.9969L40.9269 25.5355C41.1358 25.9347 41.3095 26.3518 41.4457 26.7819C41.564 27.1666 41.7051 27.6397 41.8005 28.0552C41.0375 26.6549 40.3355 24.8392 39.4505 23.4389C39.275 23.1504 39.0919 22.8696 38.924 22.5734C38.8019 22.3926 38.7333 22.0887 38.4815 22.0656C38.2297 22.0425 38.1763 22.3887 38.1572 22.6042C38.1191 22.9889 38.1305 23.3735 38.1038 23.7582C38.0803 24.5518 37.9122 25.3342 37.6079 26.0664C37.7808 25.2911 37.9081 24.5063 37.9893 23.7159C38.0351 22.8658 38.0771 22.0964 38.4014 21.754C40.038 20.323 41.3656 18.4188 42.5673 16.88C44.1762 14.7074 45.9099 12.6317 47.7595 10.6635C48.9733 9.46488 50.3038 8.39261 51.7308 7.4629C52.1352 7.19362 52.5358 6.9128 52.9631 6.69353C53.2806 6.53971 53.5877 6.36494 53.8825 6.17036C53.9237 6.11863 53.9442 6.05321 53.94 5.98699C53.9357 5.92077 53.907 5.85855 53.8596 5.8126C53.8167 5.76963 53.7611 5.74189 53.7013 5.73356C53.6414 5.72523 53.5805 5.73677 53.5277 5.76643C52.4594 6.32144 51.4386 6.96479 50.4757 7.68987C49.5669 8.33192 48.698 9.02951 47.8739 9.77872C45.562 12.0599 43.4486 14.8104 41.6212 17.2109C40.9459 18.0918 39.9846 19.3497 39.0804 20.3422C38.5997 20.9116 37.9092 21.2885 37.688 22.0041C37.5676 22.4439 37.506 22.898 37.5048 23.3543C37.482 23.8813 37.4171 24.3891 37.3675 24.7353C37.2607 25.4239 37.0852 26.101 37.0089 26.7934C36.9749 26.9477 37.0023 27.1093 37.0852 27.2435C37.1141 27.2745 37.149 27.2992 37.1877 27.316C37.2264 27.3329 37.2681 27.3416 37.3103 27.3416C37.3525 27.3416 37.3942 27.3329 37.4329 27.316C37.4716 27.2992 37.5065 27.2745 37.5354 27.2435C37.8834 26.7339 38.1487 26.1716 38.3212 25.5778C38.4947 24.924 38.5832 24.2503 38.5845 23.5736C38.5845 23.3697 38.5845 23.1889 38.5845 22.9927C38.7714 23.3312 39.0232 23.7198 39.1949 24.0237C39.5764 24.7199 39.9579 25.4393 40.3088 26.1625C40.6598 26.8857 40.9383 27.5282 41.2893 28.1937C41.3999 28.4052 41.522 28.6168 41.6479 28.8207C41.7181 28.9635 41.8336 29.0786 41.976 29.1477C42.0361 29.1713 42.1021 29.175 42.1644 29.1585C42.2268 29.1419 42.2824 29.1058 42.3231 29.0554C42.4198 29.549 42.4798 30.0492 42.5024 30.5518C42.5043 30.5697 42.5043 30.5878 42.5024 30.6057C42.4567 30.698 42.4071 30.7903 42.3575 30.8826C42.3575 30.9134 42.2774 31.0096 42.2468 31.0519C41.9874 31.3596 41.9073 31.3366 41.4037 31.0173C40.7895 30.548 40.4271 30.1825 39.79 29.7517C39.1057 29.2422 38.3735 28.8016 37.604 28.436C37.6392 28.3656 37.6501 28.2853 37.6349 28.208C37.6197 28.1306 37.5793 28.0606 37.5201 28.009C37.3751 27.8398 37.2187 27.6782 37.0623 27.5243C36.8958 27.3241 36.6761 27.176 36.429 27.0973C36.3458 27.0825 36.2602 27.0875 36.1792 27.1117C36.0981 27.136 36.0238 27.1789 35.962 27.2371C35.9002 27.2953 35.8527 27.3672 35.8232 27.447C35.7937 27.5269 35.783 27.6127 35.7919 27.6974C35.8604 27.9531 36.0209 28.1739 36.2421 28.3168C36.393 28.5932 36.5747 28.8514 36.7838 29.0861C36.7448 29.0786 36.7046 29.0786 36.6656 29.0861C36.6294 29.097 36.5958 29.1152 36.5669 29.1397C36.538 29.1642 36.5145 29.1944 36.4977 29.2285C36.5092 29.3076 36.5092 29.3879 36.4977 29.467C36.5175 29.5183 36.5504 29.5634 36.5931 29.5978C36.6579 29.6593 36.7266 29.7132 36.7953 29.767C36.915 29.9147 37.0424 30.0559 37.1768 30.1902C37.4155 30.4154 37.6706 30.6224 37.9398 30.8095C38.3129 31.0974 38.7158 31.3438 39.1415 31.5443C39.6662 31.757 40.2144 31.9055 40.7743 31.9867C41.1329 32.029 41.6021 32.0444 41.9455 32.0636C41.8463 32.1752 41.7471 32.2867 41.6441 32.3945C40.4109 33.8983 38.9617 35.2079 37.3446 36.2798C36.2001 37.103 35.0556 37.9147 33.8196 38.6302C33.369 38.8572 32.9559 39.1531 32.595 39.5073C31.6413 40.6614 32.0342 42.2886 32.5378 43.5619C32.6745 44.0108 32.896 44.4288 33.1901 44.7929C33.8082 45.2507 34.6284 45.0468 35.338 45.1776C35.8682 45.2507 36.8029 45.6892 37.0966 46.2278C36.8563 46.1778 36.223 45.7585 35.6546 45.5084C35.441 45.4199 35.1281 45.2122 34.9641 45.5084C34.9427 45.5466 34.9314 45.5896 34.9314 45.6334C34.9314 45.6773 34.9427 45.7203 34.9641 45.7585L34.9221 45.7354C34.7695 45.6546 34.5864 45.5392 34.4185 45.6469C34.1362 45.8431 34.0905 46.2355 33.9073 46.5125C33.7076 46.908 33.4141 47.2476 33.0528 47.5011C33.0261 47.5473 32.904 47.5319 32.7285 47.4665C32.553 47.4011 32.4615 47.2434 32.347 47.128C31.9045 46.7433 31.5497 46.2085 30.9736 46.0508C29.6155 45.6661 29.421 48.3205 29.4744 48.4936C29.5176 48.6368 29.5482 48.7835 29.5659 48.9321C29.4252 49.0213 29.3033 49.1377 29.2073 49.2745C28.7191 49.7342 28.3475 50.3055 28.1239 50.9402C27.7424 51.9558 27.8034 53.056 27.7424 54.1216C27.6935 55.2389 27.5402 56.3492 27.2846 57.4375C27.0824 58.2531 26.6818 59.0109 26.5674 59.8495C26.4025 60.9351 26.6388 62.0439 27.2312 62.9655C27.5423 63.4284 27.9116 63.8486 28.3299 64.2157C28.7653 64.6499 29.2362 65.0462 29.7376 65.4006C30.8554 66.2776 32.2898 66.5546 33.6708 66.6162C34.4902 66.7104 35.3144 66.7567 36.1391 66.7547C36.6694 66.7547 37.1996 66.7547 37.7299 66.7547C37.5972 67.1721 37.5696 67.6163 37.6498 68.0472C37.7588 69.341 37.7652 70.6416 37.6689 71.9364C37.646 72.6635 37.7109 73.3905 37.6422 74.1137C37.5277 75.6871 37.3103 76.7488 37.1691 78.2683C37.1005 79.3185 36.9364 80.361 36.822 81.4074C36.7592 82.5636 36.5945 83.712 36.3298 84.8388C36.3298 84.9119 36.2955 84.985 36.2764 85.0581C35.9407 85.5466 33.3923 85.7659 31.6489 85.8274C29.8391 85.912 28.0459 86.2155 26.3079 86.7314C24.6256 87.2686 23.0102 87.9992 21.4935 88.9088C20.4428 89.5773 19.4557 90.3422 18.5445 91.1938C16.5838 92.9607 15.0225 95.1319 13.9666 97.5604C12.7954 100.33 12.7305 103.385 12.4406 106.339C12.2422 108.159 12.0247 109.974 11.9217 111.801C11.8187 113.629 11.6204 115.375 11.5021 117.164C11.3762 119.237 11.3915 121.319 11.1969 123.388L11.1168 124.158C10.8508 124.32 10.5959 124.5 10.3538 124.696C7.05386 127.466 4.80685 131.255 2.91844 135.083C2.03235 136.912 1.32946 138.825 0.820218 140.795C0.472736 142.077 0.217738 143.382 0.0572267 144.7C-0.0261495 146.449 0.0568874 148.202 0.305199 149.935C0.443692 151.14 0.751997 152.319 1.22079 153.436C2.08678 155.129 3.25416 155.075 4.27275 153.532C4.81425 152.66 5.25458 151.728 5.5851 150.755C5.9666 149.766 6.34809 148.781 6.66092 147.774C7.38576 145.465 8.15638 143.157 8.7744 140.803C9.18642 139.153 9.62895 137.51 9.97612 135.841C10.3576 134.044 10.6437 132.232 10.9375 130.42C11.2274 128.428 11.4258 126.42 11.628 124.415L11.9103 124.269C12.2117 124.161 12.3261 124.092 12.3719 124.211C12.5377 125.316 12.5799 126.436 12.4978 127.551C12.3452 130.886 12.2384 134.221 12.2536 137.552C12.3299 141.365 12.4558 145.288 13.9551 148.851C14.5585 150.2 15.371 151.444 16.3624 152.536C16.8861 153.162 17.4904 153.714 18.1592 154.179C18.8787 154.618 19.6373 154.989 20.4253 155.286C22.2565 156.037 23.6794 156.056 25.4877 155.229C26.2954 154.9 27.0839 154.525 27.8492 154.105C28.6622 153.71 29.3875 153.152 29.9818 152.467C30.3661 151.916 30.6862 151.322 30.9355 150.697C30.722 151.637 30.7064 152.612 30.8897 153.559C31.0851 154.322 31.4728 155.02 32.0151 155.587C32.5998 156.253 33.3713 156.725 34.2278 156.941C35.3723 157.256 36.5168 156.964 37.5926 156.633C39.5001 156.014 41.3541 155.34 43.2807 154.848C44.8285 154.416 46.4188 154.158 48.0227 154.079C49.213 153.994 50.4032 153.863 51.6011 153.894C53.3255 153.953 55.0511 153.996 56.778 154.025C58.51 154.09 60.3412 154.229 61.932 153.402C63.4389 152.701 63.6716 150.928 63.9387 149.455C64.2019 148.143 64.53 146.85 64.8085 145.542C65.4837 142.488 66.3688 139.487 67.1585 136.46C67.8147 134.017 68.5319 131.59 69.3941 129.209C69.8175 127.954 70.3364 126.731 70.7408 125.469C71.1376 124.26 71.47 123.03 71.7365 121.784C72.0722 120.13 72.3405 118.463 72.5414 116.783C72.7474 115.052 72.8924 113.506 73.1785 111.971C73.415 110.755 73.7241 109.547 74.0445 108.351C74.438 107.14 74.6877 105.886 74.7884 104.616C74.922 101.827 73.6439 99.1991 72.3965 96.7872C71.6068 95.3561 70.6797 93.9982 70.0388 92.4864C69.4017 91.0553 68.8943 88.4818 68.6883 86.9392C68.4626 84.605 68.3721 82.2596 68.4174 79.9148C68.4304 77.8904 68.5616 75.8686 68.8104 73.8598C68.9337 72.4387 69.1996 71.0338 69.6039 69.6667C70.0361 68.4271 70.6042 67.2401 71.2977 66.1276C71.4313 65.9083 71.5762 65.6929 71.7212 65.4814C71.7631 65.4583 71.7976 65.4236 71.8204 65.3813L71.9119 65.2005C71.9738 65.134 72.016 65.0514 72.034 64.962C73.0946 62.9232 73.5142 62.6308 75.6697 61.3998C77.7569 60.2418 79.6707 58.7912 81.354 57.0913C82.6253 55.8483 83.6179 54.3451 84.2648 52.6828C84.6847 51.5699 84.8541 50.3769 84.7607 49.1899C84.5929 48.1204 83.9291 47.0779 82.8532 46.774C82.1244 46.5711 81.3611 46.5265 80.6139 46.6432C79.3466 46.9498 78.1656 47.5446 77.1613 48.382C76.5202 48.8991 75.9403 49.489 75.4332 50.14C75.0854 50.5492 74.7977 51.0065 74.5786 51.498C74.3688 52.2212 75.1356 52.2674 75.5934 51.975C76.9477 51.2056 77.9396 50.5632 79.4083 50.2439C79.5648 50.2156 79.725 50.2156 79.8814 50.2439C79.9501 50.2439 80.0416 50.267 80.076 50.3362C80.2234 50.7655 80.2498 51.2276 80.1523 51.6711C79.9468 52.5368 79.5634 53.3493 79.0268 54.0562C78.6165 54.6987 78.1353 55.2924 77.5924 55.8257C76.261 56.9798 74.5405 58.18 72.7741 58.1108C72.5072 58.0779 72.2486 57.9957 72.0111 57.8684C71.7148 57.6741 71.4005 57.5092 71.0727 57.376C70.3097 57.1567 69.9282 58.0607 69.7222 58.6493C69.6223 59.2327 69.4371 59.7979 69.1728 60.3266C69.123 60.4075 69.0641 60.4823 68.9973 60.5497C68.8541 60.16 68.7893 59.7454 68.8066 59.3302C68.9439 57.9107 70.2868 56.6374 71.4275 55.541C72.2372 54.7661 72.9624 53.9059 73.5905 52.9752C74.0519 52.2639 74.4212 51.496 74.6892 50.6901C75.2806 48.4974 74.7922 47.9512 73.4532 44.9468C72.9382 43.7119 72.736 41.827 72.839 40.1382C73.1633 35.2873 73.9491 30.4325 73.499 25.5624C73.2663 22.2118 72.1447 18.8189 69.9205 16.2722C68.86 15.0605 67.4904 14.2026 66.1437 13.3486C64.6864 12.3869 63.191 11.3329 61.4475 10.9982C60.4633 10.8212 59.4714 10.6943 58.4947 10.4712C58.161 10.3795 57.8433 10.2368 57.5525 10.048C57.7523 9.87537 57.9697 9.72451 58.201 9.59791C60.2801 8.32076 62.653 7.95915 65.0679 7.28979C66.5329 6.90511 67.9749 6.43964 69.4322 6.02417C70.6683 5.71643 71.9081 5.4356 73.148 5.15478C73.8728 5.00476 74.6091 4.92782 75.3378 4.81241C76.4022 4.64315 77.1804 4.47389 78.1532 4.3931C79.8051 4.2123 81.2929 3.94687 82.8075 3.80453C83.5643 3.83381 84.3186 3.9109 85.0659 4.03534C86.355 4.11109 87.6345 4.30553 88.8885 4.61622C90.0597 4.9432 91.3949 5.41637 92.1465 5.95878C93.3558 6.96666 94.2485 8.28998 95.2366 9.50559C95.8697 10.2714 96.5528 10.9936 97.2814 11.6675C97.9834 12.3946 98.7425 13.0601 99.4597 13.7679C100.104 14.4151 100.687 15.1222 101.199 15.8798C101.755 16.8525 102.153 17.9082 102.378 19.0074C102.567 19.944 102.933 20.835 103.458 21.6309C104.175 22.6773 104.858 23.5543 105.079 24.7084C105.491 26.4549 105.316 28.5553 105.03 30.321C104.666 32.4506 104.184 34.5581 103.588 36.6337C102.989 38.5729 102.241 40.4622 101.352 42.2847C100.458 44.2603 99.4277 46.1704 98.2695 48.0012C96.2437 51.1441 94.073 53.733 91.7841 56.6566C90.0902 58.807 88.3506 60.9228 86.8017 63.1963C85.0774 65.8545 83.4713 68.6319 82.4336 71.6594C81.673 73.9111 81.4125 76.3039 81.6706 78.6684C82.0788 82.346 83.2233 85.8928 83.7955 89.5435C84.2329 92.2381 84.3112 94.9795 84.0283 97.695C83.8375 99.6415 83.3568 101.719 82.9677 103.85C82.445 106.658 81.8957 109.463 81.5791 112.313C81.27 114.879 81.2471 117.506 81.93 120.007C82.8761 122.965 84.982 125.362 87.1909 127.462C89.5981 129.716 92.6539 132.144 93.7717 134.833C94.2555 135.986 94.5021 137.227 94.4965 138.48C94.5294 139.955 94.4285 141.431 94.1951 142.888C94.1532 143.161 93.2605 148.054 92.3792 151.878C90.1703 154.852 87.8661 157.795 86.5499 161.288C86.1622 162.289 85.9319 163.346 85.8671 164.419C85.8122 164.853 85.8673 165.293 86.0273 165.7C86.6186 166.558 87.5113 165.581 87.9729 165.077C88.5447 164.332 89.0478 163.536 89.476 162.699C90.371 160.911 91.094 159.041 91.6353 157.114C92.1808 155.421 92.6348 153.698 93.0163 151.963C95.8737 148.501 97.8422 142.811 98.1093 141.938C98.5792 140.587 98.7102 139.14 98.4908 137.726C98.1932 136.052 97.4607 134.494 97.0716 132.844C96.8039 131.917 96.6628 130.958 96.652 129.993C96.7349 128.475 96.9454 126.967 97.2814 125.485C97.846 122.896 98.8532 120.434 99.6314 117.906C100.116 116.368 100.532 114.81 101.012 113.271C101.775 110.921 102.538 108.582 103.107 106.181C103.678 103.948 104.042 101.666 104.194 99.3646C104.321 97.9834 104.342 96.5945 104.259 95.2099C104.099 92.4248 103.679 89.6589 103.668 86.8622C103.619 84.4674 103.803 82.0734 104.217 79.7148C105.079 75.0985 106.506 70.6323 107.65 66.093C109.302 59.6841 110.702 53.156 110.962 46.5201C111.003 44.0875 110.885 41.6548 110.607 39.238ZM49.213 37.957C49.728 38.2109 50.2583 38.4379 50.7389 38.7264C51.5477 39.2034 52.284 39.7881 53.0851 40.2651C53.338 40.4193 53.5991 40.5593 53.8672 40.6844L53.7528 40.6498C53.5124 40.5613 53.2415 40.4536 52.9669 40.3459C52.5091 40.1228 52.0665 39.8651 51.6202 39.6112C50.8446 39.2334 50.094 38.8055 49.3732 38.3302L48.9612 38.084L48.4118 37.5685C48.656 37.6647 48.8849 37.7916 49.213 37.957ZM49.3541 31.0019C49.6479 31.0673 50.8305 31.3212 51.4294 31.4366C52.4244 31.6985 53.3756 32.1068 54.2525 32.6483C55.1085 33.2346 55.9348 33.8637 56.7284 34.5333C57.504 35.1993 58.2248 35.9274 58.8839 36.7106C59.3103 37.1745 59.7006 37.671 60.0513 38.1955C60.2218 38.4996 60.3501 38.8257 60.4327 39.1649C58.5253 37.6262 56.7246 35.445 54.6111 33.9909C53.3725 33.122 52.0586 32.3675 50.6855 31.7366C50.2419 31.5557 49.7885 31.4003 49.3274 31.2712C49.3249 31.1802 49.3365 31.0893 49.3617 31.0019H49.3541ZM32.492 145.027C32.9869 142.724 33.6162 140.453 34.3766 138.226C35.975 133.609 37.9283 129.105 39.6832 124.538C40.1663 123.304 40.5416 122.03 40.8048 120.73C40.8048 120.672 40.8315 120.615 40.8429 120.561C40.8429 120.672 40.8429 120.799 40.8429 120.972C40.7921 121.879 40.6346 122.777 40.3737 123.646C39.729 126.177 38.7104 128.216 37.6193 130.59C36.7113 132.628 35.9789 134.74 35.2197 136.841C34.1973 139.699 33.255 142.592 32.3737 145.504L32.492 145.027ZM46.2907 65.9507C49.1939 65.8006 52.0131 65.3352 54.4433 65.0697C55.3548 64.9812 56.2716 64.9606 57.1862 65.0082C57.5284 65.0547 57.8656 65.1332 58.1934 65.2429L58.2277 65.2659L58.2582 65.2967C57.8381 65.4588 57.4 65.5686 56.9535 65.6237C56.2563 65.6936 55.5559 65.727 54.8553 65.7237C51.872 65.6737 48.9078 66.0276 45.9359 66.1546C44.6045 66.1892 43.2654 66.1545 41.9455 66.0853C43.357 66.0238 44.8639 66.0545 46.2907 65.9661V65.9507ZM40.5683 46.9471C40.6543 46.9106 40.7422 46.8785 40.8315 46.851C40.5895 47.1465 40.2878 47.3865 39.9464 47.555C39.6801 47.6679 39.3929 47.7222 39.1041 47.7143C38.8153 47.7063 38.5315 47.6362 38.2717 47.5088C39.0657 47.524 39.8505 47.336 40.553 46.9625L40.5683 46.9471ZM36.3833 27.6359L36.4519 27.682C36.5244 27.7436 36.5931 27.809 36.6617 27.8744C36.555 27.813 36.4606 27.7321 36.3833 27.6359ZM39.7061 30.4518C39.0757 30.1245 38.4689 29.753 37.8902 29.34C37.7414 29.2333 37.6023 29.1136 37.4743 28.9823C38.0811 29.2792 38.6651 29.6212 39.2216 30.0055C39.4581 30.1825 39.6908 30.3595 39.9312 30.5326C39.9534 30.5518 39.9794 30.5662 40.0075 30.5749C40.0075 30.5749 40.0075 30.5749 40.0456 30.6134L39.7061 30.4518ZM30.0504 47.4511C30.1114 47.3158 30.2065 47.199 30.3264 47.1126C30.4463 47.0262 30.5866 46.9731 30.7333 46.9587C30.8516 46.9561 30.9693 46.9757 31.0805 47.0164C31.4391 47.2203 31.5497 47.4011 31.9579 47.6511C32.0723 47.7204 32.1906 47.7896 32.3127 47.855C32.6408 48.1397 32.9765 48.4128 33.2817 48.7206C33.9078 49.4067 34.4974 50.1257 35.048 50.8748C35.4295 51.4595 35.666 51.6711 36.0056 52.2366C36.2789 52.7343 36.5222 53.2481 36.7342 53.7753C36.9853 54.2319 37.2804 54.6623 37.6155 55.0602C36.9903 54.7334 36.3975 54.3469 35.8453 53.9061C35.2798 53.4505 34.7374 52.9665 34.2202 52.4559C33.8158 52.0173 33.4572 51.548 33.0261 51.1287C32.595 50.7094 32.2822 50.2593 31.8816 49.84C31.4085 49.186 29.6918 48.9052 30.0504 47.4511ZM31.996 50.871C31.874 50.7402 31.7519 50.6094 31.6146 50.4863C31.4772 50.3632 31.3132 50.1247 31.1568 49.9477C31.4543 50.2386 31.7345 50.5468 31.996 50.871ZM30.0886 49.6938L30.1878 49.8169C30.3098 49.9592 30.4624 50.0746 30.5693 50.2016C30.7524 50.3978 30.9088 50.6171 31.0843 50.8209C32.1106 51.9466 33.2483 52.9636 34.4796 53.8561C35.2426 54.3678 35.9216 54.9756 36.7686 55.3179C37.1043 55.4987 37.6574 55.8334 38.0199 56.0373C37.7161 56.1263 37.4079 56.1995 37.0966 56.2566C36.3398 56.3815 35.5694 56.3996 34.8077 56.3104C33.5411 56.2316 32.2935 55.9606 31.1072 55.5064C30.3175 55.191 27.9942 54.0177 29.1158 51.8981C29.3294 51.4749 29.9169 50.0823 30.0733 49.6938H30.0886ZM10.4377 130.12C10.1516 131.936 9.85022 133.748 9.4878 135.548C9.17879 137.087 8.78203 138.576 8.40817 140.084C7.91222 142.038 7.32854 143.969 6.69907 145.885C6.31757 147.162 5.90937 148.443 5.42869 149.693C5.08534 150.639 4.78396 151.463 4.40246 152.259C4.14607 152.862 3.7784 153.41 3.31902 153.875C2.93752 154.217 2.76966 154.259 2.44539 154.144C1.80066 153.759 1.36576 152.686 1.17501 151.794C0.972065 151 0.824196 150.192 0.732474 149.378C0.560801 147.627 0.389128 145.854 0.62184 144.104C1.15018 140.915 2.13855 137.821 3.55554 134.921C5.32187 131.413 7.31328 128.062 10.2317 125.454C10.4881 125.216 10.7581 124.994 11.0405 124.789C10.8574 126.623 10.6819 128.524 10.4377 130.12ZM68.8562 61.3998C68.9238 61.518 68.9667 61.6489 68.9821 61.7845C69.1309 62.9386 68.4251 65.1813 67.8376 66.8354C67.292 68.3742 66.8266 69.9129 66.2544 71.4517C66.1094 71.8133 65.7088 72.5865 65.4494 72.548L65.4189 72.5134C65.4053 72.497 65.3937 72.4789 65.3846 72.4596L65.3502 72.3865C65.3396 72.3602 65.3307 72.3332 65.3235 72.3057C65.3235 72.2595 65.2892 72.1441 65.2854 72.1057C65.2196 71.3127 65.3303 70.5149 65.6096 69.7706C65.8064 69.1137 66.0473 68.4711 66.3307 67.8472C66.8724 66.5469 67.6697 65.3621 68.1618 64.0426C68.2981 63.6511 68.3765 63.2415 68.3946 62.827C68.3946 62.5423 68.3946 62.2577 68.4136 61.973C68.423 61.9327 68.4345 61.8929 68.448 61.8538C68.5595 61.6817 68.6973 61.5285 68.8562 61.3998ZM90.8227 157.414C90.2814 159.329 89.5276 161.177 88.5757 162.923C88.0111 163.961 87.2519 165.108 86.5805 165.4C86.5271 165.4 86.4393 165.25 86.4279 165.084C86.2638 162.98 87.1527 160.899 88.156 159.033C89.3076 156.989 90.611 155.036 92.0549 153.19C91.6963 154.609 91.2691 156.017 90.8227 157.414Z" fill="black"/>
</g>
<defs>
<clipPath id="clip0_83_822">
<rect width="111" height="166" fill="white"/>
</clipPath>
</defs>
</svg>
