<svg width="122" height="167" viewBox="0 0 122 167" fill="none" xmlns="http://www.w3.org/2000/svg">
<g clip-path="url(#clip0_41_96)">
<path d="M121.381 201.837C120.339 199.078 119.084 196.89 118.368 193.984C118.107 193.054 117.895 192.091 117.749 191.144C117.651 190.23 117.472 189.332 117.195 188.45C117.016 187.944 116.511 187.52 116.136 188.157C116.055 188.32 115.99 188.499 115.941 188.679C115.566 187.863 115.175 187.047 114.752 186.247C114.328 185.316 113.823 184.418 113.221 183.586C112.862 183.178 111.689 182.182 111.51 183.21C111.494 183.7 111.559 184.19 111.706 184.647C111.331 184.043 110.94 183.455 110.549 182.884C109.881 182.019 109.442 181.398 108.839 180.647C108.236 179.896 107.764 179.26 107.194 178.59C106.624 177.921 105.842 177.154 105.125 176.485C104.571 175.962 104.018 175.456 103.496 174.901C102.975 174.346 102.601 173.889 102.096 173.416C101.118 172.567 100.385 172.093 99.4406 171.277L98.7239 170.608C98.5285 170.396 98.2027 170.2 97.9584 170.363C97.6978 170.542 97.6978 171.13 97.6326 171.506C97.5838 172.305 97.6163 173.105 97.7304 173.905C98.3493 177.284 100.972 179.749 102.682 182.28C103.562 183.684 104.164 185.251 104.441 186.9C104.523 187.667 104.555 188.434 104.555 189.201C104.571 189.871 104.571 190.54 104.523 191.209C104.164 193.168 103.594 195.078 102.796 196.907C102.112 198.245 101.412 199.323 100.923 199.078C100.222 198.686 99.6524 198.115 99.2289 197.413C97.9095 195.699 97.5186 193.642 96.9648 191.438C96.5739 189.528 95.9061 187.667 94.9776 185.953C94.5541 185.022 94.0329 184.141 93.4465 183.308C92.7787 182.508 92.1109 181.692 91.4105 180.909C90.9381 180.321 90.3843 179.815 89.7816 179.374C89.4721 179.162 89.1138 179.015 88.7392 178.917C88.4786 178.819 88.1854 178.819 87.9247 178.917C86.8008 179.684 87.1103 181.349 87.4198 182.476C87.9899 184.5 88.8695 185.871 89.4233 187.765C89.6839 188.695 89.8631 189.658 89.9608 190.622C90.0911 191.83 90.2051 193.021 90.2703 194.246C90.4006 196.319 90.5309 198.392 90.5146 200.482C90.4983 202.571 90.4169 204.432 90.6286 206.391C90.987 209.476 91.8014 212.496 93.0556 215.337C95.4663 220.463 95.792 221.393 95.5803 222.585C95.4011 223.091 95.2219 223.597 95.0265 224.12C94.7496 224.773 94.1632 226.095 93.7723 227.074C93.2999 228.364 92.7461 229.637 92.1271 230.878C91.215 232.51 90.1725 234.078 88.9998 235.53C87.9899 236.706 86.8986 237.8 85.7258 238.812C83.9341 240.591 81.9469 242.174 79.8131 243.529C77.2721 245.048 74.6497 246.435 71.9621 247.676C69.8284 248.786 67.7434 249.978 65.6422 251.12C62.7266 252.655 59.8924 254.353 57.0583 256.05C54.8105 257.356 52.5627 258.63 50.3474 259.968C47.8553 261.503 45.3143 262.972 42.8222 264.474C39.532 266.547 36.1928 268.522 32.9352 270.628C31.3389 271.706 29.8078 272.865 28.3256 274.105C28.2278 274.073 29.4495 270.775 30.1336 267.951C31.2412 263.674 32.4302 259.413 33.4075 255.104C35.3621 246.566 37.1864 237.979 39.5482 229.539C40.6233 225.474 41.6983 221.426 42.9199 217.394C43.7995 214.488 44.8257 211.599 45.8356 208.726C46.7966 205.999 47.7739 203.289 48.6046 200.514C49.5167 197.609 50.3963 194.686 51.0967 191.715C51.732 189.071 52.188 186.41 52.6278 183.733C53.0676 181.055 53.4585 178.182 53.7191 175.374C53.9798 172.779 54.0938 170.183 54.0938 167.571C54.0938 166.38 54.0938 165.188 54.0938 164.013C54.5987 164.078 55.1037 163.996 55.576 163.784C56.0321 163.572 56.4393 163.245 56.7325 162.837C57.2211 162.07 57.5469 161.205 57.6609 160.291C57.7749 159.67 57.8564 159.05 57.9053 158.43C58.0356 155.54 58.5242 152.683 59.3712 149.925C60.1368 147.345 61.3584 144.733 63.7039 143.999C64.5346 143.884 65.3816 143.917 66.2123 144.129C69.0628 144.897 71.9296 145.713 74.7963 146.431C76.0831 146.79 77.4025 147.035 78.7055 147.329C79.2919 149.99 79.8131 152.651 80.2366 155.328C80.8556 158.805 81.2791 162.462 81.7026 165.563C82.2401 169.139 82.6799 172.257 83.0382 175.897C83.2663 178.313 83.4129 180.745 83.592 183.161C83.7712 185.741 83.9504 188.32 84.0807 190.915C84.1947 193.315 84.1947 195.731 84.211 198.131C84.1947 200.367 84.0807 202.604 83.8364 204.824C83.7223 205.983 83.6083 207.126 83.4617 208.219L83.1034 208.17C82.5496 208.073 81.9958 208.073 81.442 208.17C79.9434 208.448 78.4938 208.905 77.1093 209.525C74.9755 210.472 72.9557 211.664 71.0988 213.084C68.0203 215.304 65.2513 217.916 62.8569 220.855C60.6091 223.581 58.5568 226.47 56.7162 229.474C55.8204 231.057 55.0385 232.69 54.3218 234.355C53.6051 235.841 53.035 237.375 52.6115 238.975C52.1229 240.901 52.0903 242.925 52.5301 244.868C53.3934 248.035 55.9344 249.521 59.1758 248.9C60.8535 248.688 62.466 248.198 63.9645 247.415C65.2513 246.713 66.4567 245.896 67.5968 244.999C69.5026 243.35 71.2129 241.489 72.7277 239.481C74.8778 236.689 76.7183 233.653 78.1843 230.453C79.4548 227.793 80.5135 225.05 81.3605 222.226C82.5984 217.933 83.5106 213.558 84.097 209.117C84.6508 209.313 85.1394 209.656 85.5141 210.097C85.5466 210.129 85.5955 210.162 85.6281 210.178C85.677 210.195 85.7258 210.195 85.7747 210.195C85.8235 210.195 85.8724 210.178 85.905 210.146C85.9376 210.113 85.9864 210.08 86.0027 210.048C86.0353 209.982 86.0516 209.901 86.0353 209.819C86.019 209.738 85.9701 209.672 85.905 209.623C85.6118 209.281 85.2697 209.003 84.8788 208.791C84.6508 208.66 84.4227 208.546 84.1784 208.464C84.5693 205.428 84.83 202.359 84.944 199.274C84.944 196.678 84.944 194.082 84.8462 191.47C84.7159 188.646 84.5042 185.806 84.325 182.982C84.1459 180.631 84.0155 178.264 83.7875 175.913C83.4454 172.42 82.8591 168.339 82.403 165.237C81.6374 159.311 80.8067 153.402 79.5199 147.557C80.3832 147.753 81.2302 148.015 82.0446 148.325C82.5984 148.586 83.1197 148.929 83.5757 149.353C83.9341 149.712 84.2599 150.104 84.553 150.529C85.4 151.671 86.1982 152.847 86.9149 154.071C87.5338 155.034 89.521 158.772 90.8892 158.152C91.1173 158.038 91.2964 157.826 91.3779 157.597C91.5733 157.14 91.7199 156.667 91.8177 156.161C92.5832 152.667 93.2022 148.88 94.7496 145.909C95.3848 144.586 96.3458 143.46 97.0462 142.203C97.8118 140.701 98.1376 139.003 97.9584 137.322C97.877 136.245 97.6163 135.167 97.4697 134.09C97.2091 132.474 97.1766 130.841 97.372 129.225C97.6652 127.233 98.3493 125.307 99.3918 123.593C100.613 121.373 102.91 119.332 105.06 118.973C105.63 118.924 106.2 118.957 106.754 119.071C107.455 119.185 108.139 119.365 108.806 119.61C109.605 120.002 110.354 120.491 111.038 121.063C112.211 122.124 113.204 123.348 114.002 124.719C115.289 126.695 116.348 128.817 117.162 131.037C118.433 134.416 118.531 137.502 118.612 141.109C118.612 143.248 118.677 145.403 118.563 147.557C118.4 150.365 118.156 153.173 118.107 156.014C118.026 157.711 117.895 159.409 117.847 161.107C117.765 163.017 117.781 164.943 117.716 166.837C117.635 168.551 117.456 170.265 117.325 171.979C117.097 175.75 116.804 179.521 116.56 183.292C116.56 183.749 116.495 184.222 116.381 184.663C115.941 184.239 115.534 183.798 115.159 183.341C114.507 182.672 113.954 181.921 113.481 181.121C112.08 178.329 112.292 174.624 112.471 171.195C112.634 168.551 112.781 165.89 113.009 163.229C113.172 161.352 113.432 159.458 113.563 157.581C113.693 155.703 113.758 153.81 113.693 151.916C113.677 150.953 113.465 150.006 113.074 149.141C112.732 148.472 111.755 147.443 111.25 148.553C110.973 149.778 110.842 151.018 110.875 152.275C110.794 154.479 110.875 156.683 110.777 158.887C110.614 161.711 110.728 164.551 110.5 167.343C110.24 169.808 110.077 171.457 109.686 173.677C109.572 174.33 109.442 174.966 109.295 175.603C109.295 175.832 109.1 176.076 109.214 176.289C109.246 176.338 109.279 176.37 109.311 176.403C109.36 176.436 109.393 176.452 109.442 176.452C109.491 176.452 109.539 176.452 109.588 176.436C109.637 176.419 109.686 176.387 109.719 176.354C109.8 176.223 109.849 176.076 109.865 175.93C110.598 172.795 111.087 169.612 111.299 166.396C111.429 164.274 111.38 162.152 111.478 160.029C111.641 156.65 111.429 152.569 111.689 149.549C111.689 149.402 111.738 149.255 111.771 149.108C111.787 149.01 111.82 148.896 111.869 148.798V148.749L111.934 148.782C112.032 148.863 112.113 148.945 112.194 149.043L112.26 149.125C112.39 149.321 112.504 149.533 112.602 149.745C112.52 149.582 112.602 149.81 112.651 149.876C112.699 149.941 112.716 150.071 112.748 150.169C112.83 150.496 112.895 150.822 112.927 151.149C113.041 152.455 113.041 153.777 112.96 155.099C112.911 157.515 112.618 159.932 112.374 162.331C112.129 164.878 111.999 167.424 111.836 169.971C111.673 173.416 111.299 177.742 112.716 180.941C113.025 181.643 113.432 182.296 113.954 182.851C114.459 183.439 114.947 184.043 115.485 184.614C116.25 185.594 117.016 185.594 117.114 184.141C117.244 183.422 117.244 182.606 117.342 181.676C117.586 178.705 117.879 175.75 118.107 172.779C118.27 170.804 118.531 168.828 118.661 166.837C118.759 163.898 118.742 160.944 118.97 158.005C119.133 155.703 119.117 153.385 119.296 151.133C119.573 147.672 119.671 144.211 119.557 140.734C119.475 135.983 119.003 132.49 116.869 128.164C116.153 126.662 115.322 125.209 114.361 123.854C113.481 122.401 112.325 121.112 110.957 120.1C110.37 119.643 109.719 119.267 109.034 118.957C107.927 118.549 106.754 118.32 105.565 118.271C104.034 118.402 102.601 119.055 101.477 120.1C99.8804 121.52 98.6262 123.299 97.8444 125.291C97.0788 127.038 96.6716 128.915 96.6065 130.809C96.6553 132.849 96.8833 134.89 97.2743 136.898C97.5512 138.612 97.2743 140.375 96.5087 141.926C95.8083 143.117 94.9125 144.227 94.2772 145.435C92.7461 148.406 92.1109 151.737 91.4105 154.969C91.2639 155.671 91.101 156.356 90.8892 157.026C90.8241 157.173 90.7589 157.303 90.6775 157.434H90.6286H90.5472L90.3354 157.32C89.293 156.291 88.4134 155.116 87.7293 153.81C87.0778 152.716 86.3936 151.655 85.6281 150.627C85.2372 150.104 84.8625 149.565 84.4227 149.092C83.5106 148.21 82.3867 147.59 81.1651 147.247C80.5787 147.068 79.9923 146.921 79.4059 146.79C79.1453 145.631 78.8684 144.488 78.5752 143.346C77.5165 138.726 75.9365 133.567 75.3338 129.274C75.1058 127.429 74.9918 125.552 75.0081 123.691C75.0081 122.858 75.0081 122.075 75.1058 121.308C75.3012 121.095 75.4804 120.9 75.6596 120.671C76.9138 119.283 77.7445 117.569 78.054 115.741C78.1517 115.219 78.1191 114.664 78.0051 114.157C77.9725 114.06 77.9074 113.962 77.826 113.896C77.7445 113.831 77.6631 113.766 77.549 113.733C77.4513 113.7 77.3373 113.7 77.2396 113.717C77.1418 113.733 77.0441 113.782 76.9464 113.847C76.4414 114.402 76.0505 115.039 75.7736 115.725C75.0895 117.455 74.6497 119.267 74.4543 121.112L74.1122 121.455C70.6591 124.328 66.5055 126.205 62.0751 126.923C59.0617 127.462 55.9832 127.691 52.7907 128.115C50.038 128.425 47.2689 128.621 44.4999 128.735C42.0404 128.817 39.5645 128.735 37.105 129.062C33.3424 129.584 29.7426 130.972 26.599 133.11C25.1982 134.155 23.8625 135.281 22.6083 136.506C20.8981 138.171 19.3344 139.967 17.9173 141.893C15.2623 145.239 13.0145 148.912 11.239 152.798C10.392 154.74 9.65907 156.732 8.99125 158.723C8.73063 159.572 8.47002 160.405 8.22569 161.237C8.06281 161.825 7.81848 162.38 7.52529 162.903C7.36241 163.164 6.75974 164.192 6.75974 163.67C7.9325 159.768 9.13784 155.736 10.4735 151.883C12.0535 147.329 14.3664 142.138 17.1191 138.383C19.3995 135.641 22.1685 133.371 25.2959 131.674C27.4623 130.449 29.6775 129.356 31.9742 128.409C34.5151 127.397 37.1376 126.548 39.6948 125.568C41.568 124.915 43.4412 124.246 45.2655 123.43C46.8129 122.809 48.2625 121.977 49.5656 120.916C50.9501 119.561 52.0903 117.961 52.9047 116.198C53.54 114.68 53.9635 113.08 54.1426 111.448C54.2404 110.746 54.3055 110.027 54.3218 109.309C54.3218 108.362 54.1915 107.399 54.0775 106.452C53.9309 105.081 53.54 103.759 52.9373 102.534C52.4324 101.359 51.6668 100.298 50.6895 99.4654C50.1194 98.9594 49.3213 98.388 48.9629 98.1105C48.2625 97.5228 47.4807 97.0331 46.6663 96.6576C46.5685 96.2005 46.4057 95.7598 46.1613 95.368C45.6075 94.4701 44.8094 93.7518 43.8647 93.3274C43.3109 93.0988 42.4639 92.756 41.9915 93.3274C41.3563 94.2579 42.8385 95.2537 43.0991 95.7271C43.5389 96.3311 43.9298 97.0004 44.2556 97.686C43.7507 97.6371 43.2457 97.4902 42.7896 97.2943C41.8775 96.8045 41.0142 96.2332 40.1998 95.5965C39.2551 95.0251 38.2289 94.5681 37.1701 94.2416C35.8671 93.8498 34.5803 93.409 33.3261 92.8866C31.5995 92.0704 30.0033 91.042 28.5536 89.8176C27.6577 89.0014 26.8759 88.0546 26.2569 87.0098C25.8823 86.2915 25.6217 85.5079 25.4914 84.708C25.3611 82.8797 25.9149 81.0677 27.0225 79.6148C27.6089 79.0271 28.2441 78.5047 28.9608 78.0803C30.101 77.3783 31.4855 77.1335 32.8049 77.4273C33.7007 77.5252 34.564 77.8517 35.297 78.4068L35.4436 78.521C35.6716 78.7006 35.8996 78.8965 36.1277 79.0761C36.1928 79.1414 36.2906 79.1903 36.4046 79.1903C36.5023 79.1903 36.6001 79.1577 36.6815 79.0761C36.7467 79.0108 36.7955 78.9128 36.7955 78.7986C36.7955 78.7006 36.7467 78.6027 36.6815 78.521L36.5675 78.4231C36.6163 78.3088 36.6163 78.1782 36.5675 78.0639C36.486 77.8191 36.4046 77.5905 36.3069 77.362C35.9811 76.4968 35.639 75.6316 35.3458 74.7501C34.8572 73.2156 34.1894 71.7137 33.6681 70.5057C33.1306 69.1671 32.5117 67.8448 31.8113 66.5878C30.7199 64.7105 29.6286 62.8332 28.6513 60.8905C28.3419 60.2865 27.8858 59.405 27.7555 59.0785C27.3808 58.0827 27.0714 57.0543 26.8433 56.0095C26.5664 53.822 26.6153 51.6182 26.9736 49.4307C27.4297 47.5044 28.0324 45.6271 28.8142 43.7988C29.7426 41.497 31.1923 38.6402 32.5117 36.1099C34.0428 33.2531 35.297 30.2167 37.1701 27.5558C37.9846 26.4131 38.9456 25.3847 40.0206 24.4868C41.7635 22.9523 44.5814 21.8259 46.8617 20.9934C50.5266 19.6711 53.426 20.6016 55.9344 20.6832C57.3026 20.6342 58.6708 20.7975 59.9902 21.1729C61.4724 21.7933 62.8732 22.5605 64.1763 23.4747C65.1536 24.1277 65.854 24.8133 66.8964 25.6459C69.0954 27.4416 71.6689 28.7965 73.1512 30.9187C73.2815 31.1146 73.3955 31.3105 73.4932 31.4411L73.3466 31.2452C72.4834 30.2331 72.0761 30.2984 70.8708 30.7391C69.9912 31.033 69.1768 31.4574 68.4276 31.9961C68.0041 32.3553 67.6131 32.7797 67.2874 33.2205C66.8964 33.7428 66.5707 34.2979 66.196 34.8203C65.626 35.6038 65.1536 36.4527 64.8115 37.3669C64.6812 37.6281 64.6486 37.9056 64.7138 38.1831C64.779 38.2974 64.893 38.379 65.007 38.4117C65.1373 38.4443 65.2676 38.428 65.3653 38.3627C65.8214 38.0525 66.2449 37.6607 66.587 37.22C68.1832 35.2937 70.1541 33.7102 72.3531 32.5348C72.1739 32.6165 72.3531 32.5348 72.4508 32.5348H72.3531C72.63 32.4206 72.9069 32.3389 73.1838 32.2736C73.705 32.9756 74.2425 33.8081 74.7637 34.6244C75.4641 35.5875 76.246 36.4854 77.1093 37.3179C78.1191 38.3137 79.0476 39.3748 79.9597 40.4685C80.4972 41.0726 81.4908 42.1989 81.784 42.5744C82.9242 44.2558 83.9015 46.0352 84.7159 47.8962C85.5466 49.6756 86.2633 51.5203 86.8497 53.3976C87.485 55.634 87.941 57.9195 88.5763 60.1559C89.0649 61.8374 89.8305 63.5841 90.3843 64.9227C90.9055 66.2776 91.329 67.6489 91.6874 69.0528C92.0131 70.3751 92.5181 71.6484 92.7624 72.987C92.9416 73.8849 92.9741 74.799 92.8601 75.7132C92.7624 75.3704 92.6647 75.0276 92.5832 74.6848C91.7688 71.6158 91.1336 68.5304 90.1725 65.4941C89.6024 63.7963 88.9835 62.1312 88.446 60.4171C87.6804 57.9521 86.9637 55.4871 86.0027 53.0711C85.2372 51.1611 84.3576 49.2348 83.478 47.3738C82.8591 45.7577 81.9143 44.2885 80.709 43.0315C80.1063 42.5744 79.4385 42.2153 78.7381 41.9704C78.8033 41.8561 78.8684 41.7419 78.9336 41.6276C78.9987 41.5133 78.9336 41.5786 78.9336 41.5786C79.015 41.4643 79.0476 41.3337 79.0639 41.1868C79.0639 41.0889 79.0313 40.9909 78.9661 40.9093C78.901 40.8277 78.8195 40.7787 78.7218 40.7461C78.3146 40.6971 78.3309 40.8767 78.1191 40.9909C77.8259 41.2032 77.5002 41.3664 77.1581 41.5133C76.4089 41.3501 75.627 41.2685 74.8615 41.2685C74.2425 41.3338 73.6724 41.6113 73.2163 42.0357C72.3205 42.8193 71.4898 43.6682 70.7405 44.566C70.317 45.0231 69.8284 45.4149 69.3071 45.7577C68.9977 45.121 68.7696 44.4517 68.5904 43.7661C68.5904 43.6192 68.5253 43.4559 68.3624 43.3906C68.3135 43.3743 68.2484 43.3743 68.1995 43.3743C68.1507 43.3906 68.1018 43.407 68.0529 43.4396C68.0041 43.4723 67.9715 43.5212 67.9552 43.5702C67.9389 43.6192 67.9226 43.6682 67.9226 43.7335C67.9063 44.2722 67.9715 44.8109 68.0855 45.3496C68.1995 45.7577 68.3787 46.1495 68.5904 46.525C68.5904 46.5576 68.6067 46.5739 68.623 46.5902L68.6719 46.6882C69.3886 48.0105 70.4147 49.1369 71.6527 49.9858C72.3693 50.4102 73.1186 50.7693 73.8842 51.0958C74.5194 51.308 75.0569 51.6998 75.4641 52.2222C75.9365 52.8425 76.2785 53.5445 76.4903 54.2954C76.9627 55.4545 77.1093 56.7278 76.9301 57.9685C76.8812 58.1317 76.7998 58.2623 76.6858 58.3766C76.6532 58.3113 76.6369 58.2623 76.6043 58.197C76.4577 57.1685 76.1645 56.1728 75.741 55.2423C75.399 54.6872 74.7637 54.3771 74.3565 55.0953C74.1774 55.5198 74.0633 55.9605 73.9982 56.4176C73.9819 56.5645 73.9656 56.7115 73.9493 56.8584L73.8516 56.9074C73.1512 57.2828 72.4182 57.593 71.6689 57.8215C69.9912 58.0827 68.2972 56.6788 67.0593 58.8663C66.6847 59.5846 66.4892 60.3682 66.5055 61.1681C66.4567 61.5109 66.4567 61.87 66.5055 62.2128C66.5544 62.3271 66.6358 62.4414 66.7336 62.523C66.8313 62.6046 66.9453 62.6536 67.0756 62.6862C67.2059 62.7026 67.3362 62.7026 67.4502 62.6699C67.5643 62.6373 67.6783 62.5556 67.776 62.474C68.3461 61.8863 68.8999 61.2823 69.4049 60.6293C69.7795 60.0253 70.3496 59.5683 71.0174 59.3234L71.1477 59.2907C71.1477 59.3234 71.1477 59.3724 71.1477 59.405C70.8219 60.564 69.8609 61.2823 69.0465 62.0986C68.9162 62.2291 68.737 62.3271 68.737 62.523C68.737 62.572 68.7533 62.6209 68.7696 62.6536C68.7859 62.7026 68.8185 62.7352 68.8673 62.7679C68.8999 62.8005 68.9488 62.8168 68.9976 62.8332C69.0465 62.8495 69.0954 62.8332 69.1442 62.8332C69.2094 62.8495 69.2746 62.8495 69.3397 62.8332C71.0989 62.2945 72.9394 59.8947 73.9005 59.5193C73.9982 59.5193 74.0959 59.5193 74.1936 59.5193L74.2425 59.5683C74.5846 60.1886 74.8778 60.8579 75.1221 61.5272C75.513 62.5067 75.7573 63.1433 75.3827 63.7473C75.0081 64.335 74.2262 64.8901 73.6236 65.4941C72.6951 66.4082 71.9947 67.5183 71.5549 68.759C71.0663 70.4567 70.431 72.1055 69.6166 73.6563C68.9162 74.9623 68.0855 76.105 67.5317 77.264C67.4991 77.3293 67.4991 77.411 67.5154 77.4763C67.5317 77.5416 67.548 77.6069 67.5968 77.6722C67.6457 77.7375 67.6946 77.7701 67.7597 77.8028C67.8249 77.8354 67.89 77.8517 67.9715 77.8354C68.2158 77.8028 68.4438 77.7048 68.6393 77.5579C68.8673 77.411 69.0954 77.264 69.3071 77.1008C69.242 77.1987 69.1768 77.2967 69.1442 77.411C69.0954 77.8844 69.6655 77.8681 69.9912 77.8844H69.9261C70.4962 77.9334 71.0826 77.9334 71.6527 77.8844C73.6561 77.7701 75.6596 77.5089 77.6305 77.1171C79.2105 76.807 80.709 76.2193 82.0935 75.4031C83.3966 74.4726 84.5531 73.3298 85.5141 72.0565L85.8887 71.5668C85.9539 71.4852 86.019 71.4035 86.0679 71.3056C87.0289 72.0728 87.8759 72.938 88.6251 73.9012C89.5536 74.8807 90.596 75.7622 91.6874 76.5458C91.8665 76.6927 92.0783 76.807 92.3063 76.8723H92.3878C92.5181 77.3457 92.6647 77.8028 92.795 78.2762C93.0556 79.2393 93.137 80.2351 93.023 81.2309C92.8438 82.896 92.4529 84.5448 91.8828 86.1119C91.2802 88.0872 90.3843 89.9809 89.2441 91.7113L88.7392 92.4295C88.4134 92.3642 88.0714 92.3153 87.7456 92.3153C86.8497 92.3153 85.9376 92.4132 85.0743 92.6254C83.6735 92.903 82.289 93.1641 80.8882 93.3927C79.0476 93.8171 77.207 94.2579 75.3501 94.6823C72.5811 95.2863 69.7795 95.7434 66.9616 96.0209C65.9517 96.1352 64.9581 96.2168 63.9482 96.2821H62.466C61.7004 96.2821 61.0001 96.3474 60.2508 96.3637H59.6155C59.0617 96.3637 58.5242 96.3148 57.9867 96.2495C57.3677 96.2005 57.2211 96.1352 56.5533 96.0536C56.2113 96.0536 55.7389 95.8414 55.5434 96.2332C55.3643 96.7719 56.0972 96.8535 56.4719 96.8861C57.0746 96.9678 57.6935 97.0167 58.3125 97.0331H58.6382C58.9314 97.0331 59.2409 97.082 59.5504 97.082C61.7167 97.082 63.8994 96.9514 66.0657 96.9841C67.9552 96.9841 69.8284 97.1963 71.7178 97.2453C73.819 97.2453 75.9039 97.1473 77.9888 97.0494C80.7904 96.8372 85.4489 96.478 87.6153 94.6497C88.1039 94.2579 88.56 93.7845 88.9346 93.2784C89.0161 93.3927 89.0812 93.507 89.1301 93.6376C89.3581 94.2252 89.4233 94.8456 89.3418 95.4659C89.3093 96.2332 89.2278 97.0167 89.0812 97.7677C88.7555 99.7103 88.3808 101.604 87.9247 103.563C86.752 108.183 86.2796 112.949 86.5077 117.7C86.6217 120.54 86.9963 123.381 87.6316 126.156C87.6316 127.805 87.6316 129.764 88.8369 131.037C89.1464 131.298 89.521 131.478 89.9282 131.559C90.3354 131.641 90.7426 131.625 91.1336 131.51C92.1434 131.053 92.9578 130.253 93.4302 129.258C94.5378 127.103 95.45 124.834 96.1504 122.499C97.1603 119.381 97.991 116.198 98.7728 112.998C99.8804 108.509 100.776 104.004 101.737 99.4817C102.731 94.764 103.415 89.9972 103.822 85.1978C104.181 81.737 104.295 78.2762 104.181 74.799C104.067 72.987 103.855 71.1913 103.529 69.4119C103.252 67.6162 102.877 65.8369 102.356 64.0902C100.288 57.3971 96.9811 51.1448 93.3325 45.1863C92.0294 42.8683 90.5798 40.6155 89.0161 38.4443C86.8823 35.5385 84.4716 32.845 82.1098 30.1351C78.9824 26.658 75.8225 23.2135 72.63 19.818C70.8219 17.957 69.0954 15.9817 67.1734 14.2677C65.8866 13.125 64.5346 12.0639 63.199 11.0028C60.5928 8.81528 58.345 7.05223 55.9018 5.17491C54.0938 3.80365 52.074 2.72623 49.924 1.99162C48.9466 1.58351 47.9042 1.33864 46.8617 1.22437C45.689 1.01215 44.4673 1.22437 43.4412 1.8447C41.9101 2.80785 40.6559 4.22808 39.2225 5.38713C36.8607 7.19915 34.0102 9.43561 31.5995 11.6394C29.6449 13.4025 27.8532 15.3124 26.2244 17.3693C23.8625 20.2425 21.6799 23.2462 19.6113 26.3315C17.9661 28.7802 16.2884 31.2125 14.6922 33.6939C13.4054 35.7834 12.1838 37.9056 11.0273 40.0604C9.80567 42.3948 8.74692 44.8272 7.89992 47.3249C7.13437 49.5776 6.64571 51.9447 6.07562 54.2465C5.4078 57.2175 4.95173 60.2376 4.72369 63.2902C4.54452 66.751 4.49565 70.2119 4.64225 73.7053C4.854 79.3699 5.52182 85.0019 5.99418 90.6175C6.23851 94.0783 6.33624 97.5391 6.46655 101.016C6.54799 104.999 6.59685 108.983 6.46655 112.966C6.36882 115.823 6.17335 118.647 6.07562 121.504C5.97789 124.018 5.96161 126.531 5.94532 129.045C5.89645 131.87 5.73357 134.71 5.61955 137.502C5.50553 140.293 5.45667 143.378 5.29378 146.317C4.95173 151.981 4.41421 157.613 3.76268 163.229C2.73651 172.452 1.54745 181.561 -0.846941 190.72C-1.33559 192.63 -1.80795 194.556 -2.24774 196.449C-2.68752 198.327 -2.91557 200.106 -3.2902 201.934C-4.31637 206.636 -5.2448 211.354 -5.9452 216.121C-6.35241 219.026 -6.71076 221.965 -7.00395 224.887C-7.15054 226.878 -7.15055 228.886 -7.11797 230.894C-7.15055 234.224 -6.71076 237.538 -5.84747 240.738C-5.60315 241.832 -5.09821 242.876 -4.39781 243.758C-4.15348 244.035 -3.81143 244.215 -3.45308 244.264C-3.40422 244.264 -3.37164 244.264 -3.32277 244.264C-3.15989 244.248 -3.0133 244.199 -2.8667 244.133C-2.5898 243.921 -2.34547 243.676 -2.10114 243.431C-2.50835 248.933 -3.89286 272.946 -3.95802 277.648C-4.00688 280.504 -3.89286 283.361 -3.63225 286.202C-3.22504 289.744 -2.54093 293.254 -1.61249 296.698C-0.863226 299.572 0.244382 302.347 1.69405 304.942C3.07856 307.195 5.03317 309.056 7.36241 310.329C10.0337 311.864 12.933 311.815 15.7998 311.097C18.9923 310.215 22.0382 308.86 24.8236 307.048C27.3971 305.563 29.9055 303.979 32.3977 302.33C34.8898 300.698 37.1701 299.082 39.5808 297.515C45.0211 294.005 50.494 290.56 55.8692 286.969C63.1827 282.137 70.6265 277.484 77.8097 272.456C83.0708 269.143 88.0876 265.47 92.8276 261.454C96.6553 258.075 100.19 254.353 103.366 250.369C105.19 248.198 107.047 246.027 108.692 243.709C109.605 242.501 110.403 241.211 111.087 239.873C112.569 236.706 113.84 233.474 114.931 230.143C115.859 227.221 116.853 224.332 117.798 221.41C119.052 217.312 121.316 213.492 121.691 209.15C122.163 206.685 122.033 204.204 121.381 201.837ZM81.9469 216.904C81.0673 221.148 79.7154 225.262 77.9237 229.196C76.6206 232.2 74.9918 235.057 73.086 237.734C70.9197 240.738 68.2484 243.938 65.0233 245.945C63.6062 246.941 62.0262 247.627 60.3322 247.986C59.3223 248.247 58.2962 248.361 57.27 248.329C56.3579 248.296 55.4783 247.953 54.7616 247.366C52.7093 245.684 52.5627 242.223 53.1328 239.432C53.5563 237.718 54.1589 236.053 54.9408 234.469C55.6249 232.87 56.3904 231.302 57.2374 229.8C58.3939 227.907 59.6318 226.062 60.9675 224.283C62.1891 222.699 63.4107 221.1 64.7464 219.581C66.5055 217.655 68.4275 215.892 70.4962 214.309C73.0209 212.252 75.8551 210.619 78.8847 209.493C80.0575 208.987 81.3442 208.726 82.631 208.758C82.8753 208.758 83.1197 208.807 83.3966 208.856C83.0382 211.517 82.5822 214.129 81.9469 216.904ZM75.7573 117.635C75.9691 116.835 76.246 116.067 76.6043 115.333C76.7346 115.104 76.8649 114.892 76.9952 114.664C77.0767 114.533 77.1744 114.419 77.3047 114.321C77.3373 114.386 77.3862 114.435 77.435 114.5C77.435 114.304 77.435 114.598 77.435 114.664C77.435 114.729 77.435 114.892 77.435 115.006C77.4025 116.084 77.1418 117.145 76.6695 118.124C76.2623 118.892 75.7573 119.626 75.2035 120.312C75.3338 119.398 75.513 118.5 75.7573 117.635ZM70.9197 32.3389C70.1867 32.7634 69.5026 33.2531 68.8511 33.8081C68.1832 34.3468 67.548 34.9345 66.9453 35.5712C66.4729 36.0609 66.0494 36.616 65.5771 37.1057C65.8377 36.469 66.1798 35.865 66.5707 35.2937C67.6946 33.6286 68.3298 32.4042 70.203 31.637C70.7079 31.4248 71.2129 31.2452 71.7341 31.0983C71.8481 31.0656 71.9784 31.0493 72.1087 31.0493C72.2553 31.0983 72.3368 31.1636 72.63 31.4574L72.7114 31.539C72.0762 31.7186 71.4735 31.9798 70.9197 32.3389ZM73.9982 42.2479C74.2099 42.0684 74.4706 41.9378 74.7475 41.8725C75.0244 41.8072 75.3175 41.7908 75.5944 41.8561H75.9854C75.399 42.0194 74.8289 42.199 74.2751 42.4275C73.9005 42.5581 73.5421 42.7213 73.1838 42.9009C73.4118 42.656 73.6724 42.4438 73.933 42.2479H73.9982ZM72.5485 44.4844C72.972 44.1416 73.4118 43.8477 73.8842 43.5702C74.1611 43.4396 74.4543 43.3253 74.7475 43.2274C75.5293 42.9009 76.3437 42.705 77.1744 42.6397C77.1093 42.705 75.8876 44.2232 71.6038 45.3496H71.5549C71.8318 45.0884 72.1413 44.7619 72.4834 44.4844H72.5485ZM74.6171 57.2338H74.7312H74.8615L74.7475 57.5603C74.6823 57.7236 74.6497 57.8215 74.6171 57.9195C74.5683 57.6583 74.5683 57.4461 74.5846 57.2338H74.6171ZM91.8665 75.7459C91.215 75.2561 90.596 74.7337 90.0097 74.1624C88.9509 73.2156 88.2017 71.9912 87.1429 71.0444C86.9149 70.8485 86.6868 70.6689 86.4425 70.5057C86.2959 70.4077 86.133 70.2608 85.9539 70.3261C85.905 70.3424 85.8561 70.3588 85.8235 70.3914C85.791 70.4241 85.7584 70.4567 85.7258 70.5057C85.6444 70.5383 85.5792 70.5873 85.5304 70.6689C85.4978 70.7342 85.4652 70.7995 85.4326 70.8648L84.944 71.5178C84.0481 72.6769 82.9731 73.689 81.7677 74.5215C80.2529 75.3867 78.5915 75.9907 76.8486 76.2682C75.2524 76.5784 73.6561 76.807 72.0436 76.9376C71.4246 77.0192 70.8057 77.0518 70.1867 77.0518C70.431 76.66 70.7405 76.1213 71.0011 75.7132C71.7667 75.0602 72.4834 74.3583 73.2163 73.6726C73.819 73.0523 74.4705 72.481 75.1547 71.9423C75.9039 71.3546 76.702 70.8648 77.549 70.4567C78.7544 69.9833 79.9923 69.6405 81.2628 69.4283C82.0284 69.363 82.7939 69.3303 83.5595 69.363C84.0644 69.4283 84.5856 69.4446 85.0906 69.4446C85.3675 69.4446 85.6444 69.3793 85.8887 69.265C86.1493 69.1507 86.3774 68.9875 86.5565 68.7916C87.2081 68.057 86.4751 67.0775 85.8887 66.5552C85.4652 66.196 85.0254 65.8369 84.553 65.5267C83.9504 65.1839 83.2988 64.9227 82.6799 64.6125C81.7514 64.1228 80.7416 63.78 79.7154 63.6004C77.9074 63.4208 76.8161 64.5146 75.2198 65.2492C74.5683 65.4777 74.0145 65.9022 73.6073 66.4572C73.2001 67.0122 72.9883 67.6815 72.972 68.3672C72.972 68.9712 72.9069 69.5589 72.7766 70.1466C72.2553 71.9096 71.4898 73.591 70.4799 75.1419C70.0238 75.5337 69.6003 75.9091 69.242 76.1866L69.0791 76.3172C68.8999 76.4478 68.7044 76.5784 68.509 76.709C68.737 76.3172 69.0465 75.8275 69.3234 75.3867C70.1704 74.0808 70.8545 72.6932 71.392 71.224C71.7504 70.016 72.1902 68.8243 72.7114 67.6815C73.1512 66.849 73.7376 66.0981 74.4543 65.4777C75.1384 64.8411 76.0505 64.2207 76.1645 63.176C76.1971 62.7352 76.132 62.2945 75.9691 61.8863C75.7573 61.2823 75.513 60.6947 75.2687 60.107C75.1547 59.8947 74.9266 58.9969 74.3891 58.801C74.0796 58.7357 73.7376 58.7847 73.4607 58.9316C72.4834 59.6336 71.5549 60.4171 70.6754 61.2334C70.9034 60.9885 71.1151 60.7436 71.2943 60.4661C71.5223 60.0906 71.6852 59.6989 71.7992 59.2744C71.897 58.8826 71.7992 58.5725 71.3432 58.5725C70.8382 58.6214 70.3659 58.801 69.9749 59.0948C69.584 59.4213 69.2257 59.7968 68.9162 60.2212C68.5253 60.7273 67.4503 61.87 67.3851 61.9027L67.2059 61.968C67.2059 61.968 67.2059 61.968 67.2059 61.919C67.2059 61.87 67.2059 61.6741 67.2059 61.6251C67.2059 61.0375 67.3036 60.4335 67.3525 60.0906C67.4014 59.7152 67.548 59.3724 67.7597 59.0622C67.9715 58.752 68.2647 58.5072 68.5904 58.3276C69.1931 58.197 69.8121 58.2133 70.3984 58.4092C71.0011 58.5398 71.6364 58.5072 72.239 58.3439C72.8417 58.1317 73.4281 57.8705 73.9982 57.5767C73.9982 57.7073 73.9982 57.8542 73.9982 58.0011C73.9982 58.3602 74.047 58.9479 74.5357 58.9153C74.6171 58.8989 74.6986 58.8663 74.78 58.8173C74.8452 58.7683 74.9103 58.7031 74.9592 58.6214C75.1384 58.3276 75.285 58.0011 75.3827 57.6583C75.4479 57.3808 75.7085 57.1196 75.5782 56.8421C75.4478 56.5645 75.2198 56.6625 75.0406 56.6625C74.9266 56.6462 74.8126 56.6462 74.6986 56.6625C74.7474 56.336 74.7963 56.0095 74.894 55.683C74.9103 55.5524 74.9592 55.4381 75.0406 55.3402C75.0569 55.3239 75.0732 55.3075 75.0895 55.2912C75.399 55.5851 75.627 55.9605 75.7085 56.385C75.8713 57.2012 76.0994 58.0011 76.36 58.7847C76.6858 59.2418 77.2559 58.9153 77.4513 58.5235C78.0703 57.3155 77.5816 55.5361 77.2233 54.2954C77.0278 53.5771 76.7183 52.8752 76.3274 52.2385C76.0505 51.7978 75.7085 51.406 75.3012 51.0795C74.8126 50.7857 74.2914 50.5245 73.7701 50.3122C73.0372 50.0021 72.3368 49.6103 71.6689 49.1695C70.7894 48.4512 70.0238 47.6024 69.4212 46.6392C71.1151 46.2311 72.7928 45.7087 74.438 45.1047C75.4479 44.7292 76.3763 44.2232 77.2396 43.5702C77.6631 43.1784 78.0051 42.803 78.3798 42.4928C79.0639 42.7213 79.6991 43.0478 80.2855 43.4559C81.1976 44.3701 81.9469 45.4312 82.4519 46.6229C83.6735 49.3328 84.9114 51.912 85.8561 54.524C86.752 56.8257 87.3384 59.2744 88.1528 61.6415C88.7066 63.3066 89.3093 64.9554 89.8305 66.6368C90.5146 69.0855 91.0847 71.5505 91.6874 74.0155C91.8665 74.7174 92.0783 75.4194 92.29 76.105C92.0946 75.9418 91.9806 75.8438 91.8665 75.7459ZM72.2065 73.6074C72.7277 72.5626 73.1675 71.4688 73.4932 70.3424C73.6398 69.6242 73.7213 68.8896 73.7539 68.155C73.819 67.5999 74.0308 67.0939 74.3891 66.6694C75.0244 66.0164 76.3274 65.6247 77.2884 64.988C77.7282 64.6778 78.2332 64.4819 78.7707 64.384C79.3082 64.286 79.8457 64.3187 80.3669 64.4493C81.2954 64.7594 82.2075 65.1349 83.0708 65.592C83.7061 65.8369 84.3087 66.1797 84.8625 66.5878C85.2697 66.8816 85.6444 67.2245 85.9864 67.6162C86.1005 67.7632 86.1656 67.9264 86.2145 68.106V68.2039V68.2529C85.7584 68.7426 85.3512 68.7426 84.3739 68.661C81.8166 68.3998 79.243 68.8406 76.9301 69.9507C75.1709 70.9301 73.591 72.1871 72.2065 73.6563V73.6074ZM87.4361 93.8498C85.7584 95.3843 82.6799 95.7271 80.3018 96.0209C77.6305 96.2985 74.9266 96.3638 72.239 96.3964C71.3595 96.3964 70.4799 96.3311 69.6003 96.2658C71.1314 96.0536 72.6625 95.8087 74.2099 95.4986C77.5165 94.8129 80.7741 93.9641 84.097 93.3764C85.5629 93.0988 87.2569 92.7071 88.3483 92.8866C88.0714 93.2294 87.7619 93.5559 87.4198 93.8498H87.4361ZM116.429 189.463C116.429 189.43 116.429 189.414 116.429 189.381V189.234C116.462 189.071 116.495 188.891 116.543 188.728C116.543 188.744 116.543 188.777 116.543 188.793C116.771 189.805 116.951 190.834 117.065 191.862L116.902 191.438C116.739 190.915 116.543 190.377 116.348 189.903L116.429 189.463ZM116.332 192.009C116.332 191.879 116.332 191.764 116.332 191.634C116.446 191.96 116.56 192.27 116.657 192.532C117.195 193.854 117.553 195.258 117.7 196.678C117.814 197.984 117.439 199.91 117.065 200.269H117.032H116.983H116.918C116.56 199.502 116.381 198.653 116.381 197.804C116.234 195.862 116.332 193.919 116.332 192.009ZM43.1643 94.4701C42.9362 94.2742 42.7571 94.0294 42.6268 93.7682C42.8385 93.7355 42.6268 93.7682 43.0503 93.8171C43.1643 93.8171 43.6855 94.062 43.4738 93.9477C44.4022 94.3232 45.1677 95.0088 45.6238 95.9067C45.7053 96.1026 45.7867 96.2821 45.8681 96.478C45.6727 96.4944 45.4935 96.576 45.3632 96.7229C45.2655 96.8208 45.2003 96.9514 45.1677 97.082C45.1352 97.2126 45.1189 97.3596 45.1515 97.4902C44.6465 96.3801 43.9787 95.3516 43.1643 94.4701ZM121.104 208.35C121.023 209.411 120.86 210.472 120.599 211.501C119.834 214.08 118.905 216.61 117.814 219.075C116.739 222.144 115.745 225.262 114.752 228.364C114.116 230.404 113.4 232.412 112.634 234.404C111.918 236.363 111.087 238.273 110.142 240.118C107.536 244.607 104.213 248.084 100.874 252.116C98.7402 254.646 96.4762 257.046 94.0655 259.299C89.1301 263.674 83.8364 267.641 78.2495 271.151C75.4641 273.012 72.7277 274.987 69.9261 276.799C65.6097 279.623 61.2607 282.431 56.928 285.255C50.9501 289.254 44.8908 293.091 38.8641 296.992C33.9125 300.355 28.9608 303.751 23.7648 306.738C21.2564 308.321 18.5362 309.513 15.6695 310.28C13.0308 310.966 10.4572 310.966 8.22569 309.807C6.1082 308.73 4.26761 307.146 2.91568 305.187C2.15012 303.995 1.49859 302.738 0.97736 301.416C0.0489221 299.261 -0.667768 297.009 -1.15642 294.723C-2.18259 290.789 -2.80155 286.757 -3.01329 282.692C-3.17618 278.072 -3.09474 273.452 -2.76897 268.849C-2.55722 264.637 -1.92197 237.146 2.70393 213.231C3.09485 211.158 3.56721 209.085 4.13731 207.077C4.59338 205.428 5.1309 203.795 5.61955 202.163C6.69458 198.882 7.78591 195.617 8.94238 192.368C10.5549 187.993 12.2326 183.635 13.9592 179.292C14.7248 177.317 15.4089 175.652 16.3536 173.677C17.5915 171.048 18.9923 168.502 20.3443 165.939C22.6898 161.45 25.2959 157.091 28.1464 152.912C29.9218 150.398 31.795 147.966 33.5215 145.435C35.6227 142.513 37.5285 139.281 38.0497 135.657C38.1637 135.069 38.1149 134.482 37.9194 133.927C37.6588 133.355 37.2027 132.914 36.6326 132.637C35.6228 132.212 34.564 132.702 33.6844 133.208C31.7787 134.367 30.0521 135.788 28.5373 137.436C24.4489 141.909 21.5822 147.313 18.9109 152.716C17.6729 155.344 16.4025 157.956 15.2623 160.633C14.1058 163.294 13.0959 166.135 12.0209 168.91C9.91968 174.281 8.0791 179.749 6.5317 185.316C5.14719 190.817 3.84412 196.335 2.80166 201.902C2.03611 205.657 1.56374 209.46 0.961071 213.247C0.423554 216.627 -0.13025 219.989 -0.570036 223.385C-1.00982 226.764 -1.28673 230.307 -1.64507 233.784C-1.92197 236.608 -2.18258 239.432 -2.41062 242.24L-2.45949 242.37C-2.52464 242.55 -2.62237 242.73 -2.7201 242.893C-2.80155 243.056 -2.91556 243.203 -3.02958 243.35L-3.25762 243.546L-3.45308 243.595L-3.63225 243.562C-4.02317 243.285 -4.33265 242.909 -4.52811 242.468C-5.86376 239.448 -6.27097 235.824 -6.38499 232.314C-6.46643 230.078 -6.49901 227.842 -6.38499 225.621C-6.27097 223.385 -5.91262 221.148 -5.6683 218.928C-5.01676 213.802 -3.844 207.73 -2.67124 202.343C-2.31289 200.596 -2.0197 198.833 -1.67764 197.07C-1.35188 195.486 -0.944669 193.935 -0.570036 192.368C2.01982 182.835 3.40433 173.007 4.47936 163.196C5.11461 157.499 5.65213 151.786 6.01047 146.056C6.14078 143.183 6.22222 140.326 6.31995 137.453C6.43397 134.579 6.58056 131.788 6.64571 128.996C6.67829 126.319 6.71087 123.609 6.8086 120.932C6.90633 118.255 7.18323 112.868 7.18323 112.868C7.18323 112.868 7.24839 102.926 7.05293 97.9636C6.89004 88.6096 5.24492 79.3373 5.22863 69.9833C5.22863 67.6816 5.22863 65.3635 5.39151 63.127C5.65213 59.7478 6.18964 56.4176 7.02035 53.1364C7.49271 51.2427 7.91621 49.3001 8.55146 47.4718C9.18671 45.6434 9.78938 44.1252 10.4898 42.5254C11.1087 41.2685 11.7603 40.0278 12.4444 38.8035C14.7085 34.7876 17.168 30.9024 19.823 27.1477C22.0057 23.8338 24.3675 20.6342 26.8922 17.5652C28.1952 15.9328 29.6123 14.3983 31.1272 12.9454C33.8962 10.3661 37.0561 7.85213 39.6786 5.86054C41.1445 4.68517 42.4639 3.16699 43.8972 2.38341C44.8094 1.87735 45.8681 1.73043 46.878 1.95897C48.0182 2.13854 49.1258 2.46503 50.2009 2.93845C52.2532 3.72202 54.1752 4.83209 55.8855 6.21968C57.7587 7.67256 60.1531 9.54988 62.352 11.3782C63.8179 12.5536 65.3165 13.68 66.7173 14.9696C68.6067 16.6837 70.3007 18.61 72.0924 20.4547C75.3827 23.9481 78.6404 27.5069 81.8655 31.1146C84.9277 34.6897 87.8433 37.8729 90.3029 41.8398C91.8991 44.5823 93.6094 47.2596 95.1894 50.0184C96.183 51.7815 97.0951 53.5935 97.9747 55.4055C99.9456 59.3234 101.412 63.4861 102.34 67.7795C102.698 69.8201 103.024 71.6158 103.187 73.4441C103.382 76.1703 103.382 78.9128 103.187 81.639C102.877 86.3242 102.421 91.0256 101.656 95.3516C101.037 98.9593 100.271 102.583 99.5058 106.191C98.4145 111.611 97.0462 116.965 95.3848 122.222C94.7984 124.115 94.0818 125.96 93.2673 127.772C92.909 128.621 92.4041 129.405 91.7851 130.074C91.5571 130.384 91.215 130.613 90.8404 130.694C90.4657 130.792 90.0585 130.76 89.7165 130.596L89.521 130.482C89.4721 130.417 89.407 130.368 89.3581 130.319C89.0486 129.927 88.8532 129.47 88.7555 128.996C88.5437 127.984 88.4786 126.956 88.5274 125.927C89.293 124.752 89.9608 123.495 90.5146 122.205C91.101 120.851 91.5571 119.43 91.8503 117.977C92.062 116.916 92.6158 112.819 90.7263 113.472C89.8794 113.831 89.0161 115.774 88.6251 117.161C88.1039 119.169 87.8107 121.242 87.7619 123.316C87.485 121.226 87.3221 119.071 87.2081 116.835C87.1429 114.598 87.2569 112.362 87.5175 110.142C87.9085 106.305 89.2278 101.898 89.8142 97.7187C89.9934 96.2658 90.482 93.8824 89.3418 92.7071L89.7979 92.0541C91.3127 89.687 92.4366 87.0914 93.1207 84.3652C93.6745 82.6675 93.87 80.8554 93.7071 79.0761C93.5605 78.2109 93.3488 77.3457 93.0719 76.5131L93.1533 76.4315C93.9189 75.5826 93.5931 73.4278 93.3325 72.1545C93.137 71.3056 92.8438 70.4894 92.6158 69.6568C92.29 68.4651 91.9969 67.2734 91.5896 66.0981C91.0684 64.4656 90.3029 62.8985 89.7328 61.2823C88.7392 58.5235 88.2831 55.6177 87.4361 52.8262C86.7194 50.6551 85.8561 48.5492 84.8462 46.4923C84.3576 45.4149 83.8038 44.3701 83.1848 43.358C82.403 42.1173 81.5071 40.9746 80.4973 39.9135C79.2919 38.379 77.94 37.0567 76.6043 35.6855C76.0994 35.1304 75.627 34.5427 75.1872 33.9224C74.78 33.2694 74.3565 32.6165 73.9005 31.9961C74.0308 31.9635 74.1285 31.8982 74.2262 31.8002C74.2914 31.7349 74.324 31.6533 74.3402 31.5717C74.3565 31.4901 74.3402 31.3921 74.2914 31.3268L74.2425 31.2615C74.2425 31.2452 74.2425 31.2125 74.2425 31.1962C74.2262 31.1799 74.2262 31.1472 74.2099 31.1309V31.1962L74.1611 31.0983C73.8027 30.4943 73.3792 29.9229 72.9069 29.4168C71.3106 27.7681 68.9813 26.3478 67.4502 25.1072C66.7661 24.5685 66.1146 23.9644 65.4305 23.4257C64.5021 22.7075 63.5248 22.0545 62.4986 21.4831C61.4724 20.8301 60.3485 20.3404 59.1595 20.0466C57.4166 19.8343 55.6737 19.7037 53.9309 19.6874C52.2532 19.5568 49.5819 18.5284 44.1579 21.075C42.9362 21.5484 41.7635 22.1198 40.6559 22.8054C39.0922 23.8991 37.7077 25.2378 36.5838 26.7723C35.2155 28.7475 34.0265 30.8534 33.0003 33.0246C32.1533 34.6897 31.2575 36.3221 30.4431 37.9709C29.3843 40.1257 28.3418 42.3132 27.4948 44.566C26.8596 46.1495 26.3872 47.7819 26.0452 49.447C25.8009 51.0305 25.7194 52.614 25.8171 54.2138C25.8497 55.3728 26.0452 56.5156 26.4035 57.6093C26.6153 58.3276 26.8759 59.0132 27.1691 59.6989C27.446 60.2702 27.7555 60.8416 28.0487 61.4129C29.0748 63.4535 30.2639 65.3961 31.3878 67.3714C32.0556 68.5631 32.5605 69.8527 33.1143 71.0934C33.7333 72.5299 34.1568 73.5257 34.6454 75.0766C34.9223 75.8928 35.2644 76.6927 35.5739 77.4926C35.1667 77.1988 34.7269 76.9702 34.2708 76.7906C33.375 76.5131 32.4465 76.3662 31.5181 76.3499C30.7688 76.3825 30.0358 76.5458 29.3354 76.8233C28.0812 77.411 27.0062 78.2925 26.1592 79.3862C25.6054 80.1861 25.1819 81.084 24.9213 82.0308C24.7258 82.7817 24.6118 83.5653 24.6118 84.3326C24.6118 84.708 24.6607 85.0672 24.7584 85.4263C24.7584 85.4263 24.7584 85.3773 24.7584 85.3447C25.0516 86.6343 25.6543 87.8423 26.5013 88.8545C27.2505 89.8339 28.1301 90.6991 29.1074 91.4337C30.1661 92.1847 31.2737 92.854 32.4302 93.4743C34.2871 94.4375 36.372 94.8129 38.2778 95.6128C38.8804 95.8577 39.4505 96.1515 39.988 96.5107C40.8839 97.2126 41.8775 97.784 42.9525 98.1758C43.5063 98.339 44.0764 98.437 44.6465 98.4533C45.6564 101.065 45.6727 103.922 45.5749 107.007C45.4772 110.093 45.6401 113.227 45.917 116.329C45.9822 117.063 46.1125 117.798 46.2753 118.516C46.3568 119.022 46.5523 119.496 46.8617 119.904C47.0246 120.002 47.2038 120.067 47.3993 120.067C47.5947 120.067 47.7739 120.018 47.9368 119.904C49.0118 119.381 49.2561 118.043 49.4679 116.965C49.6308 115.79 49.6959 114.615 49.6633 113.423C49.6633 111.676 49.4027 109.946 48.8978 108.264C48.4906 106.73 47.839 105.195 47.3667 103.645C46.7803 101.832 46.3405 99.9551 46.0473 98.0778C46.3079 97.8983 46.5197 97.6534 46.6337 97.3596C46.7314 97.3596 46.7966 97.4412 47.0246 97.5554C47.7739 98.0125 48.4906 98.5349 49.1584 99.09C50.0705 99.7266 50.885 100.494 51.5528 101.392C52.6115 103.04 53.2305 104.918 53.3934 106.86C53.4748 107.726 53.5074 108.575 53.4911 109.44C53.426 110.533 53.2956 111.627 53.1002 112.721C52.8396 114.255 52.2858 115.708 51.4876 117.047C50.8361 118.239 50.0054 119.316 49.0118 120.263C47.2201 121.797 44.1904 122.989 41.9101 123.854C39.9229 124.54 37.952 125.291 35.9811 125.993C32.9352 127.021 29.9707 128.262 27.1039 129.698C23.4065 131.445 20.0836 133.878 17.2657 136.849C15.0668 139.379 13.5683 142.415 12.1349 145.419C10.3595 149.451 8.89351 153.63 7.73704 157.891C7.16695 159.997 5.94532 163.751 6.01047 164.241C6.01047 164.959 7.44385 165.955 9.07269 160.405C9.44732 159.148 9.83824 157.907 10.3106 156.683C11.4019 153.549 12.819 150.545 14.5619 147.721C15.7672 145.697 17.1029 143.77 18.5525 141.926C20.0674 139.901 21.7776 138.024 23.6508 136.326C24.7747 135.249 25.98 134.253 27.2505 133.371C28.8956 132.359 30.6385 131.51 32.4302 130.809C36.6652 129.192 40.9816 129.535 45.4772 129.339C48.6535 129.176 51.8297 128.899 54.9896 128.474C56.9931 128.229 58.9966 128.05 60.9838 127.74C63.5085 127.348 65.968 126.662 68.3298 125.699C69.9098 124.981 71.4246 124.099 72.8417 123.087C73.3304 122.777 73.7864 122.418 74.2099 122.026C74.0796 123.773 74.0796 125.536 74.2099 127.299C74.5357 132.392 76.132 137.289 77.2721 142.236C77.6468 143.689 78.0051 145.174 78.3309 146.643C77.6794 146.496 77.0278 146.366 76.3763 146.219C74.3565 145.745 72.3368 145.19 70.317 144.684C69.3234 144.423 68.3298 144.146 67.3362 143.852C66.1798 143.46 64.9418 143.297 63.7202 143.346C62.5474 143.607 61.505 144.26 60.7557 145.19C59.5993 146.774 58.7848 148.586 58.3613 150.496C57.6935 152.83 57.2863 155.214 57.1234 157.63C56.9931 159.246 56.7651 161.368 56.0647 162.396C55.8366 162.756 55.5109 163.033 55.1199 163.196C54.729 163.36 54.3055 163.409 53.8983 163.311C53.8983 162.413 53.8983 161.515 53.8006 160.617C53.3608 156.128 52.5464 151.688 51.3573 147.329C50.8198 145.19 50.0054 143.134 48.9141 141.224C48.7838 141.028 48.6046 140.864 48.3766 140.766C48.23 140.717 48.0834 140.734 47.9531 140.783C47.8228 140.832 47.6924 140.93 47.611 141.044C47.2364 141.648 47.0083 142.317 46.9432 143.036C46.536 145.141 46.3894 147.28 46.5197 149.418C46.5685 151.067 46.7803 152.716 47.1223 154.332C47.3667 155.524 47.6762 156.716 48.0834 157.875C48.5394 159.099 49.1747 160.258 49.9565 161.303C50.4452 161.956 51.0316 162.511 51.6994 162.968C52.0903 163.262 52.5138 163.523 52.9536 163.735C52.9536 164.813 52.9536 165.874 52.9536 166.951C52.9536 169.628 52.8722 172.338 52.5952 174.983C52.3021 177.986 51.9926 180.37 51.5202 183.308C51.0967 186.083 50.6081 188.826 49.9891 191.552C49.2724 194.523 48.3928 197.445 47.4644 200.367C46.6989 203.159 45.7378 205.901 44.7442 208.644C43.7507 211.403 42.7896 214.129 41.9426 216.92C40.7536 220.806 39.6948 224.74 38.6361 228.69C36.3394 236.902 34.5151 245.243 32.6745 253.569C31.7624 257.715 30.6385 261.813 29.6123 265.927C28.8468 268.996 27.9346 272.032 26.8759 275.019C23.5205 278.219 20.1651 281.435 17.5264 285.271C16.207 287.034 15.132 288.961 14.3338 291.017C14.0732 291.605 13.9429 292.225 13.9266 292.862C14.0081 293.189 14.2198 293.466 14.4967 293.662C14.7899 293.842 15.132 293.907 15.4577 293.842C16.5816 293.678 17.4449 292.83 18.2756 292.111C22.1685 288.422 24.6444 283.525 26.5338 278.562C26.8922 277.664 27.2342 276.783 27.56 275.885C27.5926 275.852 27.6252 275.803 27.6577 275.77C27.8206 275.591 27.9835 275.411 28.1627 275.232C28.7002 274.693 29.254 274.171 29.8567 273.697C32.642 271.444 36.5675 269.143 39.9066 267.069C42.3987 265.535 44.9071 264.017 47.4481 262.515C50.1031 260.899 52.7744 259.266 55.4783 257.732C57.7749 256.393 60.0879 254.989 62.4334 253.651C65.2513 252.067 68.1018 250.5 70.9522 248.949C74.2099 247.202 77.6305 245.75 80.7253 243.693C82.6636 242.403 84.4879 240.934 86.1493 239.301C87.8759 237.865 89.407 236.216 90.7101 234.371C91.4919 233.294 92.1923 232.151 92.8438 230.992C93.3651 229.964 93.8049 228.903 94.2121 227.842C94.8473 226.127 95.4174 225.001 96.0201 223.222V223.156C96.2155 223.189 96.411 223.173 96.5902 223.107C98.1213 222.65 98.7077 220.642 98.7728 219.19C98.7891 218.798 98.6751 218.422 98.4633 218.112C98.333 217.998 98.1701 217.949 98.0072 217.949C97.8444 217.949 97.6815 218.031 97.5675 218.145C96.8508 218.863 96.3296 219.761 96.0364 220.724C96.0364 220.708 96.0364 220.675 96.0364 220.659C95.2708 218.357 94.2609 216.088 93.4954 214.292C92.6647 212.186 92.0457 209.999 91.6385 207.762C91.1987 205.33 91.3779 202.081 91.3127 199.208C91.3127 197.87 91.215 196.531 91.1173 195.176C91.0195 193.136 90.8241 191.111 90.5309 189.087C90.14 186.54 88.8369 184.598 88.1365 182.329C87.7944 181.284 87.6641 180.321 88.0062 179.717C88.0225 179.668 88.0551 179.635 88.0876 179.586L88.1365 179.537H88.1854H88.2994C89.2441 179.749 89.7165 180.256 90.5309 181.137C91.1987 181.904 92.3715 183.259 92.795 183.765C93.2673 184.418 93.6908 185.12 94.0492 185.855C94.6193 186.834 95.0916 187.863 95.4663 188.924C96.1504 190.997 96.4761 193.185 97.258 195.225C97.5675 196.123 98.0073 196.972 98.5937 197.739C99.2452 198.588 100.125 199.959 101.363 199.633C102.177 199.257 102.584 198.343 103.04 197.625C103.676 196.4 104.164 195.111 104.506 193.789C104.767 192.94 104.962 192.058 105.109 191.177C105.174 190.36 105.19 189.544 105.158 188.728C105.174 187.748 105.076 186.769 104.881 185.806C104.588 184.598 104.148 183.439 103.562 182.361C102.943 181.382 102.275 180.451 101.558 179.554C99.913 177.35 98.2353 175.081 98.2027 172.632C98.1539 172.11 98.1864 171.571 98.2516 171.048C99.18 171.979 100.646 172.991 101.705 173.971C102.275 174.542 102.78 175.179 103.366 175.734C104.441 176.778 105.565 177.774 106.559 178.901C107.275 179.717 107.927 180.615 108.611 181.464C109.295 182.296 109.93 183.178 110.517 184.075C111.038 184.924 111.592 185.757 112.113 186.606C112.357 187.732 112.585 188.859 112.83 189.969C113.025 190.948 113.204 191.944 113.367 192.923C113.514 193.495 113.612 195.29 114.312 195.388C115.175 195.454 115.208 192.907 115.175 192.319C115.077 190.067 113.872 188.108 112.699 186.247C112.602 185.822 112.52 185.398 112.439 184.973C112.308 184.484 112.211 183.994 112.146 183.488C112.406 183.684 112.634 183.912 112.83 184.157C113.237 184.761 113.595 185.398 113.905 186.051C114.459 187.112 115.012 188.157 115.485 189.25C115.566 189.414 115.648 189.642 115.745 189.887C115.843 190.148 115.745 190.393 115.696 190.654C115.615 192.156 115.615 193.642 115.615 195.144C115.582 196.27 115.631 197.38 115.762 198.49C115.794 199.192 115.99 199.861 116.299 200.482C116.381 200.612 116.495 200.71 116.625 200.775C116.755 200.841 116.918 200.873 117.065 200.857C117.195 200.841 117.309 200.775 117.407 200.71C117.504 200.645 117.602 200.531 117.651 200.416C117.716 200.302 117.765 200.188 117.814 200.074V200.041C118.058 199.421 118.205 198.784 118.237 198.115C118.303 197.543 118.303 196.972 118.237 196.4C118.694 197.608 119.198 198.784 119.703 199.976C120.306 201.135 120.713 202.375 120.941 203.649C121.316 205.216 121.332 206.799 121.104 208.35ZM0.244383 223.826L0.293246 223.401C1.00993 218.112 2.03611 212.17 2.8831 206.554C3.82783 200.678 5.11461 194.85 6.5317 189.054C8.30713 181.235 11.1413 173.677 13.9592 166.2C15.979 160.862 18.2919 155.638 20.8655 150.545C23.6997 145.06 26.6641 139.836 31.2412 135.788C32.4302 134.71 34.4011 133.323 35.4762 133.11C35.9159 133.029 36.372 133.127 36.7629 133.371C37.1376 133.616 37.3982 134.008 37.4959 134.449C37.5611 135.249 37.4633 136.065 37.2353 136.832C36.3883 140.26 34.3523 143.248 32.1859 146.235C29.6938 149.696 27.0714 153.092 24.8398 156.748C23.0807 159.556 21.4356 162.445 19.8882 165.384C18.3245 168.306 16.7608 171.163 15.4089 174.166C13.8778 177.578 12.5584 181.088 11.1902 184.582C8.95867 190.262 6.92262 196.025 5.04946 201.853C4.33277 204.155 3.5835 206.505 3.01341 208.889C1.9058 213.607 1.07509 218.39 0.342114 223.173C0.309538 223.385 0.260671 223.597 0.244383 223.826ZM88.6414 124.458C88.7066 122.499 88.8858 120.54 89.1789 118.598C89.5699 116.835 89.9934 115.235 91.101 114.174L91.1498 114.255C91.1987 114.386 91.2476 114.517 91.2802 114.664C91.6874 116.492 90.8404 119.594 90.3029 120.949C89.8468 122.173 89.293 123.348 88.6414 124.458ZM46.5034 103.71C46.8129 104.738 47.1712 105.75 47.5621 106.779C48.0671 108.232 48.4417 109.734 48.686 111.268C48.8163 112.443 48.8489 113.619 48.8163 114.81C48.8163 116.345 48.572 118.794 47.5621 119.234L47.4318 119.283C47.1549 118.581 46.9758 117.831 46.9106 117.08C46.8129 116.443 46.6826 114.549 46.6337 113.456C46.4871 110.387 46.4871 107.301 46.5197 104.232C46.5197 104.102 46.5197 103.922 46.5197 103.742V103.71H46.5034ZM53.1653 162.903C52.4487 162.462 51.7808 161.923 51.1944 161.319C50.38 160.34 49.7122 159.262 49.2073 158.087C47.5784 153.549 47.1061 148.668 47.839 143.901C47.9205 143.134 48.1159 142.383 48.3928 141.681C48.458 141.779 48.5231 141.893 48.5883 141.991C48.8489 142.464 49.077 142.954 49.305 143.444C50.1357 145.468 50.7872 147.557 51.2433 149.696C52.1066 153.271 52.7256 156.911 53.0839 160.584C53.1328 161.352 53.1491 162.135 53.1653 162.903ZM26.3058 276.668C26.1592 277.076 25.9963 277.484 25.8334 277.893C23.9114 282.937 21.517 287.883 17.4612 291.638C16.4025 292.65 15.1645 293.254 14.8713 292.699V292.617C14.8713 292.552 14.8713 292.487 14.8713 292.421C14.8876 292.291 14.9202 292.16 14.9691 292.046C15.0342 291.801 15.1157 291.573 15.1971 291.344C15.8487 289.581 16.7445 287.916 17.8521 286.381C19.1226 284.504 20.5397 282.725 22.0708 281.076C23.439 279.574 24.8887 278.137 26.3547 276.717L26.3058 276.668ZM96.2481 222.601C96.7205 221.116 97.0951 219.647 98.0072 218.7L98.0887 218.635C98.1538 218.814 98.2027 219.01 98.2027 219.19C98.2027 219.696 98.1213 220.185 97.9584 220.659C97.9095 221.116 97.7141 221.557 97.4209 221.899C97.1277 222.259 96.7205 222.503 96.2807 222.618L96.2481 222.601ZM113.123 188.336C113.237 188.516 113.335 188.695 113.432 188.875C113.807 189.577 114.1 190.311 114.312 191.079C114.524 192.009 114.589 192.989 114.475 193.935C114.442 194.148 114.41 194.376 114.345 194.588C114.035 193.364 113.807 192.14 113.628 190.899C113.481 190.083 113.318 189.218 113.139 188.369L113.123 188.336Z" fill="black"/>
</g>
<defs>
<clipPath id="clip0_41_96">
<rect width="122" height="167" fill="white"/>
</clipPath>
</defs>
</svg>
