<svg width="29" height="25" viewBox="0 0 29 25" fill="none" xmlns="http://www.w3.org/2000/svg">
<path d="M26.697 1C27.5262 1 28.1518 1.72642 27.8172 3.07755L23.7583 22.1823C23.4746 23.5407 22.6527 23.8676 21.518 23.2356L11.8364 16.0949C11.7989 16.068 11.7683 16.0326 11.7472 15.9915C11.7261 15.9505 11.7151 15.905 11.7151 15.8588C11.7151 15.8127 11.7261 15.7672 11.7472 15.7262C11.7683 15.6851 11.7989 15.6497 11.8364 15.6228L23.0164 5.5401C23.5256 5.08972 22.9073 4.8718 22.2381 5.27859L8.20672 14.1191C8.16417 14.1468 8.11585 14.1645 8.06544 14.1708C8.01503 14.1771 7.96384 14.1718 7.91577 14.1554L1.95844 12.274C0.634594 11.889 0.634594 10.981 2.25667 10.3345L26.0932 1.15255C26.2823 1.06198 26.4876 1.01011 26.697 1Z" stroke="#272727" stroke-width="1.5" stroke-linecap="round" stroke-linejoin="round"/>
</svg>
