<svg width="29" height="29" viewBox="0 0 29 29" fill="none" xmlns="http://www.w3.org/2000/svg">
<path d="M14.4257 1C12.0935 1.0025 9.80215 1.61163 7.77688 2.7675C5.7516 3.92336 4.06214 5.58617 2.8746 7.59242C1.68706 9.59868 1.04232 11.8793 1.00378 14.2101C0.965242 16.5409 1.53423 18.8416 2.65479 20.886L1 27.8392L7.95637 26.1852C9.75057 27.169 11.746 27.7298 13.7903 27.8247C15.8345 27.9197 17.8734 27.5463 19.7511 26.7331C21.6289 25.9198 23.2958 24.6883 24.6245 23.1326C25.9532 21.5769 26.9085 19.7381 27.4174 17.7569C27.9263 15.7756 27.9754 13.7043 27.5609 11.7012C27.1463 9.69811 26.2791 7.81624 25.0256 6.19941C23.7721 4.58257 22.1653 3.27357 20.3282 2.37243C18.491 1.47128 16.4721 1.00185 14.4257 1ZM7.71283 7.09812H11.3721C11.5377 7.09812 11.6966 7.16388 11.8137 7.28093C11.9308 7.39798 11.9966 7.55674 11.9966 7.72228C11.9761 8.55467 12.116 9.38323 12.4087 10.1628C12.5347 10.4237 12.5625 10.7214 12.4868 11.0011C12.4111 11.2808 12.237 11.5239 11.9966 11.6857L10.7164 12.9341C11.284 14.042 12.0262 15.0515 12.9145 15.9238C13.7802 16.8262 14.786 17.5829 15.8931 18.1646L17.142 16.8851C17.7665 16.2609 18.0537 16.2609 18.6657 16.4731C19.4456 16.7657 20.2745 16.9055 21.1073 16.8851C21.2704 16.8927 21.4249 16.9609 21.5404 17.0763C21.6559 17.1918 21.7241 17.3461 21.7317 17.5092V21.1668C21.7241 21.3299 21.6559 21.4843 21.5404 21.5998C21.4249 21.7152 21.2704 21.7834 21.1073 21.791C17.434 21.6311 13.9521 20.109 11.3409 17.5217C8.7484 14.9144 7.22491 11.4324 7.06965 7.75973C7.07114 7.58793 7.13881 7.42331 7.25859 7.30009C7.37838 7.17687 7.54107 7.10453 7.71283 7.09812Z" stroke="#272727" stroke-width="1.5" stroke-linecap="round" stroke-linejoin="round"/>
</svg>
