<svg xmlns="http://www.w3.org/2000/svg">
    <symbol id="icon-te" viewBox="0 0 29 25">
        <g>
            <path d="M26.697 1C27.5262 1 28.1518 1.72642 27.8172 3.07755L23.7583 22.1823C23.4746 23.5407 22.6527 23.8676 21.518 23.2356L11.8364 16.0949C11.7989 16.068 11.7683 16.0326 11.7472 15.9915C11.7261 15.9505 11.7151 15.905 11.7151 15.8588C11.7151 15.8127 11.7261 15.7672 11.7472 15.7262C11.7683 15.6851 11.7989 15.6497 11.8364 15.6228L23.0164 5.5401C23.5256 5.08972 22.9073 4.8718 22.2381 5.27859L8.20672 14.1191C8.16417 14.1468 8.11585 14.1645 8.06544 14.1708C8.01503 14.1771 7.96384 14.1718 7.91577 14.1554L1.95844 12.274C0.634594 11.889 0.634594 10.981 2.25667 10.3345L26.0932 1.15255C26.2823 1.06198 26.4876 1.01011 26.697 1Z" stroke-width="1.5" stroke-linecap="round" stroke-linejoin="round"/>
        </g>
    </symbol>
    <symbol id="icon-wa" viewBox="0 0 29 29">
        <g>
            <path d="M14.4257 1C12.0935 1.0025 9.80215 1.61163 7.77688 2.7675C5.7516 3.92336 4.06214 5.58617 2.8746 7.59242C1.68706 9.59868 1.04232 11.8793 1.00378 14.2101C0.965242 16.5409 1.53423 18.8416 2.65479 20.886L1 27.8392L7.95637 26.1852C9.75057 27.169 11.746 27.7298 13.7903 27.8247C15.8345 27.9197 17.8734 27.5463 19.7511 26.7331C21.6289 25.9198 23.2958 24.6883 24.6245 23.1326C25.9532 21.5769 26.9085 19.7381 27.4174 17.7569C27.9263 15.7756 27.9754 13.7043 27.5609 11.7012C27.1463 9.69811 26.2791 7.81624 25.0256 6.19941C23.7721 4.58257 22.1653 3.27357 20.3282 2.37243C18.491 1.47128 16.4721 1.00185 14.4257 1ZM7.71283 7.09812H11.3721C11.5377 7.09812 11.6966 7.16388 11.8137 7.28093C11.9308 7.39798 11.9966 7.55674 11.9966 7.72228C11.9761 8.55467 12.116 9.38323 12.4087 10.1628C12.5347 10.4237 12.5625 10.7214 12.4868 11.0011C12.4111 11.2808 12.237 11.5239 11.9966 11.6857L10.7164 12.9341C11.284 14.042 12.0262 15.0515 12.9145 15.9238C13.7802 16.8262 14.786 17.5829 15.8931 18.1646L17.142 16.8851C17.7665 16.2609 18.0537 16.2609 18.6657 16.4731C19.4456 16.7657 20.2745 16.9055 21.1073 16.8851C21.2704 16.8927 21.4249 16.9609 21.5404 17.0763C21.6559 17.1918 21.7241 17.3461 21.7317 17.5092V21.1668C21.7241 21.3299 21.6559 21.4843 21.5404 21.5998C21.4249 21.7152 21.2704 21.7834 21.1073 21.791C17.434 21.6311 13.9521 20.109 11.3409 17.5217C8.7484 14.9144 7.22491 11.4324 7.06965 7.75973C7.07114 7.58793 7.13881 7.42331 7.25859 7.30009C7.37838 7.17687 7.54107 7.10453 7.71283 7.09812Z"  stroke-width="1.5" stroke-linecap="round" stroke-linejoin="round"/>
        </g>
    </symbol>
    <symbol id="icon-le" viewBox="0 0 28 12">
        <g>
            <path d="M0.469667 6.53033C0.176775 6.23744 0.176775 5.76256 0.469667 5.46967L5.24264 0.696699C5.53553 0.403806 6.01041 0.403806 6.3033 0.696699C6.59619 0.989593 6.59619 1.46447 6.3033 1.75736L2.06066 6L6.3033 10.2426C6.59619 10.5355 6.59619 11.0104 6.3033 11.3033C6.01041 11.5962 5.53553 11.5962 5.24264 11.3033L0.469667 6.53033ZM28 6.75H0.999998V5.25H28V6.75Z"/>
        </g>
    </symbol>
    <symbol id="icon-ri" viewBox="0 0 28 12">
        <g>
            <path d="M27.5303 6.53033C27.8232 6.23744 27.8232 5.76256 27.5303 5.46967L22.7574 0.696699C22.4645 0.403806 21.9896 0.403806 21.6967 0.696699C21.4038 0.989593 21.4038 1.46447 21.6967 1.75736L25.9393 6L21.6967 10.2426C21.4038 10.5355 21.4038 11.0104 21.6967 11.3033C21.9896 11.5962 22.4645 11.5962 22.7574 11.3033L27.5303 6.53033ZM0 6.75H27V5.25H0V6.75Z"/>
        </g>
    </symbol>
</svg>